<svg xmlns="http://www.w3.org/2000/svg" viewBox="0 0 1648.98 586.11"><defs><style>.cls-1{fill:#cecfce;}.cls-2{fill:#686767;}.cls-3{fill:#656565;}.cls-4{fill:#93651f;}.cls-5{fill:#d3ba86;}.cls-6{fill:#b7934d;}.cls-7{fill:#edb43f;}.cls-8{fill:#f6ec7f;}.cls-9{fill:#9e8123;}.cls-10{fill:#eebc53;}.cls-11{fill:#5b5a5a;}.cls-12{fill:#a99a6d;}.cls-13{fill:#e8e8e8;}.cls-14{fill:#ac841f;}.cls-15{fill:#e5d974;}</style></defs><g id="Layer_2" data-name="Layer 2"><g id="LOGO-Model_Image_Image" data-name="LOGO-Model Image Image"><path class="cls-1" d="M507.43,470.24c-.1,2.32-.27,4.64-.27,7q0,30.24,0,60.47c0,1.94-.09,3.87-.2,5.8a2.16,2.16,0,0,1-2,1.83c-1.93.08-3.87.13-5.81.13H50.59c-2.13,0-4.26,0-6.39-.1a2.44,2.44,0,0,1-2.47-2.64c0-.78-.07-1.55-.07-2.33,0-1.35,0-2.71,0-4.07V88c0-2.13,0-4.26.1-6.39a2.43,2.43,0,0,1,2.66-2.45c1.55-.06,3.1-.07,4.65-.07H72.33c2.14,0,4.27-.1,6.4-.16l.49.47c0,2.32,0,4.65,0,7q0,187.79,0,375.58c0,1.55,0,3.1,0,4.65,0,.58.09,1.16.15,1.73a1.88,1.88,0,0,0,1.47,1.58c1.34.1,2.7.21,4,.21q13.67,0,27.34,0H499c2.71,0,5.42-.15,8.13-.22Z"/><path class="cls-1" d="M541.86,469.94c-10.34,0-20.68-.06-31-.06a32.56,32.56,0,0,0-3.41.35l-.27-.36c.06-2.13.17-4.26.17-6.39q0-22.38,0-44.75V87.43c0-2.13,0-4.26-.1-6.39a1.91,1.91,0,0,0-1.79-1.9c-2.13-.07-4.26-.13-6.39-.13H86.75a33.32,33.32,0,0,0-7.53.35l-.49-.47c.06-.77.18-1.53.18-2.3q0-16.17-.06-32.35a2.59,2.59,0,0,1,1-.51c2.29.63,4.63.39,7,.39H463.05c1.55,0,3.1,0,4.65-.07a7.54,7.54,0,0,0,1.68-.37,2,2,0,0,0,.86-2,1.32,1.32,0,0,0-1.24-1c-1.93-.1-3.87-.17-5.8-.18H86.91c-2.31,0-4.63.2-7,.31l-2.21-.57a6.06,6.06,0,0,0,1.16-3.23c0-1.35,0-2.71,0-4.07,0-8.91,0-17.83,0-26.74a21.71,21.71,0,0,1,.33-4,2.69,2.69,0,0,1,2-1.95A6.16,6.16,0,0,1,83,0c1.93,0,3.87,0,5.81,0H536.71c2.32,0,4.64.12,7,.23a2,2,0,0,1,1.59,1.48,12.56,12.56,0,0,1,.24,1.71c0,1.75,0,3.49,0,5.24q0,52.61,0,105.23a7.45,7.45,0,0,0-1.16.07c-1.61.32-2.19.85-2.23,2.16q-.1,3.2-.1,6.39,0,169.65,0,339.3C542.06,464.53,541.93,467.23,541.86,469.94Z"/><path class="cls-2" d="M1210.94,235h38.38c1.55,0,3.1,0,4.65.05s2.43.8,2.44,2.54c0,3.09-.05,6.19-.11,9.28a1.78,1.78,0,0,1-1.47,1.57c-1.73.11-3.47.22-5.21.22q-28.2,0-56.41,0h-20.35c-1.55,0-3.11,0-4.65.08-2.44.12-3.89,1.59-4.7,3.73a8.57,8.57,0,0,0-.55,2.83q-.07,9.87,0,19.76a11.21,11.21,0,0,0,.34,2.29,5.32,5.32,0,0,0,4.84,4.33c1.73.14,3.48.13,5.22.13q26.46,0,52.92,0a46.6,46.6,0,0,1,8.09.7,26.42,26.42,0,0,1,18.22,12.3,24.85,24.85,0,0,1,4.1,14.31c-.09,4.45-.18,8.91,0,13.36.45,10-6.24,22-19.35,26.12a26.32,26.32,0,0,1-8,1.22q-37.21-.07-74.43,0c-1,0-1.94,0-2.91,0a2.17,2.17,0,0,1-2.32-2.07c0-3.1,0-6.2,0-9.3a2.12,2.12,0,0,1,2.26-2.11c1.75-.05,3.49-.06,5.24-.06h68.62c1.55,0,3.1,0,4.65,0a13.16,13.16,0,0,0,12.3-9.78,20.17,20.17,0,0,0,.84-5.73c0-3.29,0-6.59,0-9.88a19.43,19.43,0,0,0-.91-5.72,13.51,13.51,0,0,0-11.94-9.57c-1.54-.11-3.1-.06-4.65-.06H1172a32.28,32.28,0,0,1-8.63-.95A19.61,19.61,0,0,1,1149.69,278a11.12,11.12,0,0,1-.06-1.16c0-7.75-.2-15.5,0-23.24A19.51,19.51,0,0,1,1167.91,235c1.54-.12,3.1-.06,4.65-.06Z"/><path class="cls-2" d="M1018,306.22V272.51c0-1.74,0-3.48,0-5.23a33.41,33.41,0,0,1,23-30.51,35.64,35.64,0,0,1,11.43-1.8c8,0,15.89,0,23.84,0,4.46,0,8.91,0,13.37,0a33.08,33.08,0,0,1,16.17,4.07c11.42,6.42,17.62,16.24,17.75,29.3.24,25.37.07,50.75.06,76.12a23.39,23.39,0,0,1-.29,3.45c0,.3-.42.62-.72.8a2.46,2.46,0,0,1-1.09.32c-1.16.06-2.32.1-3.49.09-8.89-.08-7.75,1-7.77-7.7,0-22.86,0-45.72,0-68.57,0-1.75.09-3.5-.06-5.23-.72-8.2-4.6-14.22-12.27-17.61a13.8,13.8,0,0,0-5-1.29c-1.55-.06-3.1-.1-4.65-.11h-34.88c-1,0-1.94,0-2.91,0-8.38-.19-18.19,6.84-19,18.38-.12,1.74-.06,3.49-.07,5.23q0,34.86,0,69.73c0,8,.85,7.11-7.15,7.14a49.92,49.92,0,0,1-5.18-.38,1.09,1.09,0,0,1-.74-.73,32,32,0,0,1-.31-4Q1018,325.1,1018,306.22Z"/><path class="cls-3" d="M863.44,306.41q0,18,0,36a47.7,47.7,0,0,1-.25,5.21,1.66,1.66,0,0,1-1.09,1.12c-3.48.11-7,.11-10.45.12-.59,0-1.38-.89-1.44-1.56s-.14-1.55-.16-2.32c0-1.55,0-3.1,0-4.65q0-27.3,0-54.62,0-7.55.14-15.1a30.88,30.88,0,0,0-.7-6.91c-1.79-8.58-10.28-15.24-18.33-15.07-1,0-1.94,0-2.9,0H792.77c-.77,0-1.55.05-2.32,0-7.94-.38-18.2,6.46-19.12,18.27-.18,2.31-.15,4.64-.15,7q0,33.42,0,66.82c0,1.55,0,3.1,0,4.65-.06,3.3-.37,3.7-3.68,3.65-11.08-.18-9.54,1.86-9.58-9.36q-.1-34,0-68c0-2.51.19-5,.42-7.52,1.29-14.41,14.08-26.35,26.24-28.28a44.58,44.58,0,0,1,6.9-.87c12.79,0,25.58-.05,38.37,0a33,33,0,0,1,20.52,7,32.51,32.51,0,0,1,13.06,24.88c.08,1.55,0,3.1,0,4.65Z"/><path class="cls-3" d="M679.55,235q23.25,0,46.51,0c1.54,0,3.08.13,4.62.28.29,0,.62.47.79.79a2.37,2.37,0,0,1,.28,1.11c0,3.1,0,6.2,0,9.3a2.17,2.17,0,0,1-2.31,2.08c-1.74.05-3.48.06-5.23.06-10.66,0-21.31,0-32,0-5.55,0-5.51.25-5.51,5.49,0,28.47,0,56.94,0,85.41,0,11.36,1.47,9.27-9.46,9.49a22.41,22.41,0,0,1-2.31-.16,1.74,1.74,0,0,1-1.41-1.56c-.06-.78-.12-1.55-.13-2.32,0-1.55,0-3.1,0-4.65q0-42.12,0-84.25c0-1.93-.09-3.86-.17-5.8a1.76,1.76,0,0,0-1.55-1.48c-1.54-.08-3.09-.16-4.63-.16q-16.57,0-33.14,0c-1.55,0-3.1-.05-4.64-.12a2,2,0,0,1-1.8-1.94c0-3.29,0-6.58.09-9.87a1.7,1.7,0,0,1,1.46-1.54c1.73-.07,3.47-.15,5.21-.15Z"/><path class="cls-2" d="M1541.85,291.55q0-25.26,0-50.53c0-1.74.08-3.48.15-5.21a1.86,1.86,0,0,1,1.47-1.58,51.84,51.84,0,0,1,10.42,0,1.82,1.82,0,0,1,1.43,1.6c.07,1.94.13,3.87.13,5.8q0,43,0,86c0,9.56-1.25,8.33,8.26,8.35,26.35,0,52.7,0,79,0,1.73,0,3.47.15,5.19.3.28,0,.55.46.78.74a.87.87,0,0,1,.2.53c0,3.28,0,6.57,0,9.85a1.8,1.8,0,0,1-1.49,1.53c-1,0-1.94.08-2.91.08q-48.81,0-97.63,0c-1.16,0-2.32-.1-3.47-.18a1.83,1.83,0,0,1-1.48-1.55c0-.57-.12-1.15-.13-1.73,0-1.55,0-3.1,0-4.64Z"/><path class="cls-3" d="M955.25,281.36h34.31c1.16,0,2.33,0,3.49.06,1.35.05,2,.77,2.07,2.25,0,1.17.07,2.33,0,3.49,0,1.94-.07,3.87-.14,5.8a1.63,1.63,0,0,1-1.52,1.46c-1.93.06-3.87.13-5.81.13h-64a33.76,33.76,0,0,0-7,.46c-9.39,1.93-15.74,9-16.49,18.51-.12,1.54-.07,3.1-.08,4.65v25c0,1.16,0,2.32-.05,3.48a2.08,2.08,0,0,1-2.07,2.28c-2.71.05-5.43.08-8.14.05-2.49,0-3.06-.57-3.07-3.11,0-10.65-.22-21.32,0-32a33.4,33.4,0,0,1,23.71-31.19,33,33,0,0,1,10.32-1.38c5.82.06,11.63,0,17.45,0Z"/><path class="cls-4" d="M545.48,540.79c0,1.74.12,3.48.13,5.23q0,16.56.07,33.13c0,1.75-.06,3.49-.12,5.23a1.69,1.69,0,0,1-1.4,1.58c-.58,0-1.16.13-1.74.13-1.55,0-3.1,0-4.65,0H84.64c-2.13,0-4.26-.1-6.38-.17-.61,0-1.17-1-1.11-1.81a1.48,1.48,0,0,1,.94-1.32,5.21,5.21,0,0,1,1.72-.21c1.94,0,3.88,0,5.82,0H534.1c2.13,0,4.27-.07,6.4-.12A1.66,1.66,0,0,0,542,581c.07-1.54.14-3.09.15-4.64,0-9.88,0-19.76.08-29.65,0-1.93.09-3.87.14-5.8Z"/><path class="cls-2" d="M1332.74,298.82h-47.12c-1.74,0-3.48-.08-5.22-.15a1.78,1.78,0,0,1-1.55-1.46c-.08-1.35-.2-2.7-.18-4.05.09-8.53-1.12-7.79,7.74-7.8q46.83,0,93.65,0c7.82,0,7.24-.75,7.23,7.15,0,1.73-.18,3.46-.35,5.18,0,.3-.44.62-.74.79a2.53,2.53,0,0,1-1.11.28c-1.75,0-3.49.06-5.24.06Z"/><path class="cls-2" d="M1463,285.35q23.82,0,47.65,0c1.74,0,3.47.1,5.21.18a1.8,1.8,0,0,1,1.45,1.57,11.45,11.45,0,0,1,.11,1.15c0,2.52,0,5,0,7.55,0,2.24-.63,2.85-2.66,2.9-1.36,0-2.72,0-4.07,0H1416c-1.55,0-3.1,0-4.65-.05-2-.05-2.33-1.05-2.44-2.56,0-.39,0-.77,0-1.16.2-11-1.74-9.55,9.42-9.6C1433.21,285.3,1448.13,285.35,1463,285.35Z"/><path class="cls-2" d="M1333.37,235h47.07c1.74,0,3.48.06,5.22.12a1.82,1.82,0,0,1,1.45,1.56c.05.39.11.77.14,1.15a9.06,9.06,0,0,1,0,1.16c-.13,11.13,1.49,9.63-9.41,9.65q-45.9.09-91.81,0c-1.93,0-3.86-.1-5.79-.2a1.74,1.74,0,0,1-1.47-1.56c0-3.47,0-6.95.06-10.42a1.71,1.71,0,0,1,1.63-1.36c1.55-.06,3.1-.11,4.64-.11q15.1,0,30.22,0Z"/><path class="cls-2" d="M941.13,235q24.09,0,48.18,0a44.41,44.41,0,0,1,4.61.3c.28,0,.54.46.78.74a1,1,0,0,1,.22.52,51,51,0,0,1,0,10.41,2,2,0,0,1-1.53,1.52c-1.16.07-2.32.15-3.48.15H891.81c-1.15,0-2.31-.09-3.47-.16a1.81,1.81,0,0,1-1.55-1.47q0-5.2,0-10.41a1.7,1.7,0,0,1,1.53-1.46c1.74-.07,3.48-.14,5.21-.14Z"/><path class="cls-2" d="M1463.1,235h46.53c1.74,0,3.49,0,5.23,0,2,0,2.41,1,2.44,2.51,0,2.91,0,5.81,0,8.72a2.09,2.09,0,0,1-2.08,2.29q-2.32.09-4.65.09h-94.22c-1.93,0-3.87-.11-5.8-.21a1.83,1.83,0,0,1-1.5-1.55,19.91,19.91,0,0,1-.15-2.31c.2-11.09-1.76-9.5,9.42-9.56C1433.24,234.92,1448.17,235,1463.1,235Z"/><path class="cls-3" d="M1463.07,349h-45.88c-1.55,0-3.1,0-4.65,0-3.3-.05-3.61-.34-3.63-3.66,0-2.52,0-5,.1-7.54a1.89,1.89,0,0,1,1.89-1.8c1.55-.06,3.1-.1,4.64-.1h95.25c1.36,0,2.71,0,4.07,0,1.73.07,2.41.73,2.43,2.52,0,2.9,0,5.8-.07,8.7a1.78,1.78,0,0,1-1.88,1.76c-1.75.05-3.49.08-5.23.08Z"/><path class="cls-3" d="M1333.12,349q-24.43,0-48.86,0a42,42,0,0,1-4.62-.31c-.3,0-.57-.49-.8-.79a1,1,0,0,1-.11-.56c0-3.29,0-6.58,0-9.86a1.74,1.74,0,0,1,1.51-1.5c1.93-.09,3.87-.19,5.8-.19q43,0,86.07,0c3.88,0,7.76,0,11.63,0a8.4,8.4,0,0,1,2.28.35c.31.1.55.51.78.82a1,1,0,0,1,.13.56c0,3.29,0,6.57,0,9.86a1.66,1.66,0,0,1-1.5,1.47c-1.74.06-3.49.14-5.23.14Z"/><path class="cls-5" d="M541.86,469.94c.07-2.71.2-5.41.2-8.12q0-169.65,0-339.3,0-3.19.1-6.39c0-1.31.62-1.84,2.23-2.16a7.45,7.45,0,0,1,1.16-.07c0,1.93.09,3.87.09,5.8V464.08c0,1.93-.13,3.86-.2,5.8l-3.11-.05Z"/><path class="cls-6" d="M1079.58,433.7c-2.51-.08-5-.2-7.54-.23-1.14,0-2.28.19-3.43.23a8.05,8.05,0,0,1-7.11-3.2c-1.17-1.54-2.19-3.19-3.26-4.8-.87-1.29-1.64-2.64-2.6-3.85a3.44,3.44,0,0,0-3.14-1.15c-.73.06-1.64.73-1.67,1.35-.08,1.55-.08,3.1-.18,4.64-.17,2.58.69,4.49,3.26,5.41a.74.74,0,0,1-.29,1.3,44.17,44.17,0,0,1-9.82,0c-.5,0-.69-.33-.55-.82,0-.17.09-.39.21-.47a14.43,14.43,0,0,0,1.48-.88,3.15,3.15,0,0,0,1-1.29,7.64,7.64,0,0,0,.32-2.29q0-9.3,0-18.59c0-.19,0-.38,0-.58a3.87,3.87,0,0,0-2.74-4c-.51-.18-.57-.52-.22-.89a2.35,2.35,0,0,1,.38-.39,1.1,1.1,0,0,1,.54-.19c3.68,0,7.36-.12,11,0a16.89,16.89,0,0,1,4.57.77c5.81,1.87,6.31,8.49,3.52,11.82-1,1.18-2.19,2.17-3.23,3.3A1.15,1.15,0,0,0,1060,420a43.24,43.24,0,0,0,7.24,10.44,5.73,5.73,0,0,0,1.93,1.25,5.42,5.42,0,0,0,2.22.38,13.28,13.28,0,0,0,2.26-.55,2.84,2.84,0,0,0,2.19-2.4,7.77,7.77,0,0,0,.19-1.73c0-6.2,0-12.39,0-18.59a4.37,4.37,0,0,0-2.47-4.24c-.46-.24-.49-.59-.17-.91.14-.13.24-.34.39-.39a3.41,3.41,0,0,1,1.13-.24q7.85-.06,15.69-.07a11.57,11.57,0,0,1,1.15.13,2,2,0,0,1,1.55,1.52c0,1.54,0,3.07,0,4.61,0,.51-.31.7-.81.56-.17-.05-.4-.08-.5-.2a7.77,7.77,0,0,1-.94-1.42c-.9-2.05-2.57-2.77-4.66-2.8-1,0-1.94,0-2.9,0-2,.08-2.91.87-3,2.74-.07,1.35-.09,2.71-.08,4.06,0,4.1.52,4.5,4.81,4.38,1.89-.06,3.39-.61,4.17-2.51.09-.23.65-.42.95-.37a1,1,0,0,1,.66.69q.1,3.48,0,6.95c0,.24-.45.5-.74.68a.51.51,0,0,1-.51-.1,10.43,10.43,0,0,1-1-1.34,3.42,3.42,0,0,0-2.87-1.68c-.38,0-.77-.05-1.16-.06-3.94-.11-4.3.2-4.31,4.17,0,2.13.13,4.25.28,6.37a2.43,2.43,0,0,0,1.93,1.93,19.92,19.92,0,0,0,2.31.16c5.28,0,5.67.54,9-4.6a.81.81,0,0,1,.45-.35,3,3,0,0,1,1-.06c.1,0,.23.34.21.51a12.25,12.25,0,0,1-.28,2.27c-1.19,4.42-1.2,4.43-6,4.45-3.29,0-6.58,0-9.88,0Zm-29-21.8h.22c0,1.72,0,3.44,0,5.16a1.71,1.71,0,0,0,1.52,1.43,8.11,8.11,0,0,0,4.47-.72,5.54,5.54,0,0,0,3.24-4.42,10.13,10.13,0,0,0-.27-4.55,4.74,4.74,0,0,0-1.13-1.94,6.62,6.62,0,0,0-5.77-1.91,2.39,2.39,0,0,0-2,1.8C1050.74,408.47,1050.67,410.19,1050.57,411.9Z"/><path class="cls-7" d="M1,237.22c-.07-2.32-.19-4.63-.2-6.95Q.73,163.63.67,97c0-1.73.18-3.46.27-5.2l2.87-.12c.7,2.07.43,4.21.43,6.33q0,42.92,0,85.83,0,23.49-.06,47c0,2.11-.24,4.23-.37,6.34Z"/><path class="cls-8" d="M3.87,291.67c.16,1.73.45,3.45.45,5.18q0,43.48,0,87c0,1.54-.15,3.09-.22,4.63l-3.26,0a9.06,9.06,0,0,1-.74-2.16C0,384.79,0,383.23,0,381.68V298.59c0-1.55,0-3.1.1-4.64A8.18,8.18,0,0,1,1,291.86Z"/><path class="cls-9" d="M3.81,91.65l-2.87.12C.88,87.93.8,84.09.78,80.25q-.09-17-.12-34c0-1.91.2-3.82.31-5.73q17.4,0,34.79,0c1.54,0,3.08-.17,4.61-.27a3.72,3.72,0,0,0,.57.08l36.81,0,2.21.57c0,1-.09,1.91-.14,2.86a2.59,2.59,0,0,0-1,.51c-1.35-.05-2.71-.13-4.06-.13H10.35c-1.54,0-3.09.08-4.63.15a1.66,1.66,0,0,0-1.4,1.58c-.07,1.73-.13,3.47-.14,5.21Q4.11,68.17,4,85.28C4,87.4,3.89,89.53,3.81,91.65Z"/><path class="cls-6" d="M851,416.18c1.93,0,3.87,0,5.8,0a1.83,1.83,0,0,0,1.76-1.89c0-1.93,0-3.86.06-5.8a3.89,3.89,0,0,0-2.69-4c-.51-.2-.57-.52-.19-.89.13-.12.24-.34.39-.36a31,31,0,0,1,9.22-.05c.28,0,.53.48.74.77,0,.05-.08.32-.2.4-.48.31-1,.58-1.47.89a2.79,2.79,0,0,0-1.2,1.89,2.89,2.89,0,0,0-.08.58q0,10.44,0,20.88a3,3,0,0,0,2.17,3.07.7.7,0,0,1,.42.37,3.22,3.22,0,0,1,.18,1c0,.11-.23.29-.38.31a44.68,44.68,0,0,1-9.81.08.62.62,0,0,1-.59-.84,1.4,1.4,0,0,1,.22-.48c.11-.14.26-.33.43-.36,2-.41,2.9-1.69,2.85-3.72,0-1.55,0-3.1,0-4.64,0-4.8,0-4.83-4.85-4.85-2.9,0-5.8.07-8.7.14a2,2,0,0,0-1.8,1.91c-.06,2.32,0,4.64-.12,6.95s.65,3.7,2.73,4.53c.18.07.19.65.21,1,0,.09-.26.28-.41.29-3.08.08-6.16.16-9.25.2-.79,0-1.42-.53-1.18-.92a2.42,2.42,0,0,1,.63-.85c.49-.3,1.13-.38,1.57-.72a2.73,2.73,0,0,0,1-1.34,12.61,12.61,0,0,0,.26-2.88c0-5.41,0-10.83,0-16.25a10.71,10.71,0,0,0-.49-4c-.4-.95-1.59-1.57-2.41-2.36a.54.54,0,0,1-.06-.45c.06-.18.18-.44.32-.47a25.33,25.33,0,0,1,9.74-.07c.13,0,.24.28.31.45s.13.41.06.46a3.64,3.64,0,0,1-.94.64,2.88,2.88,0,0,0-1.94,2.65c-.07,2.31-.05,4.63,0,6.95a1.83,1.83,0,0,0,1.9,1.77c1.93,0,3.87,0,5.8,0Z"/><path class="cls-6" d="M1179.07,415.33c0-2.13,0-4.25,0-6.38,0-2.44-1.11-4-3.66-4.42a.74.74,0,0,1-.42-.38.62.62,0,0,1,0-.48c.06-.16.18-.4.31-.42a25.8,25.8,0,0,1,9.19,0c.13,0,.24.28.31.45s.13.41.07.46c-.45.34-1,.64-1.42,1a3,3,0,0,0-1.45,2.38c-.09,1.74-.16,3.48-.17,5.22,0,5.8,0,11.6,0,17.4a9.26,9.26,0,0,1-.39,2.83c-.1.31-1.08.62-1.47.46a4.77,4.77,0,0,1-1.77-1.4c-3.82-4.62-7.58-9.28-11.39-13.9-1.6-1.94-3.27-3.82-5-5.68a1.17,1.17,0,0,0-1-.2,1.11,1.11,0,0,0-.66.79c0,4.44,0,8.88,0,13.32,0,.39.08.77.11,1.15.17,2.07.8,3.78,3.1,4.37.22.05.39.58.44.91s-.23.64-.71.69c-.19,0-.38.07-.57.07-2.51,0-5,0-7.54,0a1.35,1.35,0,0,1-.86-.57c-.28-.37-.14-.75.28-1a9.71,9.71,0,0,1,1-.53,3.15,3.15,0,0,0,2-2.64,26.69,26.69,0,0,0,.23-3.46c0-4.83-.06-9.67.08-14.5.1-3.05-.83-5.27-3.83-6.37-.46-.17-.5-.52-.15-.92.12-.13.27-.31.42-.32,1.34-.1,2.68-.2,4-.22a3.37,3.37,0,0,1,2.57,1.17c1.3,1.43,2.53,2.93,3.79,4.39q6.42,7.47,12.88,14.92a1.14,1.14,0,0,0,1,.19,1.31,1.31,0,0,0,.64-.82,7.54,7.54,0,0,0,.14-1.72c0-1.93,0-3.87,0-5.8Z"/><path class="cls-6" d="M1510.28,420.79c0,2.13,0,4.25,0,6.38,0,2.43.94,4.08,3.36,4.76a.77.77,0,0,1,.39.42.92.92,0,0,1,0,.54c0,.15-.15.4-.26.42a28.68,28.68,0,0,1-9.2,0c-.11,0-.22-.27-.27-.42a.91.91,0,0,1,0-.54.72.72,0,0,1,.37-.43c2.47-.75,3.15-2.63,3.16-4.94,0-5.23-.09-10.45.12-15.67.13-3.27-.79-5.66-3.93-6.95a.55.55,0,0,1-.17-.43c0-.18.1-.46.23-.52a7.54,7.54,0,0,1,5.64,0,6,6,0,0,1,2.17,1.86c2.64,3.09,5.19,6.25,7.83,9.34s5.33,6.11,8,9.13c.16.18.7.06,1,0,.12,0,.23-.28.28-.45a3.93,3.93,0,0,0,.24-1.12c0-4.25-.08-8.51,0-12.76,0-2.7-1.13-4.38-3.81-5a.79.79,0,0,1-.4-.35,4.7,4.7,0,0,1,.65-.87.84.84,0,0,1,.54-.18c2.51,0,5,0,7.54,0,.72,0,1.4.5,1.36.86-.08.66-.6.84-1.08,1.07a3.08,3.08,0,0,0-1.86,2.73c-.1,1.73-.17,3.47-.18,5.21,0,5.23,0,10.45,0,15.67a28.84,28.84,0,0,1-.12,3.48,2.65,2.65,0,0,1-.83,1.4c-.38.37-1.5,0-2-.61s-.8-.84-1.17-1.29l-12.09-14.85a21,21,0,0,0-1.87-2.21c-.91-.84-1.38-2.76-3-2-1.18.51-.58,2.06-.63,3.16-.08,1.73,0,3.48,0,5.22Z"/><path class="cls-6" d="M1335.91,402.92c1.35,0,2.71-.08,4.06,0a32.91,32.91,0,0,1,5.16.62c6.83,1.59,7.35,9.17,3.81,12.73a5.29,5.29,0,0,1-.41.41c-3.39,2.73-2.91,2.83-.88,6.08,2.27,3.6,4.65,7.09,8,9.76.09.07,0,.39,0,.56a.68.68,0,0,1-.32.38,3.64,3.64,0,0,1-1.11.25,8.14,8.14,0,0,1-6.58-3.12c-1.32-1.66-2.43-3.48-3.61-5.25-.75-1.12-1.41-2.3-2.19-3.4a3.44,3.44,0,0,0-2.51-1.28,2,2,0,0,0-2.42,1.81c-.07,1.73,0,3.47-.11,5.21-.09,2.23.82,3.69,3.07,4.21.15,0,.3.25.37.42a.9.9,0,0,1,0,.54c0,.16-.15.4-.27.42a37.62,37.62,0,0,1-10.33,0c-.1,0-.19-.27-.23-.42s-.1-.46,0-.55a2.48,2.48,0,0,1,.91-.68,2.62,2.62,0,0,0,2-2.54q.09-1.74.09-3.48,0-7.25,0-14.49c0-1,0-1.93,0-2.89a3.46,3.46,0,0,0-2.42-3.56c-.26-.09-.45-.49-.6-.79s.67-.84,1.33-.88,1.16-.07,1.74-.07c1.16,0,2.32,0,3.48,0Zm10.38,8.55a6,6,0,0,0-2.1-5.11,6.65,6.65,0,0,0-4.88-1.45,2.48,2.48,0,0,0-2.35,2.16c-.08,2.7-.11,5.41-.13,8.12,0,3.25.69,3.61,3.85,3.28A6.38,6.38,0,0,0,1346.29,411.47Z"/><path class="cls-6" d="M1374.72,433.61c-1.54,0-3.08,0-4.63,0-1.34,0-2-.39-1.78-1a1.5,1.5,0,0,1,1.16-1.07,2.74,2.74,0,0,0,2.26-2.92c0-6.56,0-13.11.07-19.67a4.45,4.45,0,0,0-2.73-4.6c-.14-.06-.34-.35-.31-.4.21-.29.46-.77.73-.79a64.65,64.65,0,0,1,18.43.57c6.24,1.24,10.3,6.43,10.46,12.84.21,8.09-4.34,14.12-12.16,16.09a26.5,26.5,0,0,1-6.87.91Zm6-2.12a23.12,23.12,0,0,0,2.85-.19c3.39-.63,6.27-2.17,7.92-5.32,2.56-4.91,2.93-10,.47-15.08a8.67,8.67,0,0,0-3.46-3.83,14.73,14.73,0,0,0-10-2.05,2.69,2.69,0,0,0-2,1.91,12.53,12.53,0,0,0-.18,1.73q0,9,0,18a14.94,14.94,0,0,0,.23,2.31,3.29,3.29,0,0,0,2.41,2.27C1379.48,431.35,1380.06,431.41,1380.69,431.49Z"/><path class="cls-6" d="M1254.67,403c1.93,0,3.87-.07,5.8,0a15.3,15.3,0,0,1,3.42.58c6.47,1.88,6.59,8.93,3.92,12.12a12.63,12.63,0,0,1-1.63,1.64c-2.28,1.84-2,2.47-.51,4.84,2.29,3.59,4.49,7.25,8,9.84.25.18.32.66.37,1s-.71.69-1.38.67a8.52,8.52,0,0,1-7-3.61c-1.15-1.55-2.17-3.2-3.24-4.8-.75-1.13-1.47-2.27-2.27-3.37a3.34,3.34,0,0,0-3.06-1.27c-.75,0-1.67.68-1.68,1.31,0,2.31-.12,4.63-.07,6.94a2.75,2.75,0,0,0,2,2.55c1.57.68,1.73,1,1.36,1.47a2.31,2.31,0,0,1-2.06.63q-3.2,0-6.38,0c-.58,0-1.15-.13-1.73-.17s-.72-.26-.63-.77c0-.17,0-.4.12-.5a3.28,3.28,0,0,1,.91-.68,2.85,2.85,0,0,0,1.8-2.72c0-.57.07-1.15.07-1.73q0-9,0-18a12.56,12.56,0,0,0-.11-1.73,3.26,3.26,0,0,0-1.55-2.32c-.52-.35-1.76-.23-1.21-1.38.38-.8,1.31-.67,2-.68,1.55,0,3.1,0,4.65,0Zm.7,8.8h0c0,1.74,0,3.48,0,5.21a.94.94,0,0,0,.17.54c.23.28.47.68.77.74,4.55.95,8.27-1.88,8.4-6.32,0-2-.28-3.86-1.85-5.28a6.61,6.61,0,0,0-4.73-1.84,2.53,2.53,0,0,0-2.79,2.32C1255.32,408.74,1255.37,410.29,1255.37,411.83Z"/><path class="cls-6" d="M781.06,403c1.94,0,3.88-.07,5.81,0a14.67,14.67,0,0,1,3.42.59c6.46,1.88,6.59,8.93,3.9,12.12a12.63,12.63,0,0,1-1.63,1.64c-2.22,1.82-2,2.4-.48,4.86,2.17,3.43,4.33,6.87,7.53,9.52.34.28.36,1,.38,1.55,0,.1-.67.32-1,.33a7.76,7.76,0,0,1-6.55-3.15c-1.19-1.51-2.21-3.16-3.3-4.76-.87-1.28-1.68-2.6-2.59-3.85a3.29,3.29,0,0,0-3.1-1.18,1.86,1.86,0,0,0-1.57,1.42c0,2.31-.1,4.63,0,6.95a2.55,2.55,0,0,0,2.1,2.45,1.94,1.94,0,0,1,1,.54,1.77,1.77,0,0,1,.2,1c0,.1-.27.28-.43.3a47.93,47.93,0,0,1-10.37,0c-.14,0-.36-.25-.35-.34.06-.35.1-.82.33-1a8.07,8.07,0,0,1,1.52-.78,2.2,2.2,0,0,0,1.28-1.79,18,18,0,0,0,.18-2.31q0-9,0-18c0-.39,0-.78,0-1.16a3.31,3.31,0,0,0-2.06-3.2c-.43-.2-1.16-.35-.77-1.15a1.48,1.48,0,0,1,1.48-.68c1.74,0,3.48,0,5.22,0Zm.54,8.9c.08,1.83.15,3.56.24,5.29,0,.62.92,1.27,1.65,1.29,6.2.2,8.49-4.18,7.43-9a5.28,5.28,0,0,0-1-2.05,6.28,6.28,0,0,0-6.12-2.49,2.36,2.36,0,0,0-1.94,1.85C781.75,408.55,781.68,410.29,781.6,411.93Z"/><path class="cls-6" d="M1223.43,418.52c0-3.3,0-6.59,0-9.88,0-1.87-.65-3.42-2.63-4.06a.76.76,0,0,1-.4-.41.72.72,0,0,1,.06-.49c.07-.16.17-.38.31-.44a3.13,3.13,0,0,1,1.11-.28q8.13,0,16.28-.06a11.21,11.21,0,0,1,1.15.12c.67.06,1.6.82,1.63,1.44.08,1.54.11,3.08.13,4.62a.59.59,0,0,1-.76.64c-.35-.08-.87-.23-1-.47-1.12-3.38-3.68-4.21-6.87-4a5.72,5.72,0,0,1-.58,0c-3,.07-3.73.76-3.79,3.82,0,1.74,0,3.49.07,5.23a2.23,2.23,0,0,0,2.33,2.09c.77,0,1.55.05,2.32.06,1.88,0,3.44-.49,4.18-2.46.09-.24.6-.35.93-.46s.87.44.88,1.22c0,1.75.06,3.49.07,5.23a3.13,3.13,0,0,1-.09,1.15,1.38,1.38,0,0,1-.64.83,1.1,1.1,0,0,1-1-.25c-.37-.43-.46-1.1-.85-1.49a4.53,4.53,0,0,0-1.87-1.26,10.64,10.64,0,0,0-5.17,0c-.33.07-.59.47-.83.76a1.11,1.11,0,0,0-.16.55,35.5,35.5,0,0,0,0,8.68,2.69,2.69,0,0,0,2.31,2.26c1.94.06,3.88.07,5.81,0a4.06,4.06,0,0,0,3-1.52c1-1.15,1.94-2.36,2.93-3.52.08-.09.39-.05.56,0a.69.69,0,0,1,.33.36.9.9,0,0,1,.13.54c-.43,1.68-.81,3.38-1.35,5a1.88,1.88,0,0,1-1.79,1.27c-2.71.07-5.42.13-8.13.11-3.87,0-7.73-.16-11.6-.25-.16,0-.44-.18-.44-.26a2,2,0,0,1,.24-1,2.07,2.07,0,0,1,1-.56,2.6,2.6,0,0,0,2-2.57c.08-3.48,0-7,0-10.45Z"/><path class="cls-6" d="M1324.12,418.88a26.64,26.64,0,0,1-.63,4.12c-2.1,7.05-7.37,11.16-15.15,11.17a15.34,15.34,0,0,1-15-18.54c1-4.79,3.23-8.64,7.56-11.18,7.75-4.54,19-1.58,22.43,8.23a10.72,10.72,0,0,1,.55,2.25C1324,416.08,1324,417.24,1324.12,418.88Zm-4.93.45a18.67,18.67,0,0,0-1.53-7.93,10.4,10.4,0,0,0-5.78-6.19c-3.81-1.45-8.82-1.1-11.6,3.71s-2.45,9.62-1.11,14.58a14,14,0,0,0,2,4.14,9.43,9.43,0,0,0,9.49,4.25,8.15,8.15,0,0,0,7-5.27A16.52,16.52,0,0,0,1319.19,419.33Z"/><path class="cls-6" d="M1494.23,419c1.35.08,2.7.12,4,.27.31,0,.61.38.86.64s.23.68-.21.95a3.32,3.32,0,0,0-1.59,2.91c0,2.32-.06,4.64-.11,7a2.05,2.05,0,0,1-1.65,2.07,26.76,26.76,0,0,1-13.17,1,15.17,15.17,0,0,1-12.74-13.86,15.45,15.45,0,0,1,10.93-16.48,25.67,25.67,0,0,1,14.86,0,1.88,1.88,0,0,1,1.49,1.6c.16,1.72.2,3.45.26,5.17,0,.17-.15.47-.25.48-.35,0-.89.05-1-.15-.67-.93-1.2-2-1.83-2.91a6.53,6.53,0,0,0-4.27-2.77,15.27,15.27,0,0,0-6.35-.08,9.77,9.77,0,0,0-7.72,7.11A18.72,18.72,0,0,0,1476.8,426c2.85,5.67,9.45,7,13.88,5.48a2.9,2.9,0,0,0,2-2.58c.06-1.74.08-3.48,0-5.21a2.62,2.62,0,0,0-2-2.52,5.09,5.09,0,0,1-1.11-.33,2.15,2.15,0,0,1-.67-.76c-.19-.31.6-.91,1.28-.92,1.35,0,2.7,0,4.06,0Z"/><path class="cls-6" d="M1413.55,433.62h-8.14c-2,0-2.6-.3-2.39-.95.28-.9,1-1,1.73-1.23a2.58,2.58,0,0,0,1.94-2.58c.09-1.73.1-3.48.1-5.22,0-5,0-10.07,0-15.1a4,4,0,0,0-2.61-4.08c-.52-.22-.55-.55-.14-.91.14-.12.25-.3.41-.35a3.67,3.67,0,0,1,1.13-.23c5.23,0,10.46-.06,15.69-.05a5.46,5.46,0,0,1,1.7.28,1.39,1.39,0,0,1,.84.7,10.14,10.14,0,0,1,.36,5.67.6.6,0,0,1-.46.26c-.77,0,0,.62-.5,0s-1.1-1.58-1.58-2.41a3.43,3.43,0,0,0-2.78-1.87c-1.92-.13-3.85-.09-5.78-.07a2.25,2.25,0,0,0-1.6,1.48,30.94,30.94,0,0,0,0,8.1,1.67,1.67,0,0,0,1.08,1.15,37.27,37.27,0,0,0,4.61.24,2.79,2.79,0,0,0,2.69-1.84,2.55,2.55,0,0,1,.63-1,1.64,1.64,0,0,1,1-.21.55.55,0,0,1,.42.33,18.09,18.09,0,0,1-.07,8c0,.14-.29.28-.47.32a.78.78,0,0,1-.51-.08c-.16-.08-.37-.19-.43-.34-1.05-2.64-3.17-3.15-5.68-2.93-.58.05-1.16.06-1.74.09a1.57,1.57,0,0,0-1.56,1.41c0,2.9-.06,5.8,0,8.7a2.59,2.59,0,0,0,2.21,2.32,4,4,0,0,0,.58.07c2.32,0,4.7.45,6.92-.35s2.76-3.15,4.27-4.62c.2-.18.68-.11,1-.08.1,0,.19.31.24.49a1.56,1.56,0,0,1,0,.57,10.84,10.84,0,0,1-.19,1.14c-1.22,5.43-1.45,5.11-6.57,5.14h-6.39Z"/><path class="cls-6" d="M1033.24,415.26c0-1.74-.08-3.48,0-5.21.15-2.83-.76-4.88-3.68-5.7-.14,0-.33-.35-.3-.4.21-.3.45-.76.72-.79a28.38,28.38,0,0,1,8.63,0c.14,0,.26.23.38.36.37.41.31.73-.2.93-2.11.79-2.83,2.45-2.85,4.56s0,4.25-.09,6.37c-.09,2.7-.19,5.41-.37,8.1a14.06,14.06,0,0,1-.63,3.41,9.38,9.38,0,0,1-8.41,6.91,23.7,23.7,0,0,1-5.19,0,9.73,9.73,0,0,1-9.06-9,42.07,42.07,0,0,1-.19-4.63c0-2.71,0-5.41,0-8.12,0-.77-.15-1.54-.14-2.31,0-2.49-.67-4.53-3.17-5.57-.08,0-.11-.31-.08-.46a.93.93,0,0,1,.26-.5.88.88,0,0,1,.53-.21c3.08,0,6.17,0,9.25.06.26,0,.65.42.73.72a1,1,0,0,1-.5.78,3.39,3.39,0,0,0-2.43,3.54c0,4.64,0,9.28,0,13.91a13.17,13.17,0,0,0,.42,2.86,8.07,8.07,0,0,0,9.14,6.24,7.47,7.47,0,0,0,7-6.65,35.62,35.62,0,0,0,.32-4.62c.06-1.54,0-3.09,0-4.64Z"/><path class="cls-6" d="M928.63,433.72c-3.09-.1-6.19-.19-9.27-.34-.21,0-.42-.51-.56-.82,0-.09.13-.36.27-.43a14.52,14.52,0,0,1,1.54-.74,2.33,2.33,0,0,0,1.73-2.11c.06-7.16.06-14.32.07-21.48,0-1.81-1.44-2.6-2.63-3.56a.5.5,0,0,1-.07-.44,1.16,1.16,0,0,1,.32-.47.87.87,0,0,1,.52-.22c5.8,0,11.61-.09,17.42-.1a1.87,1.87,0,0,1,1.86,1.85c.08,1.53.47,3.08-.15,4.58a.6.6,0,0,1-.41.25c-.18.05-.48.09-.55,0-.56-.77-1.09-1.57-1.6-2.38a3.92,3.92,0,0,0-2.81-1.84,12.65,12.65,0,0,0-1.74-.16c-5.23-.08-5.67.07-5.59,5.43,0,1.54.15,3.08.32,4.62a1.22,1.22,0,0,0,.76.79,8.87,8.87,0,0,0,6.24-.23c.77-.38,1.19-1.45,1.86-2.11.22-.22.7-.19,1.07-.19.08,0,.21.31.23.49a23.46,23.46,0,0,1,0,7.48.62.62,0,0,1-.35.36.86.86,0,0,1-.57,0,.76.76,0,0,1-.46-.33c-1.16-2.48-3.24-3.11-5.75-2.87a17.27,17.27,0,0,0-2.29.29,1.2,1.2,0,0,0-.74.81,30.18,30.18,0,0,0,.09,9.81,2.35,2.35,0,0,0,1.6,1.51,14.67,14.67,0,0,0,1.72.21c7.39,0,6.29.43,10.09-4.78a.89.89,0,0,1,.48-.28.93.93,0,0,1,.57,0,.59.59,0,0,1,.28.41,9.09,9.09,0,0,1-1.51,6,1.53,1.53,0,0,1-.93.63,12,12,0,0,1-2.31.22c-2.9,0-5.81,0-8.72,0Z"/><path class="cls-6" d="M1200.87,403c4.58-.13,9-.28,13.48-.37a1.18,1.18,0,0,1,.9.63,12,12,0,0,1,.18,6.28c0,.1-.28.17-.43.19s-.48,0-.54-.06c-.52-.8-1-1.63-1.48-2.45a3.5,3.5,0,0,0-2.82-1.81,25,25,0,0,0-3.46.09,2.18,2.18,0,0,0-1.63,1.46,14.89,14.89,0,0,0-.28,2.3c0,6,0,12,0,18a10,10,0,0,0,.13,1.73,2.64,2.64,0,0,0,2.07,2.47,6.57,6.57,0,0,1,1.55.71c.1.06.12.33.12.5s-.06.47-.15.49c-1.92.56-8.79.59-11.5.07-.09,0-.18-.28-.21-.43a1.06,1.06,0,0,1,0-.56.77.77,0,0,1,.45-.36,3.59,3.59,0,0,0,2.88-3.8q0-9.87,0-19.76a7.53,7.53,0,0,0-.19-1.14,2.24,2.24,0,0,0-1.49-1.61,12.3,12.3,0,0,0-1.7-.28c-2.33-.14-4.18.57-5.14,2.9a6.29,6.29,0,0,1-.95,1.42c-.09.12-.32.14-.49.18-.51.12-.74-.08-.8-.58a14.63,14.63,0,0,1,.46-5.74,1.79,1.79,0,0,1,1.34-.93C1194.42,402.75,1197.7,402.89,1200.87,403Z"/><path class="cls-6" d="M765.53,433.74c-1.52-.15-3-.26-4.57-.47-.18,0-.32-.6-.39-.94,0-.13.18-.35.33-.45a2.65,2.65,0,0,0,1.06-3.52c-.48-1.26-.92-2.54-1.43-3.79a3,3,0,0,0-2.71-1.85,16.37,16.37,0,0,0-2.32-.09c-1.7.08-3.68-.52-5,.81a9.64,9.64,0,0,0-2.45,6.32,2.22,2.22,0,0,0,.77,1.43,7.53,7.53,0,0,0,1.52.8.63.63,0,0,1,.26,1c-.09.14-.22.34-.35.36a30.73,30.73,0,0,1-8.62.06.73.73,0,0,1-.42-.32c-.27-.39-.25-.89.15-1,2.45-.8,3.59-2.69,4.45-4.93q3.54-9.19,7.2-18.33c.71-1.79,1.53-3.54,2.36-5.28a1.32,1.32,0,0,1,1-.53,1.24,1.24,0,0,1,1,.4,5.19,5.19,0,0,1,.88,1.49c.57,1.43,1.07,2.89,1.6,4.34,2.19,6,4.42,12,6.55,18,.74,2.08,1.69,3.88,3.88,4.76.18.08.31.7.21,1a1.09,1.09,0,0,1-.81.6c-1.34.06-2.7,0-4.05,0Zm-10.58-13c.6-.07,1.55-.16,2.49-.28a1.76,1.76,0,0,0,1.13-1.78,37.85,37.85,0,0,0-2.76-8.11c-.06-.13-.32-.3-.4-.27-.34.15-.82.3-.93.57-1,2.48-1.93,5-2.84,7.5-.42,1.17.43,2.19,1.81,2.28Z"/><path class="cls-6" d="M965.44,402.41c.7.09,2.45.18,4.15.52,2.59.52,2.79,1,3.12,3.45.12.95.26,1.91.37,2.87.07.59-.49,1.45-.86,1.33a1.84,1.84,0,0,1-.9-.5c-.42-.64-.74-1.36-1.1-2a6.13,6.13,0,0,0-4.59-3.22,23.7,23.7,0,0,0-4-.26c-5.6,0-9.15,4.51-10,8.2a22.06,22.06,0,0,0,.21,10.92,11.89,11.89,0,0,0,5.08,6.85,10.14,10.14,0,0,0,5,1.4c3.48.28,6.53-.54,8.6-3.67a13.93,13.93,0,0,1,1.91-2.09c.09-.1.39-.07.56,0a.85.85,0,0,1,.33.41.81.81,0,0,1,.12.53c-.56,1.64-1.09,3.29-1.74,4.9a2.36,2.36,0,0,1-1.78,1.36,28,28,0,0,1-11.53.41c-5.74-1.22-10-4.4-11.75-10.07-2.5-7.9.47-16.85,9.83-20.17C959.24,402.53,960.74,402.34,965.44,402.41Z"/><path class="cls-6" d="M829.52,408.39c0,.4-.06,1-.14,1.53,0,.17-.2.47-.28.46-.36,0-.85-.06-1-.29-.58-.76-1-1.65-1.56-2.42a6.88,6.88,0,0,0-4.82-2.91,27.45,27.45,0,0,0-4.05-.17,9.33,9.33,0,0,0-8.64,5.83,17.74,17.74,0,0,0,.14,15.18c2,4.33,5.43,6.37,10.15,6.39,3.06,0,5.7-.89,7.54-3.52a17.87,17.87,0,0,1,1.84-2.23c.15-.16.67,0,1,.08a.59.59,0,0,1,.27.48,4.3,4.3,0,0,1-.17,1.14c-1.62,5.36-1.7,5.38-7,6a27.24,27.24,0,0,1-6.93,0c-12.17-1.68-16.2-14-11.78-22.81a14.86,14.86,0,0,1,8-7.2,18.75,18.75,0,0,1,7.34-1.51c2.71.05,5.42,0,8,.86a2.44,2.44,0,0,1,1.76,2.08C829.32,406.29,829.4,407.25,829.52,408.39Z"/><path class="cls-6" d="M903.73,418.45c0,3.29,0,6.57,0,9.85a3,3,0,0,0,2.55,3.34c.46.1.85.61,1.22,1,.08.08,0,.4-.08.55a.71.71,0,0,1-.48.25,57.33,57.33,0,0,1-11,0,.63.63,0,0,1-.4-.3.65.65,0,0,1,.21-1c.51-.27,1-.49,1.56-.71a2.55,2.55,0,0,0,1.72-2.12,11.12,11.12,0,0,0,.15-1.73q0-9.27,0-18.54a6.54,6.54,0,0,0-.31-2.26,1.88,1.88,0,0,0-1.17-1.11,17.85,17.85,0,0,0-4-.1,3.27,3.27,0,0,0-2.72,1.91,12.1,12.1,0,0,1-1.16,2,1.45,1.45,0,0,1-.94.43c-.47.05-.71-.25-.75-.72a17.23,17.23,0,0,1,.52-5.72,1.46,1.46,0,0,1,1.35-.86,171.71,171.71,0,0,0,22.57.08c.48,0,1.32.29,1.41.62a13.92,13.92,0,0,1,.51,6.25c0,.15-.2.29-.33.41a.59.59,0,0,1-1-.14c-.47-.83-.9-1.69-1.37-2.53a3.49,3.49,0,0,0-2.8-1.8,18.6,18.6,0,0,0-2.89-.06,2.19,2.19,0,0,0-2.32,2.07c-.08,1-.14,1.92-.15,2.88,0,2.71,0,5.41,0,8.11Z"/><path class="cls-6" d="M993.2,418.62c0,3.29,0,6.58,0,9.88a2.91,2.91,0,0,0,2.69,3.19,2.42,2.42,0,0,1,1,.57c.11.08.1.34.08.52a.73.73,0,0,1-.19.47.81.81,0,0,1-.51.26c-3.48,0-7,0-10.45,0-.48,0-.8-.25-.72-.68a1.56,1.56,0,0,1,.46-.91,3.34,3.34,0,0,1,1.06-.44,2.94,2.94,0,0,0,2-2.6,14.86,14.86,0,0,0,.15-2.31q0-8.71,0-17.44a7.21,7.21,0,0,0-.27-2.28,2.13,2.13,0,0,0-1.13-1.19,7.63,7.63,0,0,0-5.12.1,3.16,3.16,0,0,0-1.36,1c-.68.92-1.2,2-1.88,2.89-.14.19-.68.12-1,.1-.1,0-.26-.3-.25-.45.08-1.73.14-3.46.3-5.18.1-1.13.81-1.6,2-1.52a167.34,167.34,0,0,0,21.48.05c1.8-.1,2.39.39,2.45,2.31,0,1.53.41,3.09-.21,4.59,0,.11-.27.17-.43.19s-.46,0-.54-.06a5.32,5.32,0,0,1-1-1.43c-.77-2.15-2.39-2.92-4.51-2.92a19.8,19.8,0,0,0-2.31.19,2.17,2.17,0,0,0-1.58,1.5c-.11,1-.24,1.93-.26,2.89,0,2.9,0,5.81,0,8.72Z"/><path class="cls-6" d="M1442.73,402.51a13.11,13.11,0,0,1,2.2.32,2.65,2.65,0,0,1,2.35,2.24c.17,1.33.27,2.67.37,4,0,.17-.14.47-.26.49-.33.06-.86.14-1,0-.67-.93-1.2-2-1.87-2.91a5.91,5.91,0,0,0-7.32-1.47,2.85,2.85,0,0,0-.87.75,5.78,5.78,0,0,0,.42,7,16.88,16.88,0,0,0,4.75,3.28,19.54,19.54,0,0,1,5.19,3.67,7.64,7.64,0,0,1,2,3.45,8.08,8.08,0,0,1-3.1,8.73,11.31,11.31,0,0,1-7.09,2.14,23.08,23.08,0,0,1-4.59-.65,3.51,3.51,0,0,1-3-3.06c-.15-1.15-.39-2.29-.49-3.43,0-.28.31-.65.57-.87a.65.65,0,0,1,1,.21c.76,1.11,1.44,2.29,2.28,3.33a6.53,6.53,0,0,0,7.38,1.87,3.84,3.84,0,0,0,2.4-2.35,6,6,0,0,0-2-7.25c-1.08-.8-2.3-1.42-3.43-2.16a45.28,45.28,0,0,1-4.78-3.27,7.65,7.65,0,0,1,.1-11.73C1436.1,402.87,1438.67,402.24,1442.73,402.51Z"/><path class="cls-6" d="M542.33,469.83l3.11.05c.06,1.92.18,3.84.19,5.76q.09,29.7.14,59.41c0,1.91-.19,3.83-.29,5.74l-3.11.1c-.11-1.15-.33-2.29-.33-3.44q0-32.66.14-65.31C542.18,471.37,542.28,470.6,542.33,469.83Z"/><path class="cls-6" d="M4,443.34c.06,1.92.17,3.84.17,5.77q.09,26.56.13,53.12c0,1.92-.16,3.84-.25,5.76l-3,.24c-.12-1.33-.35-2.67-.35-4q.09-30.59.23-61.17Z"/><path class="cls-6" d="M1282.48,433.68c-1.54-.07-3.08-.11-4.61-.24a1,1,0,0,1-.67-.69,1.28,1.28,0,0,1,.46-.89,3.92,3.92,0,0,1,1-.52,2.19,2.19,0,0,0,1.29-1.77,16.12,16.12,0,0,0,.21-2.3c0-6,0-11.95,0-17.93,0-2.36-.69-4.11-3-5-.1,0-.18-.29-.16-.42a1,1,0,0,1,.26-.51.83.83,0,0,1,.49-.25,40.42,40.42,0,0,1,9.77,0c.15,0,.28.23.41.36a.54.54,0,0,1-.17.94,14.76,14.76,0,0,0-1.55.74,3.47,3.47,0,0,0-1.54,2.34,16.29,16.29,0,0,0-.15,2.31q0,8.38,0,16.78c0,.19,0,.38,0,.57a4.26,4.26,0,0,0,3.18,4.83c.41.14.48.57.25,1a.74.74,0,0,1-.38.34,4.47,4.47,0,0,1-1.12.23c-1.35,0-2.7,0-4,0Z"/><path class="cls-6" d="M1142.92,433.75c-1.75-.15-3.47-.29-5.18-.46-.1,0-.19-.27-.24-.43s-.13-.47,0-.54a9.51,9.51,0,0,1,1.39-1,2.4,2.4,0,0,0,1.32-1.76,9,9,0,0,0,.23-1.71q0-9.54,0-19.07c0-.19,0-.38,0-.58a3.42,3.42,0,0,0-2.4-3.54c-.27-.09-.64-.54-.6-.75a1.09,1.09,0,0,1,.71-.75,39,39,0,0,1,9.77,0c.15,0,.28.22.4.35a.55.55,0,0,1-.16.95c-.5.28-1.09.42-1.55.74a3.36,3.36,0,0,0-1.54,2.33,19.89,19.89,0,0,0-.14,2.31q0,8.67,0,17.33c0,.58,0,1.16.07,1.73a2.79,2.79,0,0,0,2,2.58,5.75,5.75,0,0,1,1.43.88c.09.06,0,.35,0,.52s-.17.4-.27.41C1146.34,433.47,1144.62,433.61,1142.92,433.75Z"/><path class="cls-6" d="M877.79,433.5c-1.54,0-3.08,0-4.62,0a1,1,0,0,1-.69-.69,1.24,1.24,0,0,1,.42-.93,3.56,3.56,0,0,1,1.05-.46,2.73,2.73,0,0,0,1.71-2.15,4.91,4.91,0,0,0,.17-1.14c0-6.55,0-13.11,0-19.66a3.57,3.57,0,0,0-2.39-3.59,3.52,3.52,0,0,1-.94-.61.57.57,0,0,1-.12-.46.7.7,0,0,1,.28-.49,2.69,2.69,0,0,1,1.08-.32q4.05,0,8.1,0a1.53,1.53,0,0,1,1.47.67c.45.84-.35,1-.77,1.13a3.27,3.27,0,0,0-2.17,3.11c0,.57-.07,1.15-.08,1.73,0,1.16,0,2.31,0,3.47,0,4.24,0,8.48,0,12.72,0,1,0,1.93.07,2.89a3,3,0,0,0,2.2,3c.83.28,1.12,1.05.76,1.29s-.6.51-.91.52c-1.54.05-3.08,0-4.62,0Z"/><path class="cls-5" d="M4,443.34l-3.07-.28c-.07-1.54-.2-3.09-.2-4.63q.06-25,.16-49.94l3.26,0c.07,1.34.21,2.69.21,4q.06,22.85.08,45.68A15,15,0,0,1,4,443.34Z"/><path class="cls-10" d="M3.87,291.67,1,291.86q-.09-15-.17-29.92c0-6.33-.06-12.66,0-19,0-1.91.15-3.82.23-5.73l2.77-.09a25.29,25.29,0,0,1,.44,3.44q0,24.39-.1,48.8A22.42,22.42,0,0,1,3.87,291.67Z"/><path class="cls-6" d="M1459.51,433.73c-1.73-.12-3.45-.24-5.18-.38-.13,0-.35-.22-.34-.33a1.9,1.9,0,0,1,.22-1,2.23,2.23,0,0,1,.94-.63,2.65,2.65,0,0,0,1.54-2.26,12.68,12.68,0,0,0,.12-1.73q0-9.27,0-18.54c0-.19,0-.38,0-.58a3.49,3.49,0,0,0-2.35-3.6c-.28-.1-.65-.53-.61-.75a1.13,1.13,0,0,1,.71-.76,31.87,31.87,0,0,1,9.2.05c.15,0,.28.23.41.35.43.37.38.66-.13.9-.17.07-.31.24-.48.3a3.17,3.17,0,0,0-2.2,3.08c0,.38,0,.77,0,1.15,0,6.18,0,12.36,0,18.54,0,2.14.51,3.8,2.92,4.27.23.05.42.55.56.87s-.4.86-1.2.9c-.38,0-.77,0-1.16,0h-2.89Z"/><path class="cls-1" d="M40.37,40.26c-1.53.1-3.07.27-4.61.27q-17.4,0-34.79,0a5.34,5.34,0,0,1,1.47-.84,15.28,15.28,0,0,1,2.87-.19H36.5C37.84,39.5,39.22,39.34,40.37,40.26Z"/><path class="cls-6" d="M1115.4,424.51l-4-.26c-.38,0-1.09-.86-1-1.26s.44-1.27.81-1.36a20.49,20.49,0,0,1,9-.05c.28.06.55.51.67.83a1.22,1.22,0,0,1-.51,1.47,2,2,0,0,1-1,.43c-1.34.05-2.68,0-4,0Z"/><path class="cls-5" d="M1,508.23,4,508a1.27,1.27,0,0,1-1.1,1.1A1.69,1.69,0,0,1,1,508.23Z"/><path class="cls-11" d="M79.22,79.36A33.32,33.32,0,0,1,86.75,79H499.06c2.13,0,4.26.06,6.39.13a1.91,1.91,0,0,1,1.79,1.9c.06,2.13.1,4.26.1,6.39v331.3q0,22.36,0,44.75c0,2.13-.11,4.26-.17,6.39-2.71.07-5.42.22-8.13.22H112.2q-13.68,0-27.34,0c-1.35,0-2.71-.11-4-.21a1.88,1.88,0,0,1-1.47-1.58c-.06-.57-.14-1.15-.15-1.73,0-1.55,0-3.1,0-4.65q0-187.8,0-375.58C79.18,84,79.2,81.68,79.22,79.36ZM315.06,256.87a1,1,0,0,0,.78-1.16l.61-2.05.21,0,.93-1.24c2.7-4.48,5.44-8.94,8.11-13.43q4.6-7.75,9.11-15.55a3.16,3.16,0,0,1,2.8-1.74c1.93-.06,3.87-.07,5.81-.07h94.26c1.74,0,3.49,0,5.23-.11a3.05,3.05,0,0,0,2.48-1.32c2.85-4.39,5.65-8.81,8.45-13.22.26-.4-.24-1.27-.73-1.29-1.93-.06-3.86-.16-5.8-.16H382.73q-23.85,0-47.71,0c-1.93,0-3.87.06-5.8.2a4.85,4.85,0,0,0-3.48,1.91,20.47,20.47,0,0,0-1.62,2.39q-10.85,18.25-21.63,36.52a21.11,21.11,0,0,0-2.84,5.7,34.72,34.72,0,0,0-2.47,3.11c-1.62,2.59-3.21,5.2-4.66,7.89-1.8,3.35-4.21,6.38-5.43,10a109.84,109.84,0,0,0-9,14.56,1.52,1.52,0,0,0-.07.57l-1.41,2,0-.06-1,1.91a5.14,5.14,0,0,0-2.57,4.3l-.92,1.51a3.31,3.31,0,0,0-1.9,3.21,1.16,1.16,0,0,0-.56.72V302c-.34.67-.68,1.34-1,2a1.66,1.66,0,0,0-1.06,1.83c-.42.71-.84,1.42-1.27,2.13-.85.13-.93.7-.8,1.39a.49.49,0,0,0-.32.55,1.53,1.53,0,0,0-1,1.79l-.23.43-.38.15.1.37-1.14,2.13a1.84,1.84,0,0,0-1,1.54,3.27,3.27,0,0,0-1.27,2.3,2.55,2.55,0,0,0-1.35,2.05,4.48,4.48,0,0,0-2.31,3.76,232.87,232.87,0,0,0-12.71,22,1.61,1.61,0,0,0-.93,1.42c-.17.35-.35.7-.53,1a11.13,11.13,0,0,0-3.19,4c-.76,1.34-1.59,2.64-2.39,4-1.92,3.11-3.87,6.21-5.74,9.35a19.58,19.58,0,0,0-1.43,3.16,4.59,4.59,0,0,0,.34,3.9c2.07,3.81,5.28,6.6,8.4,9.48a1.44,1.44,0,0,0,2-.26c1.45-2.28,2.89-4.56,4.28-6.86q6.72-11.14,13.36-22.33a19.28,19.28,0,0,0,1.24-3.2l.89-1.29a1.21,1.21,0,0,0,.91-1.31c.81-1.32,1.66-2.62,2.43-4,2.43-4.17,4.83-8.36,7.24-12.54l.4-.14,0-.41.83-1.54a.68.68,0,0,0,.62-.85l.62-1.22a1.21,1.21,0,0,0,.8-1.21l.23-.37.43-.19v-.46a12.15,12.15,0,0,0,2.67-4.86,11.88,11.88,0,0,1,1.37-2.31l.14-.25.47-.25,0-.51.74-1.33a.89.89,0,0,0,.74-1.07,167.56,167.56,0,0,0,9.78-16.34,1,1,0,0,0,.76-1.2l.19-.36a1.81,1.81,0,0,0,1.14-1.92l.13-.25c.48-.12.71-.39.54-.89l.63-1.35a25.59,25.59,0,0,0,4.72-7.88,1.36,1.36,0,0,0,.81-1.25,1.25,1.25,0,0,0,.4-.89l1-1.48.09-.15a.75.75,0,0,0,.61-.91c.19-.41.37-.81.56-1.21a6.73,6.73,0,0,0,2.15-2.64q4-6.69,7.87-13.4c.67-1.16,1.21-2.39,1.81-3.59A1.56,1.56,0,0,0,315,257ZM225.3,315.11l.14-.26c.47-.07.64-.32.51-.76.56-.77,1.19-1.5,1.68-2.32,3.44-5.73,6.88-11.48,10.27-17.24.67-1.15,1.13-2.41,1.69-3.62a31.81,31.81,0,0,0,5.69-9.44,1.39,1.39,0,0,0,.83-1.27l.28-.45.34-.11-.07-.31.89-1.63a.73.73,0,0,0,.62-.89l.58-1.21a1.14,1.14,0,0,0,.76-1.18,1.54,1.54,0,0,0,.45-.95,1.71,1.71,0,0,0,.92-1.44.8.8,0,0,0,.31-.7,7.09,7.09,0,0,0,1.18-1.21q3.91-6.6,7.77-13.24a4.27,4.27,0,0,0,.29-1.09,1,1,0,0,0,.73-1l.48-1.09a1.38,1.38,0,0,0,.87-1.29,1.22,1.22,0,0,0,.37-.9,26.92,26.92,0,0,0,2.11-2.7c2.87-4.79,5.67-9.62,8.52-14.42q11.48-19.37,23-38.73c.49-.82.83-1.73,1.24-2.6a1.17,1.17,0,0,0,.84-1.23,5.53,5.53,0,0,0,.4-1,1.24,1.24,0,0,0,.84-1.28,4.56,4.56,0,0,0,.38-1,1.31,1.31,0,0,0,.86-1.26l1.26-2.3a17.07,17.07,0,0,0,3.92-5.68c1.14-2.68,2.94-3.9,5.86-3.64,1.54.14,3.1,0,4.65,0H466.2c1.75,0,3.49,0,5.24,0a6.57,6.57,0,0,0,1.72-.18,2.88,2.88,0,0,0,1.48-.83c1.29-1.91,3-3.56,3.5-6a15.28,15.28,0,0,0,2-2.07c1.07-1.61,2-3.31,3-5a1.35,1.35,0,0,0-1.15-2.06c-1.75-.07-3.49-.1-5.23-.1H306.88q-2.33,0-4.65.06a5,5,0,0,0-3.14,1.35,18.34,18.34,0,0,0-4.86,7.73l-.13.15-.81.93a4.19,4.19,0,0,0-.39.45.53.53,0,0,0-.52.69l-.62,1.47-.68.92c-2.37,2.77-3.85,6.1-5.75,9.16-.27.42-.11,1.11-.14,1.67l-.17,0c-.56,0-.85.46-.78,1.25a4.11,4.11,0,0,1-.39.82,1.31,1.31,0,0,0-1,1.28l-.15.23q-.9,0-.72,1.14c-1.91,3.14-3.86,6.26-5.73,9.43q-9,15.24-18,30.49-5,8.51-10.07,17a3.29,3.29,0,0,0-.7,2.15,2.22,2.22,0,0,0-.41.4c-3.67,5.92-7.34,11.83-11,17.78a5.46,5.46,0,0,0-.4,1.66c-.6.79-1.19,1.59-1.79,2.39-.54,0-.85.46-.81,1.22-.16.32-.33.63-.5.95a1.12,1.12,0,0,0-.83,1.25l-.17.27a1.59,1.59,0,0,0-1.15,2l-.12.18c-.52,0-.77.44-.65,1.13-.19.34-.38.68-.58,1a1.05,1.05,0,0,0-.81,1.21l-.18.29a1.6,1.6,0,0,0-1.16,2l-.1.15a2,2,0,0,0-1.22,2.16l-.66,1.91a1.23,1.23,0,0,0-.61.83l-.42.18.05.44c-.28.33-.56.65-.85,1V288l-1.09,2.28-.23,0,.16.12c-.34.6-.68,1.2-1,1.79a5.59,5.59,0,0,0-2.63,4.41l-.9,1.46-.43.25,0,.49a1.31,1.31,0,0,0-.58.94c-1.61.81-1.93,2.59-2.86,3.9a5.87,5.87,0,0,0-1.49,3.48.52.52,0,0,0-.35.56,1.32,1.32,0,0,0-1,1.65l-.23.43a10.8,10.8,0,0,0-3.79,6.61l-.88,1.51c-1.53.75-2.06,2.26-2.68,3.65a7.53,7.53,0,0,0,1.34,8.62c1.94,2.15,4.07,4.12,6.15,6.13a1.51,1.51,0,0,0,2.46-.33c2.69-4.45,5.34-8.93,8-13.4.09-.15,0-.38,0-.58l.79-1.38.47-.2,0-.5.73-1.33a.91.91,0,0,0,.76-1.06l.49-1A1.36,1.36,0,0,0,225.3,315.11Zm123.45-24.67a.73.73,0,0,0,.65-.93q4.8-8.07,9.6-16.13a5.42,5.42,0,0,0,.33-1.08c1.67-1.17,2.2-3.13,3.27-4.73a2.33,2.33,0,0,1,1.9-1.14c1.74-.07,3.48-.1,5.22-.1h39.5l4.65,0a3.34,3.34,0,0,0,2.93-1.56c1.7-2.59,3.4-5.17,5.08-7.77.95-1.46,1.86-3,2.77-4.43s.47-2.3-1-2.35c-1,0-1.94-.05-2.91-.05H361c-1.16,0-2.33,0-3.49.07a6.7,6.7,0,0,0-4.93,2.71,13,13,0,0,0-1,1.43c-2.27,3.83-4.55,7.65-6.77,11.5a19,19,0,0,0-1.07,2.68,15.14,15.14,0,0,0-1.47,1.75q-4.49,7.38-8.9,14.8a11.59,11.59,0,0,0-.78,2.14c-1.08,1.56-2.25,3.06-3.22,4.69-4.39,7.36-8.72,14.76-13.07,22.14-.46,0-.78.52-.78,1.21l-.12.23c-.6,0-.83.38-.68,1.12-.21.35-.43.7-.65,1a2,2,0,0,0-1.18,2.1l-.08.14a5.66,5.66,0,0,0-2.85,4.82l-.59,1.06c-.44,0-.73.49-.69,1.14l-1.47,2.53a3.44,3.44,0,0,0-1.95,3.4l-.55,1.07A.86.86,0,0,0,304,335l-.24.4a1.39,1.39,0,0,0-1.06,1.87l-.22.35c-.54,0-.72.32-.53.92-.22.43-.45.86-.68,1.28-.48,0-.73.41-.64,1.05-.68,1.48-1.77,2.79-2,4.47-1.4.82-2.07,2.24-2.85,3.56-1.27,2.15-2.47,4.34-3.7,6.52l-.43.05.19.36-.86,1.77a2.27,2.27,0,0,0-1.85,1.2c-1.52,3.07-3.74,5.77-4.68,9.18a22.19,22.19,0,0,1-2.33,4.61c-1.4,2.51-2.85,5-4.27,7.49a4.81,4.81,0,0,0-.79.84c-3.67,6.34-7.7,12.47-10.94,19.06a70.62,70.62,0,0,0-5.49,8.83,38.42,38.42,0,0,0-2.06,4.17,7.17,7.17,0,0,0,.25,6.18,13,13,0,0,0,7.18,6.43,3.14,3.14,0,0,0,3.61-1.13c.11-.16.23-.32.33-.48,3.85-6.49,7.72-13,11.52-19.48a20.47,20.47,0,0,0,1.25-3.22,17.52,17.52,0,0,0,1.94-2.11c1.06-1.61,2-3.27,3-5,2.12-3.9,4.82-7.47,6.54-11.6a2.5,2.5,0,0,0,.18-.94l1.07-1.35a114.85,114.85,0,0,0,10.15-17,1.69,1.69,0,0,0,.1-.56,2,2,0,0,0,.33-.87,1.53,1.53,0,0,0,1-1.36,120.63,120.63,0,0,0,8.67-14.1,4.32,4.32,0,0,0,.27-1.1l2.56-3.62c.52,0,.82-.44.79-1.16.16-.33.32-.66.47-1a1.18,1.18,0,0,0,.89-1.29c3.08-5.12,6.17-10.24,9.21-15.38a29.17,29.17,0,0,0,1.41-3.12l.1-.18a2.16,2.16,0,0,0,1.22-2.06l0-.07a.87.87,0,0,0,.71-1A154.43,154.43,0,0,0,343.08,300a1.08,1.08,0,0,0,.77-1.19l.24-.41.43-.2-.06-.45.86-1.46c.49-.12.73-.4.57-.92l.62-1.36a.69.69,0,0,0,.61-.89l.69-1.16a1.17,1.17,0,0,0,.8-1.25ZM117.57,162.89l.85,1,.14.17c-.18,2.69,1.15,4.46,3.42,5.65l.08.15a2.07,2.07,0,0,0,1.12,2.17c.27.51.56,1,.81,1.54,1.42,2.92,3.85,4.19,7,4.34,1,0,1.93,0,2.9,0q57.09,0,114.17,0c1.35,0,2.7,0,4.05-.1a5,5,0,0,0,2.19-.64c2.33-1.45,4.36-3.2,5.13-6a3.92,3.92,0,0,0,.89-.71q3.88-5.3,7.73-10.64c.1-.13.06-.37.09-.56-.49-.29-.95-.79-1.46-.84-1.54-.13-3.09-.11-4.64-.11H121.37c-1.55,0-3.1.05-4.64.11-1.07,0-1.24.71-.52,2l0,.13a1.89,1.89,0,0,0,1,2Zm71.82,40.58H143c-1,0-1.94.05-2.9.09a1.09,1.09,0,0,0-.83,1.68q3.87,6.47,7.77,12.92a13.71,13.71,0,0,0,1.42,1.82,6.24,6.24,0,0,0,4.54,2.28c1.54.06,3.09.09,4.64.09q30.76,0,61.53,0c1.36,0,2.72,0,4.07,0a8,8,0,0,0,6.42-3.39c3.24-4.57,6.53-9.11,9.78-13.68a1,1,0,0,0-.66-1.68c-1.36,0-2.71-.08-4.06-.08Z"/><path class="cls-12" d="M79.82,43.73c.05-.95.09-1.91.14-2.86,2.32-.11,4.64-.31,7-.31H463.2c1.93,0,3.87.08,5.8.18a1.32,1.32,0,0,1,1.24,1,2,2,0,0,1-.86,2,7.54,7.54,0,0,1-1.68.37c-1.55.07-3.1.07-4.65.07H86.77C84.45,44.12,82.11,44.36,79.82,43.73Z"/><path class="cls-13" d="M1050.57,411.9c.1-1.71.17-3.43.3-5.14a2.39,2.39,0,0,1,2-1.8,6.62,6.62,0,0,1,5.77,1.91,4.74,4.74,0,0,1,1.13,1.94,10.13,10.13,0,0,1,.27,4.55,5.54,5.54,0,0,1-3.24,4.42,8.11,8.11,0,0,1-4.47.72,1.71,1.71,0,0,1-1.52-1.43c0-1.72,0-3.44,0-5.16Z"/><path class="cls-13" d="M1346.29,411.47a6.38,6.38,0,0,1-5.61,7c-3.16.33-3.87,0-3.85-3.28,0-2.71.05-5.42.13-8.12a2.48,2.48,0,0,1,2.35-2.16,6.65,6.65,0,0,1,4.88,1.45A6,6,0,0,1,1346.29,411.47Z"/><path class="cls-13" d="M1380.69,431.49c-.63-.08-1.21-.14-1.78-.23a3.29,3.29,0,0,1-2.41-2.27,14.94,14.94,0,0,1-.23-2.31q0-9,0-18a12.53,12.53,0,0,1,.18-1.73,2.69,2.69,0,0,1,2-1.91,14.73,14.73,0,0,1,10,2.05,8.67,8.67,0,0,1,3.46,3.83c2.46,5.1,2.09,10.17-.47,15.08-1.65,3.15-4.53,4.69-7.92,5.32A23.12,23.12,0,0,1,1380.69,431.49Z"/><path class="cls-13" d="M1255.37,411.83c0-1.54,0-3.09,0-4.63a2.53,2.53,0,0,1,2.79-2.32,6.61,6.61,0,0,1,4.73,1.84c1.57,1.42,1.9,3.28,1.85,5.28-.13,4.44-3.85,7.27-8.4,6.32-.3-.06-.54-.46-.77-.74a.94.94,0,0,1-.17-.54c0-1.73,0-3.47,0-5.21Z"/><path class="cls-13" d="M781.6,411.93c.08-1.64.15-3.38.27-5.11a2.36,2.36,0,0,1,1.94-1.85,6.28,6.28,0,0,1,6.12,2.49,5.28,5.28,0,0,1,1,2.05c1.06,4.82-1.23,9.2-7.43,9-.73,0-1.62-.67-1.65-1.29C781.75,415.49,781.68,413.76,781.6,411.93Z"/><path class="cls-13" d="M1319.19,419.33a16.52,16.52,0,0,1-1.46,7.29,8.15,8.15,0,0,1-7,5.27,9.43,9.43,0,0,1-9.49-4.25,14,14,0,0,1-2-4.14c-1.34-5-1.58-9.9,1.11-14.58s7.79-5.16,11.6-3.71a10.4,10.4,0,0,1,5.78,6.19A18.67,18.67,0,0,1,1319.19,419.33Z"/><path class="cls-1" d="M755,420.76l-1.5-.09c-1.38-.09-2.23-1.11-1.81-2.28.91-2.51,1.85-5,2.84-7.5.11-.27.59-.42.93-.57.08,0,.34.14.4.27a37.85,37.85,0,0,1,2.76,8.11,1.76,1.76,0,0,1-1.13,1.78C756.5,420.6,755.55,420.69,755,420.76Z"/><path class="cls-7" d="M299.65,252.28a21.11,21.11,0,0,1,2.84-5.7q10.77-18.29,21.63-36.52a20.47,20.47,0,0,1,1.62-2.39,4.85,4.85,0,0,1,3.48-1.91c1.93-.14,3.87-.2,5.8-.2q23.87,0,47.71,0h64.58c1.94,0,3.87.1,5.8.16.49,0,1,.89.73,1.29-2.8,4.41-5.6,8.83-8.45,13.22a3.05,3.05,0,0,1-2.48,1.32c-1.74.09-3.49.11-5.23.11H343.42c-1.94,0-3.88,0-5.81.07a3.16,3.16,0,0,0-2.8,1.74q-4.51,7.8-9.11,15.55c-2.67,4.49-5.41,8.95-8.11,13.43a1.14,1.14,0,0,0-.93,1.24l-.21,0a24.58,24.58,0,0,0-9.44-1.34C304.56,252.42,302.1,252.3,299.65,252.28Z"/><path class="cls-9" d="M294.23,168.57a18.34,18.34,0,0,1,4.86-7.73,5,5,0,0,1,3.14-1.35q2.32-.06,4.65-.06H476.71c1.74,0,3.48,0,5.23.1a1.35,1.35,0,0,1,1.15,2.06c-1,1.67-1.92,3.37-3,5a15.28,15.28,0,0,1-2,2.07c-2.51,0-5,0-7.54,0H301.19Z"/><path class="cls-7" d="M189.39,203.47h45.28c1.35,0,2.7,0,4.06.08a1,1,0,0,1,.66,1.68c-3.25,4.57-6.54,9.11-9.78,13.68a8,8,0,0,1-6.42,3.39c-1.35.08-2.71,0-4.07,0q-30.76,0-61.53,0c-1.55,0-3.1,0-4.64-.09a6.24,6.24,0,0,1-4.54-2.28,13.71,13.71,0,0,1-1.42-1.82q-3.92-6.45-7.77-12.92a1.09,1.09,0,0,1,.83-1.68c1,0,1.93-.09,2.9-.09h46.44Z"/><path class="cls-14" d="M294.23,168.57l7,0H470.6c2.51,0,5,0,7.54,0-.46,2.4-2.21,4-3.5,6a2.88,2.88,0,0,1-1.48.83,6.57,6.57,0,0,1-1.72.18c-1.75,0-3.49,0-5.24,0H316.73c-1.55,0-3.11.12-4.65,0-2.92-.26-4.72,1-5.86,3.64a17.07,17.07,0,0,1-3.92,5.68c-1.53,0-2.87-1.14-4.52-.66a17.21,17.21,0,0,1-10.29-.2,8,8,0,0,0-2.3-.07c0-.56-.13-1.25.14-1.67,1.9-3.06,3.38-6.39,5.74-9.16l.69-.92c.21-.49.41-1,.61-1.46a1.11,1.11,0,0,0,.53-.7,4.19,4.19,0,0,1,.39-.45l.81-.93Z"/><path class="cls-9" d="M268.12,159.24c0,.19,0,.43-.09.56q-3.84,5.34-7.73,10.64a3.92,3.92,0,0,1-.89.71c-.34-1.45-1.09-2.47-2.72-2.49s-3.48,0-5.22,0H128c-1.93,0-3.86,0-5.79,0-.46-.79-.93-1.58-1.36-2.38a4.29,4.29,0,0,0-2.27-2.26l-.14-.18-.85-1-.27-.39a1.85,1.85,0,0,0-1-2l0-.13a6.24,6.24,0,0,1,2-1c1.92-.16,3.86-.13,5.8-.13Z"/><path class="cls-14" d="M122.19,168.66c1.93,0,3.86,0,5.79,0H251.47c1.74,0,3.48,0,5.22,0s2.38,1,2.72,2.49c-.77,2.8-2.8,4.55-5.13,6a5,5,0,0,1-2.19.64c-1.35.12-2.7.1-4.05.1q-57.09,0-114.17,0c-1,0-1.93,0-2.9,0-3.13-.15-5.56-1.42-7-4.34-.25-.52-.54-1-.81-1.54a2.18,2.18,0,0,0-1.12-2.17l-.08-.15Z"/><path class="cls-10" d="M343.71,268.53a19,19,0,0,1,1.07-2.68c2.22-3.85,4.5-7.67,6.77-11.5a13,13,0,0,1,1-1.43,6.7,6.7,0,0,1,4.93-2.71c1.16-.07,2.33-.07,3.49-.07h59.82c1,0,1.94,0,2.91.05,1.43.05,1.81,1,1,2.35s-1.82,3-2.77,4.43c-1.68,2.6-3.38,5.18-5.08,7.77a3.34,3.34,0,0,1-2.93,1.56l-4.65,0h-39.5c-1.74,0-3.48,0-5.22.1a2.33,2.33,0,0,0-1.9,1.14c-1.07,1.6-1.6,3.56-3.27,4.72a2.51,2.51,0,0,0-2.64-2.43c-.76,0-1.53-.07-2.29,0A28.69,28.69,0,0,1,343.71,268.53Z"/><path class="cls-7" d="M285.19,184a8,8,0,0,1,2.3.07,17.21,17.21,0,0,0,10.29.2c1.65-.48,3,.66,4.52.66L301,187.23a1.25,1.25,0,0,0-.86,1.27,4.56,4.56,0,0,1-.38,1,1.4,1.4,0,0,0-.84,1.28,5.53,5.53,0,0,1-.4,1l-.84,1.23c-.41.87-.75,1.78-1.24,2.6Q285,215,273.51,234.37c-2.85,4.8-5.65,9.63-8.52,14.42a26.92,26.92,0,0,1-2.11,2.7,2.78,2.78,0,0,0-3.1-2.6c-.57,0-1.13,0-1.7,0a47.8,47.8,0,0,1-5.08-.05c-1.85-.2-3.67-.68-5.51-1a3.29,3.29,0,0,1,.7-2.15q5-8.49,10.07-17,9-15.24,18-30.49c1.87-3.17,3.82-6.29,5.73-9.43q.35-.57.72-1.14l.15-.23a1.43,1.43,0,0,0,1-1.28,3.59,3.59,0,0,0,.38-.82L285,184Z"/><path class="cls-8" d="M222.07,290.31l1.09-2.28v.12c.29-.32.57-.64.85-1a1.36,1.36,0,0,0,.37-.62,1.19,1.19,0,0,1,.61-.82,10.76,10.76,0,0,0,6.08,1.5c1.73-.08,3.47,0,5.2,0a4.36,4.36,0,0,1,1.7.26,2.49,2.49,0,0,1,1.16,1.15,11,11,0,0,1,.47,2.24c-.56,1.21-1,2.47-1.69,3.62-3.39,5.76-6.83,11.51-10.27,17.24-.49.82-1.12,1.55-1.68,2.31a1.54,1.54,0,0,0-.51.77l-.14.26-.87,1.37c-.16.34-.33.68-.49,1s-.5.71-.76,1.06-.49.89-.73,1.33a1.45,1.45,0,0,0-.49.7c-.26.46-.52.92-.79,1.38-4,0-8.1.11-12.15.12-2.2,0-3.39-.61-3.16-3.63,0-.2,0-.39,0-.58.29-.51.59-1,.88-1.51,1.66-1.06,2.4-2.84,3.36-4.43a6.55,6.55,0,0,0,.43-2.18l.23-.43c.32-.55.64-1.1,1-1.65a.52.52,0,0,1,.35-.56c.46-.29,1.09-.47,1.36-.88a17.21,17.21,0,0,0,3-6.5,1.31,1.31,0,0,1,.58-.94,1.93,1.93,0,0,0,.41-.74l.9-1.46c1.71-1,2.25-2.64,2.63-4.41.35-.59.69-1.19,1-1.79Z"/><path class="cls-8" d="M345.32,296.29l-.85,1.46a.9.9,0,0,0-.38.65l-.24.41c-.26.39-.52.79-.77,1.19a154.43,154.43,0,0,1-9.81,16.35l-.71,1,0,.07a2.34,2.34,0,0,0-1.22,2.06l-.09.18c-4.16,0-8.31.05-12.46.05a2.38,2.38,0,0,1-2.45-1.91,12.55,12.55,0,0,0-.68-1.55,4.47,4.47,0,0,0-.25-.81l.12-.22a1.16,1.16,0,0,0,.78-1.22c4.35-7.38,8.68-14.78,13.07-22.14,1-1.63,2.14-3.13,3.22-4.69h2.83l9.64,0a3.24,3.24,0,0,1,2.85,1.54c.21.31.47.58.71.88a6.85,6.85,0,0,0,.16.76l-.14.28a1.31,1.31,0,0,0-.8,1.25l-.69,1.16a1.34,1.34,0,0,0-.61.89l-.61,1.36A1.15,1.15,0,0,0,345.32,296.29Z"/><path class="cls-15" d="M242.5,348.84c.18-.35.36-.7.53-1a1.57,1.57,0,0,0,.93-1.42,232.87,232.87,0,0,1,12.71-22c1.63-.73,2-2.22,2.31-3.76a2.55,2.55,0,0,1,1.35-2.05,26.67,26.67,0,0,0,9.64,1.24c2.49-.11,5-.07,7.49-.09a12.15,12.15,0,0,1-2.67,4.86,1.6,1.6,0,0,0-.44.65l-.22.36-.81,1.22c-.21.4-.41.81-.61,1.21a1.34,1.34,0,0,0-.63.86l-.83,1.54a1.49,1.49,0,0,0-.37.55c-2.41,4.18-4.81,8.37-7.24,12.54-.77,1.33-1.62,2.63-2.43,4l-.91,1.31-.89,1.29c-3.42,0-6.84-.06-10.26,0A14.72,14.72,0,0,1,242.5,348.84Z"/><path class="cls-8" d="M277.46,319.74c-2.49,0-5,0-7.49.09a26.67,26.67,0,0,1-9.64-1.24,3.27,3.27,0,0,1,1.27-2.3,1.75,1.75,0,0,0,1-1.54c.38-.71.76-1.42,1.13-2.13a1.48,1.48,0,0,0,.29-.52l.23-.43a2.34,2.34,0,0,0,1-1.79.49.49,0,0,1,.32-.55l.8-1.39c.43-.71.85-1.42,1.27-2.13a2.1,2.1,0,0,0,1.06-1.83c.35-.67.69-1.34,1-2V302a1.16,1.16,0,0,1,.56-.72c1.65-.47,1.83-1.81,1.9-3.21.3-.5.61-1,.91-1.51,1.61-1,2.12-2.63,2.58-4.3l1-1.91,0,.06,1.41-2a11.31,11.31,0,0,1,3.42.24c2.43.93,4.92.83,7.41.85,1,0,1.93,0,2.89.06a2.32,2.32,0,0,1,2.33,2.11c-.21.45-.42.9-.62,1.35a1.09,1.09,0,0,0-.55.89l-.13.25a2.2,2.2,0,0,0-1.14,1.92l-.19.36-.76,1.2A167.56,167.56,0,0,1,280.94,314l-.74,1.07-.74,1.33a1.5,1.5,0,0,0-.49.76l-.14.25-.88,1.34A1.27,1.27,0,0,1,277.46,319.74Z"/><path class="cls-6" d="M242.5,348.84a14.72,14.72,0,0,0,6.65,1.25c3.42-.07,6.84,0,10.26,0a19.28,19.28,0,0,1-1.24,3.2q-6.62,11.21-13.36,22.33c-1.39,2.3-2.83,4.58-4.28,6.86a1.44,1.44,0,0,1-2,.26c-3.12-2.88-6.33-5.67-8.4-9.48a4.59,4.59,0,0,1-.34-3.9,19.58,19.58,0,0,1,1.43-3.16c1.87-3.14,3.82-6.24,5.74-9.35.8-1.32,1.63-2.62,2.39-4A11.13,11.13,0,0,1,242.5,348.84Z"/><path class="cls-15" d="M315.62,316.3a12.55,12.55,0,0,1,.68,1.55,2.38,2.38,0,0,0,2.45,1.91c4.15,0,8.3,0,12.46-.05a31.37,31.37,0,0,1-1.42,3.12c-3,5.14-6.13,10.26-9.21,15.38l-.89,1.29c-.15.34-.31.67-.47,1l-.79,1.16-2.56,3.62-17.28.06c.23-1.68,1.32-3,2-4.47l.64-1.05c.23-.42.46-.85.68-1.28a1.18,1.18,0,0,0,.53-.92l.22-.35a2,2,0,0,0,1.06-1.87l.24-.4.72-1.09.55-1.07c1.5-.64,1.89-1.93,1.95-3.4l1.47-2.53.69-1.14.59-1.06a6.22,6.22,0,0,0,2.85-4.82l.08-.14a2.2,2.2,0,0,0,1.18-2.1c.22-.34.44-.69.65-1C315,316.52,315.31,316.41,315.62,316.3Z"/><path class="cls-10" d="M299.65,252.28c2.45,0,4.91.14,7.36,0a24.58,24.58,0,0,1,9.44,1.34c-.2.68-.41,1.36-.61,2.05l-.78,1.16L315,257a1.51,1.51,0,0,0-.92,1.36c-.6,1.2-1.14,2.43-1.81,3.59q-3.9,6.72-7.87,13.4a6.73,6.73,0,0,1-2.15,2.64V276.8c0-.18,0-.37,0-.56-.06-2.22-1-2.85-2.69-2.88-4.16-.06-8.31,0-12.47,0,1.22-3.66,3.63-6.69,5.43-10,1.45-2.69,3-5.3,4.66-7.89A34.72,34.72,0,0,1,299.65,252.28Z"/><path class="cls-4" d="M282.67,401.28a20.47,20.47,0,0,1-1.25,3.22c-3.8,6.52-7.67,13-11.52,19.48-.1.16-.22.32-.33.48a3.14,3.14,0,0,1-3.61,1.13,13,13,0,0,1-7.18-6.43,7.17,7.17,0,0,1-.25-6.18,38.42,38.42,0,0,1,2.06-4.17,69.55,69.55,0,0,1,5.5-8.83,26.48,26.48,0,0,0,9.65,1.28C278,401.16,280.36,401.26,282.67,401.28Z"/><path class="cls-6" d="M294.3,381.66a2.5,2.5,0,0,1-.18.94l-12.17,0a4.06,4.06,0,0,1-4.14-2.55c1.42-2.5,2.87-5,4.27-7.49a22.19,22.19,0,0,0,2.33-4.61c.94-3.41,3.16-6.11,4.68-9.18a2.3,2.3,0,0,1,1.85-1.21c0,1-.12,1.91-.08,2.86a2.13,2.13,0,0,0,2.13,2.23c4.21,0,8.42,0,12.63,0a1.69,1.69,0,0,1-.1.56,114.85,114.85,0,0,1-10.15,17A1.86,1.86,0,0,0,294.3,381.66Z"/><path class="cls-10" d="M247.49,247.77c1.84.36,3.66.84,5.51,1a47.8,47.8,0,0,0,5.08.05c.57,0,1.13,0,1.7,0a2.78,2.78,0,0,1,3.1,2.6,1.22,1.22,0,0,1-.37.9l-.87,1.29-.48,1.09-.73,1a4.27,4.27,0,0,1-.29,1.09q-3.86,6.63-7.77,13.24a7.09,7.09,0,0,1-1.18,1.21c-.07-.37-.14-.75-.23-1.12a3.28,3.28,0,0,0-3.27-2.64c-.57-.05-1.14-.06-1.71-.06l-10.27.1a5.46,5.46,0,0,1,.4-1.66c3.63-5.95,7.3-11.86,11-17.78A2.22,2.22,0,0,1,247.49,247.77Z"/><path class="cls-15" d="M235.71,267.61l10.27-.1c.57,0,1.14,0,1.71.06a3.28,3.28,0,0,1,3.27,2.64c.09.37.16.75.23,1.12a.8.8,0,0,1-.31.7c-.3.48-.61,1-.92,1.44a1.54,1.54,0,0,1-.45.95c-.25.4-.51.79-.76,1.18l-.58,1.21a2.24,2.24,0,0,0-.62.89l-.89,1.62-.27.43-.28.45-.83,1.27a31.81,31.81,0,0,1-5.69,9.44,11,11,0,0,0-.47-2.24,2.49,2.49,0,0,0-1.16-1.15,4.36,4.36,0,0,0-1.7-.26c-1.73,0-3.47-.1-5.2,0a10.76,10.76,0,0,1-6.08-1.5l.66-1.92a2.45,2.45,0,0,0,1.22-2.16l.1-.15a2.39,2.39,0,0,0,1.16-2l.18-.29.81-1.21c.2-.33.39-.67.57-1l.66-1.13.12-.18a2.33,2.33,0,0,0,1.15-2l.16-.27.84-1.25c.17-.32.34-.63.5-.95l.81-1.22C234.52,269.2,235.11,268.4,235.71,267.61Z"/><path class="cls-15" d="M348.59,289.67c-.24-.3-.5-.57-.71-.88a3.24,3.24,0,0,0-2.85-1.54l-9.64,0h-2.83a11.59,11.59,0,0,1,.78-2.14q4.41-7.43,8.9-14.8a15.14,15.14,0,0,1,1.47-1.75,28.69,28.69,0,0,0,10.69,1.3c.76,0,1.53,0,2.29,0a2.51,2.51,0,0,1,2.64,2.43,5.32,5.32,0,0,1-.33,1.09q-4.78,8.07-9.6,16.13A3.32,3.32,0,0,0,348.59,289.67Z"/><path class="cls-9" d="M277.81,380.08a4.06,4.06,0,0,0,4.14,2.55l12.17,0c-1.72,4.13-4.42,7.7-6.54,11.6-.93,1.7-1.91,3.36-3,5a17.52,17.52,0,0,1-1.94,2.11c-2.31,0-4.63-.12-6.93,0a26.48,26.48,0,0,1-9.65-1.28c3.23-6.59,7.26-12.72,10.93-19.06A4.81,4.81,0,0,1,277.81,380.08Z"/><path class="cls-10" d="M305.62,362.71c-4.21,0-8.42,0-12.63,0a2.13,2.13,0,0,1-2.13-2.23c0-.95.05-1.9.08-2.86.29-.58.57-1.17.85-1.76l.25-.41c1.23-2.18,2.43-4.37,3.7-6.52.78-1.32,1.45-2.74,2.85-3.56l17.28-.06a4.32,4.32,0,0,1-.27,1.1,120.63,120.63,0,0,1-8.67,14.1,1.48,1.48,0,0,0-1,1.36A2,2,0,0,1,305.62,362.71Z"/><path class="cls-15" d="M287.09,273.32c4.16,0,8.31,0,12.47,0,1.69,0,2.63.66,2.69,2.88,0,.19,0,.38,0,.56v1.14c-.19.4-.37.8-.56,1.21a2.16,2.16,0,0,0-.61.91l-.09.15-1,1.48a1.25,1.25,0,0,1-.4.89l-.81,1.25a25.59,25.59,0,0,1-4.72,7.88,2.32,2.32,0,0,0-2.33-2.11c-1,0-1.93-.05-2.89-.06-2.49,0-5,.08-7.41-.85a11.31,11.31,0,0,0-3.42-.24,1.52,1.52,0,0,1,.07-.57A109.84,109.84,0,0,1,287.09,273.32Z"/><path class="cls-15" d="M205.88,317.89c0,.19,0,.38,0,.58-.23,3,1,3.64,3.16,3.63,4,0,8.1-.07,12.15-.12,0,.2.06.43,0,.58-2.65,4.47-5.3,8.95-8,13.4a1.51,1.51,0,0,1-2.46.33c-2.08-2-4.21-4-6.15-6.13a7.53,7.53,0,0,1-1.34-8.62C203.82,320.15,204.35,318.64,205.88,317.89Z"/><path class="cls-4" d="M268.12,159.24l-144.09,0c-1.94,0-3.88,0-5.8.13a6.24,6.24,0,0,0-2,1c-.72-1.28-.55-1.95.52-2,1.54-.06,3.09-.11,4.64-.11H262c1.55,0,3.1,0,4.64.11C267.17,158.45,267.63,159,268.12,159.24Z"/><path class="cls-15" d="M216.45,299.75a17.21,17.21,0,0,1-3,6.5c-.27.41-.9.59-1.36.88a5.87,5.87,0,0,1,1.49-3.48C214.52,302.34,214.84,300.56,216.45,299.75Z"/><path class="cls-15" d="M210.55,309.77a6.55,6.55,0,0,1-.43,2.18c-1,1.59-1.7,3.37-3.36,4.43A10.8,10.8,0,0,1,210.55,309.77Z"/><path class="cls-4" d="M122.19,168.66l-.21,1c-2.27-1.19-3.6-3-3.42-5.65a4.34,4.34,0,0,1,2.27,2.27C121.26,167.08,121.73,167.87,122.19,168.66Z"/><path class="cls-12" d="M312.78,319.89a6.22,6.22,0,0,1-2.85,4.82A5.66,5.66,0,0,1,312.78,319.89Z"/><path class="cls-15" d="M275.69,292.3c-.46,1.67-1,3.32-2.58,4.3A5.17,5.17,0,0,1,275.69,292.3Z"/><path class="cls-15" d="M221,292.2c-.38,1.77-.92,3.44-2.63,4.41A5.59,5.59,0,0,1,221,292.2Z"/><path class="cls-5" d="M259,320.64c-.29,1.54-.68,3-2.31,3.76A4.48,4.48,0,0,1,259,320.64Z"/><path class="cls-15" d="M272.2,298.11c-.07,1.4-.25,2.74-1.9,3.21A3.31,3.31,0,0,1,272.2,298.11Z"/><path class="cls-12" d="M307.18,329.44c-.06,1.47-.45,2.76-1.95,3.4A3.44,3.44,0,0,1,307.18,329.44Z"/><path class="cls-4" d="M116.25,160.52a1.85,1.85,0,0,1,1,2A1.89,1.89,0,0,1,116.25,160.52Z"/><path class="cls-12" d="M303.72,335.4a2,2,0,0,1-1.06,1.87A1.39,1.39,0,0,1,303.72,335.4Z"/><path class="cls-4" d="M122.06,169.81a2.18,2.18,0,0,1,1.12,2.17A2.07,2.07,0,0,1,122.06,169.81Z"/><path class="cls-12" d="M314,317.65a2.2,2.2,0,0,1-1.18,2.1A2,2,0,0,1,314,317.65Z"/><path class="cls-15" d="M331.3,319.53a2.34,2.34,0,0,1,1.22-2.06A2.16,2.16,0,0,1,331.3,319.53Z"/><path class="cls-15" d="M268.71,304a2.1,2.1,0,0,1-1.06,1.83A1.66,1.66,0,0,1,268.71,304Z"/><path class="cls-15" d="M211.75,307.69c-.33.55-.65,1.1-1,1.65A1.32,1.32,0,0,1,211.75,307.69Z"/><path class="cls-15" d="M266.38,307.94l-.8,1.39C265.45,308.64,265.53,308.07,266.38,307.94Z"/><path class="cls-15" d="M265.26,309.88a2.34,2.34,0,0,1-1,1.79A1.53,1.53,0,0,1,265.26,309.88Z"/><path class="cls-5" d="M291.67,296.12a2.2,2.2,0,0,1,1.14-1.92A1.81,1.81,0,0,1,291.67,296.12Z"/><path class="cls-6" d="M226.86,281.66a2.45,2.45,0,0,1-1.22,2.16A2,2,0,0,1,226.86,281.66Z"/><path class="cls-6" d="M228.12,279.52a2.39,2.39,0,0,1-1.16,2A1.6,1.6,0,0,1,228.12,279.52Z"/><path class="cls-6" d="M231.61,273.69a2.33,2.33,0,0,1-1.15,2A1.59,1.59,0,0,1,231.61,273.69Z"/><path class="cls-12" d="M315.62,316.3c-.31.11-.62.22-.93.31-.15-.74.08-1.12.68-1.12A4.47,4.47,0,0,1,315.62,316.3Z"/><path class="cls-15" d="M279,317.18a1.5,1.5,0,0,1,.49-.76l0,.51Z"/><path class="cls-15" d="M332.56,317.4l.71-1A.87.87,0,0,1,332.56,317.4Z"/><path class="cls-5" d="M344.09,298.4a.9.9,0,0,1,.38-.65l0,.45Z"/><path class="cls-15" d="M223.18,318.57c.26-.35.51-.71.76-1.06A.91.91,0,0,1,223.18,318.57Z"/><path class="cls-15" d="M278,318.77l.88-1.34A1.27,1.27,0,0,1,278,318.77Z"/><path class="cls-5" d="M343.08,300c.25-.4.51-.8.77-1.19A1.08,1.08,0,0,1,343.08,300Z"/><path class="cls-15" d="M222,320.6a1.45,1.45,0,0,1,.49-.7l0,.5Z"/><path class="cls-5" d="M274.35,325.25a1.6,1.6,0,0,1,.44-.65v.46Z"/><path class="cls-5" d="M273.32,326.83l.81-1.22A1.24,1.24,0,0,1,273.32,326.83Z"/><path class="cls-12" d="M309.34,325.77l-.69,1.14C308.61,326.26,308.9,325.77,309.34,325.77Z"/><path class="cls-5" d="M272.08,328.9a1.34,1.34,0,0,1,.63-.86A.7.7,0,0,1,272.08,328.9Z"/><path class="cls-5" d="M270.88,331a1.49,1.49,0,0,1,.37-.55l0,.41Z"/><path class="cls-12" d="M304.68,333.91,304,335A.86.86,0,0,1,304.68,333.91Z"/><path class="cls-15" d="M217.44,298.07a1.93,1.93,0,0,1-.41.74l0-.49Z"/><path class="cls-12" d="M302.44,337.62a1.18,1.18,0,0,1-.53.92C301.72,337.94,301.9,337.62,302.44,337.62Z"/><path class="cls-6" d="M319.69,339.5l.89-1.29A1.18,1.18,0,0,1,319.69,339.5Z"/><path class="cls-12" d="M301.23,339.82l-.64,1.05C300.5,340.23,300.75,339.82,301.23,339.82Z"/><path class="cls-6" d="M318.43,341.66l.79-1.16C319.25,341.22,319,341.66,318.43,341.66Z"/><path class="cls-5" d="M290.72,297.68l.76-1.2A1,1,0,0,1,290.72,297.68Z"/><path class="cls-6" d="M244,346.37a1.57,1.57,0,0,1-.93,1.42A1.61,1.61,0,0,1,244,346.37Z"/><path class="cls-6" d="M260.3,348.79l.91-1.31A1.21,1.21,0,0,1,260.3,348.79Z"/><path class="cls-5" d="M345.32,296.29a1.15,1.15,0,0,1,.58-.92C346.05,295.89,345.81,296.17,345.32,296.29Z"/><path class="cls-6" d="M292,355.42l-.25.41s-.18-.36-.18-.36Z"/><path class="cls-4" d="M117.57,162.89l.85,1Z"/><path class="cls-6" d="M306,361.84a1.48,1.48,0,0,1,1-1.36A1.53,1.53,0,0,1,306,361.84Z"/><path class="cls-15" d="M346.51,294a1.34,1.34,0,0,1,.61-.89A.69.69,0,0,1,346.51,294Z"/><path class="cls-9" d="M294.3,381.66a1.86,1.86,0,0,1,1.07-1.35Z"/><path class="cls-5" d="M292.94,294a1.09,1.09,0,0,1,.55-.89C293.65,293.56,293.42,293.83,292.94,294Z"/><path class="cls-9" d="M294.1,168.72l-.81.93Z"/><path class="cls-9" d="M292.9,170.1a1.11,1.11,0,0,1-.53.7A.55.55,0,0,1,292.9,170.1Z"/><path class="cls-5" d="M347.81,292a1.31,1.31,0,0,1,.8-1.25A1.17,1.17,0,0,1,347.81,292Z"/><path class="cls-5" d="M348.59,289.67a3.32,3.32,0,0,1,.81-.16.72.72,0,0,1-.65.92A6.85,6.85,0,0,1,348.59,289.67Z"/><path class="cls-15" d="M276.65,290.45l0-.06Z"/><polygon class="cls-15" points="222.07 290.31 222 290.41 221.84 290.29 222.07 290.31"/><path class="cls-15" d="M223.15,288.15v0Z"/><path class="cls-15" d="M224.37,286.56a1.36,1.36,0,0,1-.37.62l-.05-.44Z"/><path class="cls-10" d="M298.83,283.83l.81-1.25A1.36,1.36,0,0,1,298.83,283.83Z"/><path class="cls-9" d="M291.76,172.26l-.69.92Z"/><path class="cls-10" d="M300,281.69l1-1.48Z"/><path class="cls-10" d="M245.28,281.47l.83-1.27A1.39,1.39,0,0,1,245.28,281.47Z"/><path class="cls-10" d="M301.09,280.06a2.16,2.16,0,0,1,.61-.91A.75.75,0,0,1,301.09,280.06Z"/><polygon class="cls-10" points="246.39 279.75 246.66 279.32 246.73 279.64 246.39 279.75"/><path class="cls-14" d="M283.85,186.06a1.43,1.43,0,0,1-1,1.28A1.31,1.31,0,0,1,283.85,186.06Z"/><path class="cls-14" d="M282.73,187.57q-.37.57-.72,1.14Q281.83,187.57,282.73,187.57Z"/><path class="cls-10" d="M247.55,277.7a2.24,2.24,0,0,1,.62-.89A.73.73,0,0,1,247.55,277.7Z"/><path class="cls-14" d="M285,184l-.79,1.25C284.17,184.45,284.46,184,285,184Z"/><path class="cls-6" d="M230.34,275.88l-.66,1.13C229.57,276.32,229.82,275.88,230.34,275.88Z"/><path class="cls-15" d="M269.74,302v0Z"/><path class="cls-15" d="M264,312.1a1.48,1.48,0,0,1-.29.52l-.09-.37Z"/><path class="cls-15" d="M225.44,314.85a1.54,1.54,0,0,1,.51-.77C226.08,314.53,225.91,314.78,225.44,314.85Z"/><path class="cls-10" d="M248.75,275.6c.25-.39.51-.78.76-1.18A1.14,1.14,0,0,1,248.75,275.6Z"/><path class="cls-15" d="M280.2,315.09l.74-1.07A.89.89,0,0,1,280.2,315.09Z"/><path class="cls-12" d="M316.27,314.05a1.16,1.16,0,0,1-.78,1.22C315.49,314.57,315.81,314.05,316.27,314.05Z"/><path class="cls-15" d="M224.43,316.48l.87-1.37A1.36,1.36,0,0,1,224.43,316.48Z"/><path class="cls-10" d="M250,273.47c.31-.48.62-1,.92-1.44A1.71,1.71,0,0,1,250,273.47Z"/><path class="cls-6" d="M229.11,278l-.81,1.21A1.05,1.05,0,0,1,229.11,278Z"/><path class="cls-6" d="M232.61,272.17l-.84,1.25A1.14,1.14,0,0,1,232.61,272.17Z"/><path class="cls-6" d="M233.92,270l-.81,1.22C233.07,270.46,233.38,270,233.92,270Z"/><path class="cls-6" d="M314.09,258.31A1.51,1.51,0,0,1,315,257,1.56,1.56,0,0,1,314.09,258.31Z"/><path class="cls-6" d="M315.06,256.87l.78-1.16A1,1,0,0,1,315.06,256.87Z"/><path class="cls-7" d="M260.43,255.79l.73-1A1,1,0,0,1,260.43,255.79Z"/><path class="cls-6" d="M316.66,253.7a1.14,1.14,0,0,1,.93-1.24Z"/><path class="cls-7" d="M261.64,253.68l.87-1.29A1.38,1.38,0,0,1,261.64,253.68Z"/><path class="cls-6" d="M297.72,193l.84-1.23A1.17,1.17,0,0,1,297.72,193Z"/><path class="cls-6" d="M299,190.79a1.4,1.4,0,0,1,.84-1.28A1.24,1.24,0,0,1,299,190.79Z"/><path class="cls-15" d="M262.59,314.75a1.75,1.75,0,0,1-1,1.54A1.84,1.84,0,0,1,262.59,314.75Z"/><path class="cls-6" d="M300.18,188.5a1.25,1.25,0,0,1,.86-1.27A1.31,1.31,0,0,1,300.18,188.5Z"/></g></g></svg>