<svg xmlns="http://www.w3.org/2000/svg" viewBox="0 0 2719.26 966.52"><defs><style>.cls-1{fill:#cecfce;}.cls-2{fill:#686767;}.cls-3{fill:#656565;}.cls-4{fill:#93651f;}.cls-5{fill:#d3ba86;}.cls-6{fill:#b7934d;}.cls-7{fill:#edb43f;}.cls-8{fill:#f6ec7f;}.cls-9{fill:#9e8123;}.cls-10{fill:#eebc53;}.cls-11{fill:#5b5a5a;}.cls-12{fill:#a99a6d;}.cls-13{fill:#e8e8e8;}.cls-14{fill:#ac841f;}.cls-15{fill:#e5d974;}</style></defs><g id="Layer_2" data-name="Layer 2"><g id="LOGO-Model_Image_Image" data-name="LOGO-Model Image Image"><path class="cls-1" d="M836.77,775.44c-.15,3.83-.43,7.66-.44,11.48q0,49.88,0,99.73c0,3.19-.15,6.38-.33,9.56a3.58,3.58,0,0,1-3.24,3c-3.19.13-6.39.22-9.58.22H83.43c-3.52,0-7,0-10.55-.16-2.53-.09-3.92-1.65-4.07-4.35-.08-1.28-.11-2.56-.12-3.84,0-2.23,0-4.47,0-6.71q0-369.66,0-739.31c0-3.52,0-7,.16-10.55.1-2.51,1.67-3.93,4.38-4,2.56-.11,5.12-.12,7.68-.12,12.79,0,25.58,0,38.37,0,3.52,0,7-.16,10.55-.25l.8.77c0,3.83-.07,7.67-.07,11.5V761.73c0,2.55,0,5.11,0,7.67,0,1,.15,1.9.24,2.86a3.1,3.1,0,0,0,2.42,2.6c2.23.17,4.46.34,6.68.35q22.55,0,45.09,0H822.93c4.47,0,8.94-.25,13.41-.38Z"/><path class="cls-1" d="M893.56,775c-17,0-34.1-.11-51.16-.1a51.41,51.41,0,0,0-5.63.58l-.43-.61c.09-3.51.27-7,.28-10.52q0-36.91,0-73.81,0-273.17,0-546.32c0-3.51-.06-7-.15-10.54a3.17,3.17,0,0,0-3-3.13c-3.51-.12-7-.22-10.54-.22H143.05c-4.14,0-8.31-.36-12.42.58l-.8-.77c.1-1.27.29-2.53.29-3.8q0-26.67-.09-53.35a4.11,4.11,0,0,1,1.6-.84c3.77,1,7.63.65,11.45.65H763.6c2.55,0,5.11,0,7.66-.11a12.93,12.93,0,0,0,2.78-.61c.89-.24,1.72-2.25,1.42-3.23a2.23,2.23,0,0,0-2.05-1.66c-3.19-.16-6.38-.28-9.57-.28q-67.62,0-135.23,0-242.64,0-485.29,0c-3.82,0-7.64.33-11.46.51l-3.65-.94a9.94,9.94,0,0,0,1.91-5.33c0-2.23,0-4.47,0-6.71,0-14.7,0-29.4,0-44.1a35.26,35.26,0,0,1,.55-6.65A4.39,4.39,0,0,1,134,.47a10,10,0,0,1,2.83-.4C140,0,143.23,0,146.42,0H885.06c3.82,0,7.65.21,11.47.38a3.38,3.38,0,0,1,2.64,2.44,23.17,23.17,0,0,1,.39,2.83c.07,2.88.06,5.75.06,8.63q0,86.78,0,173.54a12.1,12.1,0,0,0-1.91.11c-2.66.53-3.62,1.4-3.69,3.57-.11,3.51-.15,7-.15,10.53q0,279.77,0,559.52C893.89,766,893.67,770.49,893.56,775Z"/><path class="cls-2" d="M1996.9,387.49h63.29c2.56,0,5.12,0,7.67.07,2.76.09,4,1.33,4,4.19,0,5.11-.08,10.21-.18,15.31a3,3,0,0,1-2.43,2.6c-2.86.16-5.73.35-8.59.35q-46.51,0-93,0-16.79,0-33.57,0c-2.55,0-5.11,0-7.66.14-4,.19-6.41,2.61-7.74,6.14a13.8,13.8,0,0,0-.92,4.66c-.08,10.87-.07,21.73,0,32.59a18.06,18.06,0,0,0,.55,3.78,8.76,8.76,0,0,0,8,7.13c2.86.24,5.74.23,8.62.23q43.63,0,87.26,0a75.62,75.62,0,0,1,13.35,1.16c13.05,2.29,22.93,9.29,30,20.28a40.94,40.94,0,0,1,6.76,23.58c-.15,7.35-.3,14.71,0,22.05.74,16.47-10.29,36.29-31.91,43.07a43.73,43.73,0,0,1-13.2,2q-61.38-.12-122.75-.05c-1.6,0-3.2,0-4.79-.09-2.25-.1-3.81-1.43-3.83-3.41q-.09-7.66,0-15.33a3.52,3.52,0,0,1,3.73-3.49c2.88-.08,5.76-.09,8.63-.09h113.16c2.56,0,5.12.06,7.67,0a21.69,21.69,0,0,0,20.29-16.12,33.93,33.93,0,0,0,1.39-9.45q-.06-8.14,0-16.29a32.33,32.33,0,0,0-1.5-9.43,22.28,22.28,0,0,0-19.68-15.79c-2.54-.19-5.11-.09-7.67-.09h-89.18a53.13,53.13,0,0,1-14.24-1.55c-10-2.73-21-13-22.53-27.16a17.47,17.47,0,0,1-.11-1.91c0-12.78-.32-25.57.07-38.34.51-16.26,13.62-29.35,30.07-30.61,2.54-.2,5.11-.1,7.67-.1Z"/><path class="cls-2" d="M1678.73,505V449.39c0-2.87,0-5.75.07-8.62a55.12,55.12,0,0,1,37.9-50.32,58.91,58.91,0,0,1,18.85-3c13.1.06,26.2,0,39.31,0,7.35,0,14.7-.06,22.05,0a54.52,54.52,0,0,1,26.66,6.7c18.84,10.59,29.06,26.79,29.27,48.31.4,41.85.12,83.7.1,125.54a41.72,41.72,0,0,1-.47,5.69c-.07.49-.7,1-1.19,1.31a4,4,0,0,1-1.8.53c-1.91.11-3.83.17-5.75.15-14.67-.13-12.78,1.62-12.81-12.7-.09-37.69,0-75.38,0-113.08,0-2.87.14-5.76-.11-8.62-1.18-13.52-7.59-23.44-20.23-29a22.72,22.72,0,0,0-8.3-2.12c-2.55-.1-5.11-.18-7.66-.18h-57.53c-1.6,0-3.2.06-4.79,0-13.83-.31-30,11.29-31.33,30.32-.2,2.86-.1,5.75-.1,8.62q0,57.5,0,115c0,13.13,1.4,11.72-11.79,11.76a79.1,79.1,0,0,1-8.55-.62,1.81,1.81,0,0,1-1.22-1.21,54.65,54.65,0,0,1-.51-6.64Q1678.71,536.12,1678.73,505Z"/><path class="cls-3" d="M1423.86,505.29q0,29.7,0,59.41a79.43,79.43,0,0,1-.41,8.59,2.7,2.7,0,0,1-1.8,1.85c-5.74.19-11.48.19-17.22.2-1,0-2.29-1.48-2.38-2.58-.11-1.27-.24-2.54-.26-3.82,0-2.55,0-5.11,0-7.66q0-45,0-90.07,0-12.46.23-24.91a51.34,51.34,0,0,0-1.16-11.39c-2.94-14.16-17-25.14-30.22-24.86-1.6,0-3.2,0-4.79,0h-58.49c-1.27,0-2.55.07-3.83,0-13.09-.63-30,10.66-31.52,30.12-.29,3.81-.26,7.66-.26,11.49q0,55.1,0,110.19c0,2.55,0,5.11,0,7.66-.09,5.45-.6,6.11-6.06,6-18.28-.29-15.74,3.07-15.8-15.43-.12-37.37-.06-74.74,0-112.11,0-4.13.32-8.28.69-12.41,2.13-23.75,23.23-43.44,43.28-46.62,3.79-.6,7.51-1.44,11.38-1.44,21.09,0,42.18-.08,63.27,0a54.37,54.37,0,0,1,33.84,11.56c13.36,10.38,20.6,24.09,21.53,41,.14,2.55,0,5.11.06,7.66Z"/><path class="cls-3" d="M1120.61,387.51q38.36,0,76.69,0a74.76,74.76,0,0,1,7.63.47c.48.05,1,.76,1.31,1.28a4,4,0,0,1,.45,1.85c0,5.1,0,10.21,0,15.32a3.58,3.58,0,0,1-3.8,3.44c-2.88.08-5.76.09-8.63.1-17.58,0-35.15,0-52.73,0-9.15,0-9.08.42-9.08,9,0,47,.07,93.9,0,140.85,0,18.75,2.42,15.29-15.6,15.66-1.26,0-2.54-.16-3.81-.26a2.9,2.9,0,0,1-2.33-2.59c-.09-1.27-.19-2.54-.2-3.82,0-2.55,0-5.11,0-7.66q0-69.47,0-138.93c0-3.19-.15-6.38-.28-9.56a2.91,2.91,0,0,0-2.55-2.45c-2.55-.13-5.1-.27-7.64-.27q-27.33,0-54.65,0c-2.55,0-5.1-.07-7.65-.18a3.3,3.3,0,0,1-3-3.21c0-5.43,0-10.85.14-16.27a2.82,2.82,0,0,1,2.4-2.55c2.87-.11,5.74-.24,8.61-.24Q1083.22,387.5,1120.61,387.51Z"/><path class="cls-2" d="M2542.6,480.79q0-41.67,0-83.33c0-2.87.13-5.74.25-8.6a3.08,3.08,0,0,1,2.42-2.6,85,85,0,0,1,17.18,0,3,3,0,0,1,2.36,2.65c.11,3.18.22,6.37.22,9.56q0,70.88,0,141.76c0,15.77-2,13.75,13.64,13.78,43.44.07,86.89,0,130.33,0,2.86,0,5.71.24,8.56.5.46,0,.9.76,1.28,1.21a1.44,1.44,0,0,1,.34.87q0,8.13,0,16.26a3,3,0,0,1-2.47,2.51c-1.59.06-3.19.14-4.78.14q-80.51,0-161,0c-1.91,0-3.81-.15-5.72-.28a3,3,0,0,1-2.43-2.56c-.09-1-.21-1.9-.23-2.85,0-2.56,0-5.11,0-7.67Z"/><path class="cls-3" d="M1575.25,464h56.59c1.92,0,3.84,0,5.75.1,2.22.09,3.31,1.27,3.42,3.72.08,1.92.11,3.83.08,5.75q-.06,4.79-.23,9.57a2.71,2.71,0,0,1-2.51,2.41c-3.19.1-6.38.2-9.57.2q-52.76,0-105.51,0a55.74,55.74,0,0,0-11.45.76c-15.48,3.18-26,14.84-27.19,30.53-.2,2.54-.13,5.11-.13,7.66q0,20.61,0,41.22c0,1.92,0,3.84-.07,5.75-.08,2.28-1.34,3.72-3.42,3.76-4.47.08-9,.13-13.43.08-4.11,0-5-.94-5-5.12,0-17.58-.37-35.16,0-52.72.57-24.66,16.87-44.44,39.1-51.43a54.15,54.15,0,0,1,17-2.29c9.59.1,19.18,0,28.77,0Z"/><path class="cls-4" d="M899.53,891.79c.07,2.87.2,5.75.21,8.62q.09,27.33.12,54.65c0,2.87-.1,5.74-.2,8.61a2.8,2.8,0,0,1-2.31,2.61c-1,.09-1.91.21-2.87.22-2.55,0-5.11,0-7.67,0H139.58c-3.51,0-7-.16-10.53-.28-1,0-1.93-1.68-1.83-3a2.45,2.45,0,0,1,1.56-2.18,8.33,8.33,0,0,1,2.84-.35c3.19,0,6.39,0,9.59,0H880.77c3.51,0,7-.1,10.54-.19a2.74,2.74,0,0,0,2.47-2.42c.12-2.55.24-5.1.25-7.65.06-16.3.07-32.59.13-48.89,0-3.19.16-6.39.24-9.58Z"/><path class="cls-2" d="M2197.76,492.77q-38.85,0-77.7,0c-2.87,0-5.74-.13-8.61-.25a2.94,2.94,0,0,1-2.56-2.41c-.14-2.22-.32-4.46-.3-6.68.16-14.06-1.84-12.85,12.77-12.86q77.22,0,154.43,0c12.9,0,11.95-1.23,11.92,11.8a84.27,84.27,0,0,1-.58,8.54c-.05.48-.71,1-1.22,1.3a4,4,0,0,1-1.83.45c-2.87.08-5.75.11-8.63.11Z"/><path class="cls-2" d="M2412.63,470.55q39.28,0,78.57,0c2.87,0,5.74.15,8.6.28a3,3,0,0,1,2.39,2.6c.06.63.18,1.26.18,1.9,0,4.15.06,8.3,0,12.44-.07,3.7-1,4.69-4.39,4.78-2.23.06-4.47.05-6.7.05H2335.07c-2.56,0-5.11,0-7.67-.08-3.29-.08-3.83-1.72-4-4.21a17.47,17.47,0,0,1-.05-1.91c.32-18.11-2.89-15.75,15.52-15.83C2363.44,470.47,2388,470.55,2412.63,470.55Z"/><path class="cls-2" d="M2198.8,387.49h77.61c2.87,0,5.74.11,8.61.21a3,3,0,0,1,2.4,2.58c.08.63.18,1.26.24,1.89s.07,1.28.06,1.91c-.22,18.35,2.46,15.88-15.52,15.92q-75.7.14-151.4,0c-3.18,0-6.37-.17-9.55-.33a2.87,2.87,0,0,1-2.42-2.57q0-8.6.1-17.19c0-1.08,1.39-2.18,2.69-2.23,2.55-.1,5.1-.19,7.65-.2h79.53Z"/><path class="cls-2" d="M1552,387.49q39.73,0,79.46,0a74.18,74.18,0,0,1,7.59.49c.48.05.91.76,1.29,1.21a1.62,1.62,0,0,1,.37.86,83.5,83.5,0,0,1,0,17.17,3.23,3.23,0,0,1-2.54,2.51c-1.9.12-3.81.24-5.72.24q-80.89,0-161.79,0c-1.91,0-3.82-.14-5.72-.27a3,3,0,0,1-2.57-2.41q-.06-8.6,0-17.17a2.83,2.83,0,0,1,2.53-2.41c2.87-.11,5.73-.23,8.6-.23Q1512.73,387.48,1552,387.49Z"/><path class="cls-2" d="M2412.73,387.49h76.72c2.88,0,5.76,0,8.64.06,3.28.05,4,1.58,4,4.14.09,4.79.05,9.59,0,14.38,0,2.29-1.33,3.68-3.43,3.77-2.55.11-5.11.16-7.66.16h-39.33q-58,0-116.05,0c-3.19,0-6.38-.18-9.56-.34a3,3,0,0,1-2.48-2.55,34.81,34.81,0,0,1-.25-3.81c.33-18.29-2.9-15.68,15.54-15.77C2363.49,387.4,2388.11,387.49,2412.73,387.49Z"/><path class="cls-3" d="M2412.68,575.56H2337c-2.55,0-5.11,0-7.66,0-5.44-.09-6-.57-6-6,0-4.15.07-8.29.18-12.44a3.1,3.1,0,0,1,3.11-3c2.55-.1,5.11-.16,7.66-.16q78.53,0,157.07,0c2.23,0,4.47,0,6.7.08,2.87.11,4,1.19,4,4.15,0,4.78,0,9.56-.11,14.35a2.93,2.93,0,0,1-3.11,2.89q-4.3.14-8.61.14Z"/><path class="cls-3" d="M2198.38,575.56q-40.27,0-80.56,0a69.49,69.49,0,0,1-7.63-.51c-.48,0-.93-.81-1.31-1.31a1.66,1.66,0,0,1-.19-.93c0-5.42,0-10.84,0-16.26a2.92,2.92,0,0,1,2.5-2.47c3.18-.14,6.37-.31,9.56-.31q71,0,141.94,0c6.39,0,12.78,0,19.18,0a14,14,0,0,1,3.74.59c.52.15.92.84,1.29,1.34a1.7,1.7,0,0,1,.21.93c0,5.42,0,10.84,0,16.26a2.76,2.76,0,0,1-2.48,2.42c-2.87.1-5.75.23-8.62.23Q2237.23,575.58,2198.38,575.56Z"/><path class="cls-5" d="M893.56,775c.11-4.47.33-8.93.33-13.4q0-279.75,0-559.52c0-3.51,0-7,.15-10.53.07-2.17,1-3,3.69-3.57a12.1,12.1,0,0,1,1.91-.11c.05,3.19.15,6.38.15,9.57q0,283.94,0,567.89c0,3.19-.21,6.37-.32,9.56l-5.13-.08Z"/><path class="cls-6" d="M1780.29,715.2c-4.15-.14-8.29-.33-12.44-.38-1.88,0-3.76.31-5.65.38a13.31,13.31,0,0,1-11.73-5.29c-1.93-2.53-3.6-5.26-5.38-7.91-1.43-2.12-2.7-4.35-4.29-6.34a5.64,5.64,0,0,0-5.17-1.91c-1.21.11-2.7,1.22-2.75,2.24-.13,2.55-.13,5.1-.3,7.65-.28,4.25,1.14,7.41,5.38,8.92a1.1,1.1,0,0,1,.45.75c.11.77-.22,1.32-.93,1.4a74.27,74.27,0,0,1-16.19,0c-.83-.09-1.14-.54-.91-1.35.08-.28.15-.64.35-.77a24.42,24.42,0,0,0,2.43-1.46,5.31,5.31,0,0,0,1.69-2.13,12.26,12.26,0,0,0,.51-3.77c0-10.22,0-20.44,0-30.65,0-.32,0-.64,0-1,0-3.19-1.38-5.48-4.51-6.57-.84-.3-.94-.85-.36-1.46a4.27,4.27,0,0,1,.62-.65,1.87,1.87,0,0,1,.9-.31c6.06,0,12.13-.2,18.19,0a27.21,27.21,0,0,1,7.54,1.28c9.58,3.07,10.4,14,5.81,19.49-1.62,1.94-3.61,3.58-5.33,5.45a1.9,1.9,0,0,0-.25,1.74,71.1,71.1,0,0,0,12,17.21,9.46,9.46,0,0,0,3.17,2.07,9,9,0,0,0,3.67.62,21.88,21.88,0,0,0,3.72-.9,4.71,4.71,0,0,0,3.62-4,13,13,0,0,0,.31-2.85c0-10.21,0-20.43,0-30.65a7.23,7.23,0,0,0-4.06-7c-.77-.4-.82-1-.28-1.5.21-.21.38-.56.64-.64a5.74,5.74,0,0,1,1.86-.4q12.93-.09,25.87-.11a17.84,17.84,0,0,1,1.9.22,3.23,3.23,0,0,1,2.55,2.5c.08,2.53.08,5.07.07,7.6,0,.84-.52,1.16-1.34.92-.28-.08-.66-.12-.81-.32a12.46,12.46,0,0,1-1.56-2.35c-1.49-3.37-4.23-4.57-7.68-4.61-1.6,0-3.2,0-4.79,0-3.33.13-4.79,1.44-5,4.51-.11,2.23-.14,4.47-.12,6.71.06,6.75.85,7.41,7.93,7.21,3.11-.09,5.59-1,6.87-4.13.15-.38,1.07-.69,1.56-.61a1.63,1.63,0,0,1,1.1,1.14q.16,5.73.08,11.46c0,.39-.74.83-1.21,1.13a.9.9,0,0,1-.85-.18,15.9,15.9,0,0,1-1.71-2.21,5.68,5.68,0,0,0-4.73-2.77c-.64,0-1.28-.08-1.91-.1-6.51-.17-7.11.33-7.11,6.89,0,3.5.21,7,.45,10.49a4,4,0,0,0,3.18,3.18,34.87,34.87,0,0,0,3.81.28c8.71-.06,9.35.89,14.88-7.59a1.33,1.33,0,0,1,.74-.59,5.25,5.25,0,0,1,1.72-.09c.16,0,.37.55.35.84a21.37,21.37,0,0,1-.47,3.75c-2,7.29-2,7.3-9.81,7.34-5.43,0-10.86,0-16.29,0Zm-47.84-36h.36c0,2.84,0,5.68,0,8.51a2.87,2.87,0,0,0,2.51,2.38,13.39,13.39,0,0,0,7.37-1.2,9.16,9.16,0,0,0,5.35-7.29,16.6,16.6,0,0,0-.45-7.49,8,8,0,0,0-1.86-3.22,10.93,10.93,0,0,0-9.52-3.14c-1.51.22-3.18,1.6-3.28,3C1732.73,673.59,1732.61,676.42,1732.45,679.25Z"/><path class="cls-7" d="M1.64,391.18c-.11-3.81-.31-7.63-.31-11.45Q1.18,269.81,1.11,159.9c0-2.85.28-5.71.44-8.56l4.74-.21c1.15,3.42.71,7,.71,10.44q0,70.77-.08,141.55,0,38.73-.09,77.46c0,3.49-.4,7-.61,10.47Z"/><path class="cls-8" d="M6.38,481c.26,2.85.75,5.69.75,8.53q.06,71.73,0,143.46c0,2.55-.25,5.09-.37,7.64l-5.38,0a15.24,15.24,0,0,1-1.22-3.57C0,634.53,0,632,0,629.42q0-68.52,0-137a75,75,0,0,1,.18-7.65,12.45,12.45,0,0,1,1.45-3.44Z"/><path class="cls-9" d="M6.29,151.13l-4.74.21c-.1-6.33-.24-12.66-.27-19q-.15-28-.19-56.06c0-3.15.34-6.29.52-9.44q28.68,0,57.36,0c2.54,0,5.07-.29,7.61-.44a7.58,7.58,0,0,0,.94.13l60.69-.07,3.65.94c-.08,1.57-.15,3.14-.23,4.71A4.11,4.11,0,0,0,130,73c-2.23-.07-4.47-.21-6.7-.21H17.07c-2.54,0-5.09.13-7.64.25a2.74,2.74,0,0,0-2.31,2.59c-.11,2.87-.22,5.74-.23,8.6-.08,18.82-.12,37.63-.22,56.45C6.65,144.13,6.42,147.63,6.29,151.13Z"/><path class="cls-6" d="M1403.35,686.3c3.19,0,6.37,0,9.56,0a3,3,0,0,0,2.9-3.11c.07-3.19,0-6.38.1-9.57a6.4,6.4,0,0,0-4.44-6.6c-.84-.33-.93-.86-.31-1.46.21-.21.41-.56.65-.6a51.29,51.29,0,0,1,15.2-.09c.46.06.87.79,1.22,1.27.07.09-.14.54-.33.66-.79.52-1.63,1-2.43,1.47a4.59,4.59,0,0,0-2,3.13,4.18,4.18,0,0,0-.13.94q0,17.22,0,34.44a5,5,0,0,0,3.58,5.06,1.19,1.19,0,0,1,.7.61,5.36,5.36,0,0,1,.29,1.69c0,.17-.38.48-.61.51a73.56,73.56,0,0,1-16.18.12,1,1,0,0,1-1-1.37,2.15,2.15,0,0,1,.36-.8c.19-.24.44-.54.7-.59,3.38-.68,4.79-2.79,4.71-6.14-.06-2.55,0-5.11,0-7.66-.06-7.91-.07-8-8-8-4.78,0-9.56.1-14.34.23a3.21,3.21,0,0,0-3,3.14c-.09,3.82,0,7.66-.19,11.47-.21,3.62,1.07,6.09,4.5,7.46.3.12.31,1.07.34,1.64,0,.15-.43.46-.67.47q-7.62.21-15.26.34c-1.29,0-2.34-.88-1.94-1.53a4.07,4.07,0,0,1,1-1.4c.8-.49,1.86-.62,2.59-1.18a4.43,4.43,0,0,0,1.64-2.21,21,21,0,0,0,.43-4.75c0-8.93.07-17.86,0-26.79,0-2.21,0-4.61-.79-6.56-.67-1.58-2.63-2.61-4-3.91a.85.85,0,0,1-.1-.74c.09-.29.29-.72.52-.77a41.58,41.58,0,0,1,16.07-.11c.21,0,.39.46.51.74s.21.67.1.76a6.46,6.46,0,0,1-1.55,1.06,4.74,4.74,0,0,0-3.2,4.36c-.11,3.82-.08,7.64,0,11.47a3,3,0,0,0,3.14,2.9c3.19.06,6.38,0,9.57,0Z"/><path class="cls-6" d="M1944.35,684.9c0-3.51,0-7,0-10.52-.06-4-1.83-6.66-6-7.29a1.18,1.18,0,0,1-.7-.62,1.07,1.07,0,0,1,.05-.8c.11-.26.31-.66.52-.69a42.55,42.55,0,0,1,15.14,0c.22,0,.4.46.52.74s.22.68.12.76c-.75.57-1.57,1.05-2.35,1.59a5,5,0,0,0-2.39,3.92c-.14,2.87-.26,5.73-.27,8.6,0,9.57,0,19.13-.07,28.69a15,15,0,0,1-.65,4.68c-.17.5-1.77,1-2.41.76a7.85,7.85,0,0,1-2.92-2.31c-6.3-7.62-12.5-15.31-18.79-22.93-2.64-3.2-5.39-6.29-8.17-9.37a2,2,0,0,0-1.69-.32,1.84,1.84,0,0,0-1.09,1.29c-.06,7.33,0,14.65,0,22,0,.63.14,1.27.19,1.9.28,3.41,1.33,6.23,5.11,7.2.36.09.64.95.73,1.49s-.38,1.07-1.17,1.14c-.32,0-.63.13-.94.13-4.15,0-8.29,0-12.44-.07a2.28,2.28,0,0,1-1.42-.94,1.05,1.05,0,0,1,.46-1.64,14,14,0,0,1,1.68-.86,5.24,5.24,0,0,0,3.27-4.36,41.81,41.81,0,0,0,.39-5.71c.06-8-.11-15.95.13-23.91.16-5-1.38-8.69-6.32-10.5-.76-.28-.83-.86-.24-1.52.19-.21.45-.52.69-.53,2.21-.16,4.42-.33,6.63-.36a5.56,5.56,0,0,1,4.24,1.93c2.13,2.36,4.16,4.82,6.24,7.24q10.61,12.32,21.24,24.6a1.83,1.83,0,0,0,1.66.31,2.13,2.13,0,0,0,1.06-1.34,12.86,12.86,0,0,0,.24-2.85c0-3.18,0-6.37,0-9.56Z"/><path class="cls-6" d="M2490.54,693.9c0,3.51,0,7,0,10.53-.07,4,1.55,6.73,5.54,7.85a1.23,1.23,0,0,1,.64.68,1.51,1.51,0,0,1,0,.89c-.08.26-.26.67-.44.7a47,47,0,0,1-15.16,0c-.19,0-.37-.43-.45-.69a1.5,1.5,0,0,1,0-.89,1.24,1.24,0,0,1,.61-.71c4.07-1.24,5.19-4.34,5.21-8.15,0-8.61-.15-17.23.2-25.83.22-5.4-1.3-9.34-6.48-11.47-.17-.07-.3-.48-.28-.71s.16-.75.38-.85a12.42,12.42,0,0,1,9.3-.09,9.82,9.82,0,0,1,3.57,3.07c4.35,5.1,8.56,10.31,12.92,15.4s8.79,10.08,13.26,15.06c.26.29,1.15.11,1.72,0,.2,0,.39-.45.47-.73a7,7,0,0,0,.39-1.85c0-7-.13-14-.08-21.05,0-4.45-1.86-7.22-6.28-8.17a1.34,1.34,0,0,1-.66-.58,7.28,7.28,0,0,1,1.07-1.44,1.37,1.37,0,0,1,.89-.3c4.15,0,8.29,0,12.44,0,1.19,0,2.31.83,2.24,1.42-.14,1.09-1,1.38-1.79,1.76a5.09,5.09,0,0,0-3.06,4.5c-.17,2.86-.29,5.73-.3,8.6,0,8.61,0,17.23,0,25.84a45.6,45.6,0,0,1-.19,5.73,4.48,4.48,0,0,1-1.38,2.32c-.62.6-2.46-.06-3.35-1-.65-.7-1.33-1.38-1.93-2.12l-19.94-24.49a34,34,0,0,0-3.09-3.65c-1.5-1.39-2.27-4.55-5-3.37-1.94.84-1,3.4-1,5.2-.13,2.87,0,5.74,0,8.61Z"/><path class="cls-6" d="M2203,664.44c2.23,0,4.47-.13,6.69,0a56.31,56.31,0,0,1,8.52,1c11.26,2.62,12.11,15.12,6.27,21a8.61,8.61,0,0,1-.68.67c-5.58,4.51-4.8,4.67-1.44,10,3.74,5.94,7.67,11.7,13.27,16.1.15.12.08.64,0,.93a1,1,0,0,1-.53.61,5.6,5.6,0,0,1-1.83.42,13.38,13.38,0,0,1-10.84-5.14c-2.18-2.73-4-5.74-6-8.65-1.23-1.85-2.32-3.81-3.61-5.62a5.7,5.7,0,0,0-4.13-2.11c-2.18-.29-3.92.94-4,3-.12,2.86-.07,5.73-.18,8.59-.15,3.68,1.35,6.09,5.06,7,.25.06.5.42.62.7a1.47,1.47,0,0,1,0,.88c-.07.26-.24.66-.43.7a61.88,61.88,0,0,1-17,0c-.18,0-.33-.44-.39-.7s-.17-.75,0-.9a4,4,0,0,1,1.5-1.12,4.33,4.33,0,0,0,3.24-4.2c.1-1.91.15-3.82.16-5.73q0-11.94,0-23.89c0-1.59,0-3.18-.08-4.78-.06-2.8-1.17-4.87-4-5.86-.43-.16-.74-.81-1-1.3s1.1-1.39,2.2-1.45,1.9-.12,2.86-.13c1.91,0,3.82,0,5.74,0Zm17.12,14.1c0-3.23-.73-6.28-3.47-8.43a11,11,0,0,0-8-2.39c-2,.2-3.82,1.67-3.87,3.55-.14,4.47-.18,8.93-.21,13.4,0,5.35,1.13,6,6.34,5.4A10.51,10.51,0,0,0,2220.11,678.54Z"/><path class="cls-6" d="M2267,715.05c-2.54,0-5.09,0-7.63,0-2.22,0-3.26-.65-2.94-1.59a2.48,2.48,0,0,1,1.91-1.76,4.52,4.52,0,0,0,3.72-4.82c0-10.81,0-21.62.12-32.43,0-3.57-1.21-6.11-4.5-7.58-.24-.11-.56-.59-.51-.66.35-.49.76-1.27,1.21-1.31,10.16-.9,20.36-1.06,30.39.94,10.28,2,17,10.6,17.25,21.17.35,13.35-7.16,23.29-20.06,26.53a44.16,44.16,0,0,1-11.32,1.51c-2.55,0-5.09,0-7.64,0Zm9.84-3.5a39.59,39.59,0,0,0,4.7-.31c5.59-1,10.35-3.58,13.06-8.77,4.23-8.11,4.83-16.46.78-24.87a14.3,14.3,0,0,0-5.7-6.32,24.35,24.35,0,0,0-16.56-3.38,4.42,4.42,0,0,0-3.27,3.15,23,23,0,0,0-.3,2.85q0,14.86,0,29.72a24.49,24.49,0,0,0,.39,3.81,5.37,5.37,0,0,0,4,3.74C2274.84,711.31,2275.79,711.42,2276.83,711.55Z"/><path class="cls-6" d="M2069,664.61c3.19,0,6.39-.11,9.57,0a25.31,25.31,0,0,1,5.65,1c10.66,3.1,10.87,14.73,6.46,20a19.69,19.69,0,0,1-2.69,2.71c-3.75,3-3.34,4.07-.84,8,3.78,5.9,7.4,11.94,13.21,16.21.41.3.53,1.1.61,1.69s-1.18,1.13-2.28,1.1a14.09,14.09,0,0,1-11.46-5.94c-1.9-2.56-3.57-5.28-5.35-7.93-1.24-1.85-2.42-3.74-3.73-5.55a5.51,5.51,0,0,0-5-2.1c-1.24.05-2.75,1.13-2.77,2.16-.08,3.82-.2,7.64-.12,11.45,0,2.09,1.29,3.35,3.28,4.21,2.6,1.12,2.86,1.68,2.25,2.42-.94,1.14-2.18,1-3.4,1q-5.26,0-10.53,0c-1,0-1.89-.21-2.84-.27s-1.2-.44-1-1.28c0-.28,0-.65.2-.82a5,5,0,0,1,1.5-1.11c2.06-.83,2.81-2.45,3-4.49.07-1,.12-1.91.12-2.86q0-14.84,0-29.66a22.88,22.88,0,0,0-.18-2.86,5.46,5.46,0,0,0-2.57-3.82c-.85-.58-2.9-.39-2-2.28.62-1.31,2.16-1.1,3.39-1.13,2.55-.06,5.1,0,7.65,0Zm1.17,14.53h.06c0,2.86,0,5.72,0,8.58a1.47,1.47,0,0,0,.28.89c.37.46.78,1.12,1.27,1.22,7.5,1.57,13.64-3.1,13.84-10.43.09-3.3-.46-6.35-3-8.7a11,11,0,0,0-7.8-3c-2.55,0-4.51,1.5-4.61,3.84C2070.1,674,2070.18,676.59,2070.18,679.14Z"/><path class="cls-6" d="M1288,664.61c3.19,0,6.38-.11,9.56,0a24.74,24.74,0,0,1,5.66,1c10.65,3.1,10.86,14.74,6.42,20a20.87,20.87,0,0,1-2.69,2.71c-3.66,3-3.37,3.95-.79,8,3.59,5.65,7.15,11.34,12.42,15.69.56.46.59,1.68.63,2.56,0,.16-1.1.54-1.7.55a12.8,12.8,0,0,1-10.8-5.19c-2-2.5-3.65-5.22-5.44-7.86-1.44-2.11-2.77-4.28-4.27-6.34-1.24-1.7-3.11-2.07-5.11-2-1.11.06-2.59,1.3-2.61,2.34-.06,3.82-.15,7.64,0,11.46.06,2.13,1.38,3.45,3.45,4a3.12,3.12,0,0,1,1.61.89,3,3,0,0,1,.33,1.68c0,.17-.44.47-.7.49a77.77,77.77,0,0,1-17.12,0c-.22,0-.59-.4-.56-.56.09-.58.15-1.35.54-1.66a13.2,13.2,0,0,1,2.51-1.29,3.63,3.63,0,0,0,2.11-2.95,32.57,32.57,0,0,0,.29-3.81q0-14.83,0-29.67c0-.64,0-1.28-.08-1.91a5.5,5.5,0,0,0-3.4-5.28c-.71-.32-1.92-.58-1.26-1.89a2.42,2.42,0,0,1,2.43-1.12c2.87,0,5.75,0,8.62,0Zm.88,14.69c.13,3,.24,5.87.39,8.72.06,1,1.53,2.09,2.73,2.12,10.22.33,14-6.89,12.25-14.83a8.69,8.69,0,0,0-1.64-3.39,10.35,10.35,0,0,0-10.08-4.11,3.91,3.91,0,0,0-3.21,3.06C1289.14,673.73,1289,676.58,1288.9,679.3Z"/><path class="cls-6" d="M2017.51,690.16c0-5.43,0-10.87,0-16.29,0-3.09-1.08-5.63-4.34-6.7a1.27,1.27,0,0,1-.66-.67,1.17,1.17,0,0,1,.09-.81c.12-.27.28-.63.52-.72a5.38,5.38,0,0,1,1.83-.47q13.42-.07,26.84-.09c.64,0,1.27.12,1.9.18,1.1.12,2.63,1.37,2.69,2.39.13,2.53.18,5.07.21,7.61a1,1,0,0,1-1.25,1.07c-.57-.14-1.43-.39-1.56-.78-1.85-5.58-6.07-7-11.34-6.54-.32,0-.64,0-1,0-5,.11-6.13,1.25-6.25,6.3-.06,2.87,0,5.75.13,8.62.08,2,1.61,3.33,3.83,3.45,1.28.06,2.56.08,3.84.09,3.1,0,5.66-.8,6.89-4,.15-.4,1-.58,1.53-.77.71-.24,1.43.72,1.46,2,.06,2.87.09,5.74.11,8.61a5.69,5.69,0,0,1-.15,1.9,2.25,2.25,0,0,1-1.06,1.36,1.83,1.83,0,0,1-1.64-.41c-.59-.71-.75-1.81-1.4-2.44a7.3,7.3,0,0,0-3.07-2.09,17.88,17.88,0,0,0-8.54,0c-.53.13-1,.79-1.36,1.26a1.83,1.83,0,0,0-.27.91,58.56,58.56,0,0,0,.06,14.31,4.46,4.46,0,0,0,3.81,3.74c3.19.09,6.39.1,9.58.08a6.7,6.7,0,0,0,5-2.52c1.66-1.88,3.19-3.89,4.83-5.8.13-.15.64-.08.92,0a1.26,1.26,0,0,1,.55.59,1.54,1.54,0,0,1,.21.91c-.7,2.76-1.33,5.56-2.21,8.27a3.14,3.14,0,0,1-3,2.09c-4.47.11-8.94.22-13.41.18-6.38-.06-12.75-.25-19.13-.41-.25,0-.73-.3-.72-.42a3.09,3.09,0,0,1,.4-1.67,3.45,3.45,0,0,1,1.62-.93,4.29,4.29,0,0,0,3.27-4.23c.14-5.75,0-11.5,0-17.24Z"/><path class="cls-6" d="M2183.55,690.76a44,44,0,0,1-1.05,6.78c-3.46,11.63-12.14,18.41-25,18.42a25.28,25.28,0,0,1-24.74-30.57c1.59-7.89,5.32-14.24,12.46-18.42,12.78-7.5,31.42-2.61,37,13.56a17.7,17.7,0,0,1,.91,3.7C2183.37,686.13,2183.4,688.05,2183.55,690.76Zm-8.13.73a31,31,0,0,0-2.53-13.06c-1.85-4.61-4.92-8.46-9.53-10.22-6.28-2.39-14.55-1.81-19.12,6.13-4.45,7.71-4,15.86-1.84,24a23.38,23.38,0,0,0,3.34,6.82c3.72,5.51,9.06,7.73,15.66,7a13.43,13.43,0,0,0,11.6-8.69A27.29,27.29,0,0,0,2175.42,691.49Z"/><path class="cls-6" d="M2464.07,691c2.22.13,4.45.21,6.67.45.5.05,1,.63,1.41,1.05s.37,1.12-.34,1.57a5.46,5.46,0,0,0-2.63,4.79c-.08,3.83-.1,7.65-.18,11.48a3.39,3.39,0,0,1-2.72,3.42,44.13,44.13,0,0,1-21.72,1.6c-11.62-1.94-19.9-11-21-22.85a25.48,25.48,0,0,1,18-27.19,42.65,42.65,0,0,1,24.52,0,3.14,3.14,0,0,1,2.45,2.65c.26,2.83.32,5.68.42,8.53,0,.26-.25.77-.4.78-.59,0-1.48.09-1.72-.24-1.1-1.53-2-3.23-3-4.81a10.82,10.82,0,0,0-7-4.57,25.48,25.48,0,0,0-10.47-.12,16.09,16.09,0,0,0-12.73,11.72c-2.29,7.83-2.06,15.72,1.74,23.27,4.7,9.35,15.59,11.54,22.89,9a4.76,4.76,0,0,0,3.31-4.25c.11-2.86.14-5.73,0-8.59a4.33,4.33,0,0,0-3.35-4.15,8.19,8.19,0,0,1-1.82-.55,3.63,3.63,0,0,1-1.11-1.25c-.32-.51,1-1.51,2.11-1.52,2.23,0,4.46,0,6.69,0Z"/><path class="cls-6" d="M2331,715.06c-4.48,0-8.95,0-13.42,0-3.22,0-4.29-.5-3.95-1.57.47-1.48,1.7-1.7,2.86-2a4.2,4.2,0,0,0,3.19-4.24c.15-2.87.17-5.74.17-8.62,0-8.3-.06-16.6,0-24.9,0-3.23-1.32-5.47-4.3-6.73-.85-.36-.9-.9-.23-1.49.23-.2.41-.51.67-.59a6.34,6.34,0,0,1,1.86-.37q12.95-.09,25.88-.09a9.25,9.25,0,0,1,2.81.47,2.25,2.25,0,0,1,1.38,1.16c.84,3.06,1.54,6.16.6,9.34-.06.21-.5.43-.76.43-1.27,0-.08,1-.82,0a46.9,46.9,0,0,1-2.62-4,5.63,5.63,0,0,0-4.57-3.08c-3.17-.22-6.36-.14-9.54-.12a3.73,3.73,0,0,0-2.64,2.45,50.56,50.56,0,0,0,0,13.35,2.76,2.76,0,0,0,1.78,1.9,62.1,62.1,0,0,0,7.6.38,4.56,4.56,0,0,0,4.44-3,4,4,0,0,1,1-1.58,2.81,2.81,0,0,1,1.6-.36.92.92,0,0,1,.69.56,29.94,29.94,0,0,1-.11,13.22c-.06.23-.48.45-.77.53a1.4,1.4,0,0,1-.84-.13,1.44,1.44,0,0,1-.72-.57c-1.72-4.34-5.22-5.19-9.36-4.83-1,.09-1.91.09-2.87.16a2.58,2.58,0,0,0-2.58,2.32c-.05,4.78-.09,9.56,0,14.34a4.27,4.27,0,0,0,3.65,3.83,8,8,0,0,0,1,.12c3.83.06,7.75.74,11.41-.58s4.56-5.2,7.05-7.62c.32-.31,1.12-.19,1.68-.13.16,0,.32.51.4.81a2.65,2.65,0,0,1,.07.93,17.28,17.28,0,0,1-.3,1.89c-2,8.95-2.4,8.43-10.84,8.46-3.52,0-7,0-10.54,0Z"/><path class="cls-6" d="M1703.87,684.79c0-2.87-.13-5.74,0-8.6.25-4.66-1.25-8.05-6.07-9.39-.22-.06-.55-.59-.49-.67.34-.48.74-1.24,1.19-1.3a46.76,46.76,0,0,1,14.22.09c.24,0,.44.38.64.6.6.66.5,1.2-.33,1.51-3.48,1.32-4.67,4.05-4.7,7.52s0,7-.16,10.52c-.14,4.46-.3,8.91-.61,13.36a23.14,23.14,0,0,1-1,5.61c-2.18,6.71-6.85,10.62-13.87,11.41a40.25,40.25,0,0,1-8.57,0c-8.37-.89-13.92-6.45-14.94-14.86a71.78,71.78,0,0,1-.31-7.63c-.06-4.46,0-8.92-.08-13.38,0-1.28-.24-2.55-.22-3.82,0-4.11-1.11-7.47-5.24-9.19-.13-.05-.18-.51-.13-.75a1.59,1.59,0,0,1,.43-.82,1.45,1.45,0,0,1,.88-.35c5.08,0,10.16,0,15.24.1.44,0,1.09.69,1.22,1.18a1.57,1.57,0,0,1-.83,1.29c-2.88.93-4,3.1-4,5.84q-.11,11.48,0,22.94a21.68,21.68,0,0,0,.68,4.72c1.8,7.73,8.6,11,15.07,10.28s10.44-4.6,11.51-11a58.5,58.5,0,0,0,.54-7.61c.09-2.55,0-5.1,0-7.65Z"/><path class="cls-6" d="M1531.36,715.23c-5.1-.17-10.2-.31-15.29-.56-.34,0-.69-.85-.92-1.36-.06-.15.22-.59.44-.71a24.72,24.72,0,0,1,2.55-1.21c1.61-.64,2.84-1.75,2.85-3.48.1-11.81.11-23.62.11-35.43,0-3-2.37-4.29-4.34-5.86a.82.82,0,0,1-.11-.73,1.84,1.84,0,0,1,.53-.78,1.54,1.54,0,0,1,.85-.36c9.58-.07,19.15-.15,28.73-.16a3.06,3.06,0,0,1,3.06,3c.15,2.53.79,5.08-.23,7.56-.08.2-.43.36-.68.42s-.8.13-.91,0q-1.38-1.92-2.64-3.92a6.37,6.37,0,0,0-4.64-3,19.5,19.5,0,0,0-2.86-.27c-8.63-.13-9.35.12-9.22,8.95,0,2.54.25,5.09.53,7.62a2,2,0,0,0,1.25,1.31c3.46.88,7,1.21,10.29-.39,1.28-.62,2-2.38,3.07-3.48.35-.35,1.16-.3,1.76-.31.13,0,.35.52.39.82a39.16,39.16,0,0,1-.06,12.32,1,1,0,0,1-.58.61,1.51,1.51,0,0,1-.94,0,1.3,1.3,0,0,1-.75-.55c-1.92-4.09-5.35-5.12-9.48-4.73a24.88,24.88,0,0,0-3.78.48,2,2,0,0,0-1.23,1.33,49.92,49.92,0,0,0,.15,16.18,3.87,3.87,0,0,0,2.65,2.49,21,21,0,0,0,2.84.34c12.18.07,10.37.71,16.63-7.88a1.51,1.51,0,0,1,.78-.46,1.55,1.55,0,0,1,.95,0,1,1,0,0,1,.47.69c.56,3.66-.71,6.89-2.5,9.95a2.48,2.48,0,0,1-1.53,1,20.22,20.22,0,0,1-3.8.37c-4.8,0-9.59,0-14.39,0Z"/><path class="cls-6" d="M1980.3,664.62c7.55-.22,14.88-.46,22.22-.6a1.91,1.91,0,0,1,1.49,1,19.8,19.8,0,0,1,.31,10.36c0,.16-.47.28-.73.31s-.78.07-.88-.09c-.86-1.32-1.64-2.69-2.44-4a5.77,5.77,0,0,0-4.65-3,38.94,38.94,0,0,0-5.71.14,3.58,3.58,0,0,0-2.68,2.41,24.38,24.38,0,0,0-.47,3.79q-.06,14.85,0,29.71a18.17,18.17,0,0,0,.2,2.86c.33,2,1.23,3.56,3.43,4.08a10.65,10.65,0,0,1,2.55,1.17c.17.09.2.54.2.83s-.09.76-.25.8c-3.17.92-14.49,1-19,.1-.16,0-.3-.44-.35-.7a1.59,1.59,0,0,1,0-.92,1.26,1.26,0,0,1,.73-.59,5.92,5.92,0,0,0,4.76-6.27q0-16.29,0-32.58a12.08,12.08,0,0,0-.31-1.88,3.7,3.7,0,0,0-2.45-2.66,21,21,0,0,0-2.82-.47c-3.84-.23-6.89,1-8.47,4.8a11.1,11.1,0,0,1-1.56,2.34c-.15.19-.53.23-.82.29-.83.2-1.21-.14-1.31-1a24,24,0,0,1,.76-9.46,2.92,2.92,0,0,1,2.2-1.53Z"/><path class="cls-6" d="M1262.41,715.25c-2.52-.23-5.05-.42-7.55-.77-.29,0-.52-1-.64-1.55,0-.21.3-.58.55-.74,2.23-1.45,2.63-3.42,1.74-5.8-.79-2.08-1.51-4.19-2.35-6.25a5,5,0,0,0-4.48-3,24.28,24.28,0,0,0-3.81-.14c-2.82.13-6.07-.87-8.26,1.32-2.76,2.76-3.73,6.57-4,10.43a3.62,3.62,0,0,0,1.27,2.35,11.56,11.56,0,0,0,2.49,1.32,1,1,0,0,1,.43,1.64c-.14.23-.35.56-.57.59a50.93,50.93,0,0,1-14.22.1,1.22,1.22,0,0,1-.69-.53c-.44-.63-.41-1.47.26-1.69,4-1.32,5.91-4.45,7.33-8.14q5.85-15.15,11.87-30.23c1.18-3,2.52-5.83,3.9-8.7a2.14,2.14,0,0,1,1.56-.87,2.12,2.12,0,0,1,1.59.65,8.82,8.82,0,0,1,1.45,2.46c.93,2.36,1.77,4.77,2.64,7.16,3.61,9.87,7.28,19.72,10.8,29.61,1.22,3.44,2.78,6.41,6.39,7.86.31.12.52,1.14.36,1.59a1.84,1.84,0,0,1-1.34,1c-2.22.11-4.45,0-6.68,0ZM1245,693.85c1-.11,2.55-.25,4.11-.46a2.9,2.9,0,0,0,1.85-2.93,62.15,62.15,0,0,0-4.56-13.38c-.09-.21-.51-.5-.65-.44-.55.24-1.35.49-1.53.94q-2.45,6.15-4.68,12.37c-.69,1.93.71,3.6,3,3.75Z"/><path class="cls-6" d="M1592.07,663.6c1.14.14,4,.29,6.83.85,4.28.86,4.61,1.63,5.15,5.69.21,1.58.42,3.16.61,4.74.12,1-.8,2.39-1.41,2.19a3.06,3.06,0,0,1-1.49-.83c-.7-1-1.21-2.24-1.81-3.36a10.11,10.11,0,0,0-7.57-5.31,39.13,39.13,0,0,0-6.68-.43c-9.24,0-15.08,7.43-16.49,13.52a36.25,36.25,0,0,0,.35,18,19.52,19.52,0,0,0,8.38,11.29c2.5,1.68,5.34,2.09,8.2,2.32,5.75.47,10.76-.9,14.18-6.06a23.76,23.76,0,0,1,3.15-3.44c.15-.16.65-.11.92,0a1.32,1.32,0,0,1,.55.67,1.39,1.39,0,0,1,.2.88c-.92,2.71-1.8,5.42-2.86,8.07a3.9,3.9,0,0,1-3,2.25c-6.29,1.27-12.63,2.05-19,.68-9.46-2-16.41-7.25-19.37-16.6-4.14-13,.76-27.8,16.2-33.27C1581.84,663.8,1584.32,663.48,1592.07,663.6Z"/><path class="cls-6" d="M1367.93,673.46c-.06.65-.11,1.59-.24,2.52,0,.28-.33.77-.46.75-.59-.06-1.4-.09-1.68-.47-1-1.26-1.63-2.72-2.57-4a11.35,11.35,0,0,0-8-4.79,42.5,42.5,0,0,0-6.67-.29,15.42,15.42,0,0,0-14.26,9.62,29.3,29.3,0,0,0,.24,25c3.26,7.16,9,10.52,16.73,10.54,5.06,0,9.4-1.46,12.45-5.8a30.46,30.46,0,0,1,3-3.68c.25-.25,1.11,0,1.64.14a1,1,0,0,1,.45.79,7.44,7.44,0,0,1-.29,1.88c-2.67,8.83-2.79,8.86-11.62,9.85a45.54,45.54,0,0,1-11.43,0c-20.07-2.79-26.71-23.15-19.42-37.63a24.42,24.42,0,0,1,13.25-11.86,30.92,30.92,0,0,1,12.11-2.5c4.47.09,8.94,0,13.26,1.42a4,4,0,0,1,2.89,3.43C1367.59,670,1367.72,671.58,1367.93,673.46Z"/><path class="cls-6" d="M1490.29,690.05c0,5.42,0,10.83,0,16.24,0,2.85,1.14,4.85,4.2,5.51.76.16,1.4,1,2,1.61.13.14,0,.67-.13.9a1.18,1.18,0,0,1-.8.43,95.69,95.69,0,0,1-18.07-.07,1.08,1.08,0,0,1-.66-.5,1.06,1.06,0,0,1,.35-1.63,27.1,27.1,0,0,1,2.58-1.16,4.27,4.27,0,0,0,2.83-3.51,19.45,19.45,0,0,0,.24-2.85q0-15.28,0-30.57a10.89,10.89,0,0,0-.52-3.74,3.08,3.08,0,0,0-1.91-1.83,29.16,29.16,0,0,0-6.6-.15,5.35,5.35,0,0,0-4.48,3.14,20.44,20.44,0,0,1-1.92,3.3,2.37,2.37,0,0,1-1.56.7c-.76.1-1.16-.41-1.23-1.17a28.88,28.88,0,0,1,.85-9.44,2.4,2.4,0,0,1,2.24-1.42,281.73,281.73,0,0,0,37.21.13c.79,0,2.17.49,2.33,1a22.93,22.93,0,0,1,.85,10.31,1.49,1.49,0,0,1-.56.68,1,1,0,0,1-1.64-.24c-.78-1.37-1.49-2.78-2.26-4.16a5.78,5.78,0,0,0-4.63-3,34.22,34.22,0,0,0-4.75-.1c-2.25.09-3.67,1.37-3.83,3.42-.13,1.58-.23,3.17-.25,4.76,0,4.46,0,8.92,0,13.37Z"/><path class="cls-6" d="M1637.84,690.32c0,5.43,0,10.86,0,16.29,0,2.94,1.39,4.79,4.43,5.27a3.94,3.94,0,0,1,1.6.94c.17.14.16.57.13.85a1.36,1.36,0,0,1-.31.78,1.32,1.32,0,0,1-.84.43c-5.74,0-11.49,0-17.23,0-.81,0-1.32-.41-1.2-1.12a2.56,2.56,0,0,1,.77-1.5,5.21,5.21,0,0,1,1.74-.73,4.81,4.81,0,0,0,3.29-4.28,24.44,24.44,0,0,0,.26-3.82q0-14.39,0-28.76a11.8,11.8,0,0,0-.45-3.76,3.43,3.43,0,0,0-1.86-2,12.57,12.57,0,0,0-8.45.16,5.2,5.2,0,0,0-2.24,1.66c-1.13,1.52-2,3.24-3.1,4.76-.24.32-1.12.21-1.7.17-.16,0-.43-.49-.42-.74.13-2.85.24-5.7.5-8.54.17-1.86,1.35-2.65,3.3-2.5a277.23,277.23,0,0,0,35.42.08c3-.16,4,.64,4,3.8.07,2.52.69,5.1-.34,7.57-.07.18-.45.29-.7.32s-.77.07-.9-.09a9,9,0,0,1-1.57-2.37c-1.26-3.55-3.94-4.82-7.44-4.82a32.63,32.63,0,0,0-3.81.32,3.57,3.57,0,0,0-2.6,2.48,47.59,47.59,0,0,0-.42,4.75c-.06,4.8,0,9.59,0,14.38Z"/><path class="cls-6" d="M2379.14,663.75a22.77,22.77,0,0,1,3.63.54c1.93.46,3.61,1.44,3.88,3.69s.44,4.41.61,6.62c0,.27-.24.77-.43.81-.54.09-1.43.22-1.63,0-1.12-1.54-2-3.26-3.1-4.8-2.52-3.5-8.19-4.62-12.06-2.43a4.6,4.6,0,0,0-1.43,1.24,9.52,9.52,0,0,0,.68,11.49,28,28,0,0,0,7.84,5.41,32.56,32.56,0,0,1,8.56,6.05,12.63,12.63,0,0,1,3.36,5.7,13.28,13.28,0,0,1-5.11,14.38,18.6,18.6,0,0,1-11.7,3.53,38.78,38.78,0,0,1-7.56-1.06c-2.66-.59-4.62-2.09-5-5.06-.26-1.89-.65-3.76-.82-5.66,0-.45.52-1.06,1-1.42a1.07,1.07,0,0,1,1.68.34c1.25,1.84,2.38,3.78,3.77,5.5,2.84,3.53,7.59,4.66,12.16,3.09a6.33,6.33,0,0,0,4-3.89,9.92,9.92,0,0,0-3.3-11.95c-1.78-1.33-3.8-2.34-5.66-3.56a73.09,73.09,0,0,1-7.88-5.4c-6-5.24-5.86-14,.16-19.34C2368.21,664.36,2372.45,663.32,2379.14,663.75Z"/><path class="cls-6" d="M894.33,774.77l5.13.08c.11,3.17.3,6.33.31,9.5q.15,49,.24,98c0,3.15-.31,6.31-.48,9.46l-5.13.16c-.19-1.89-.55-3.77-.55-5.66q.07-53.85.24-107.71C894.09,777.31,894.25,776,894.33,774.77Z"/><path class="cls-6" d="M6.51,731.09c.1,3.17.28,6.34.29,9.51q.13,43.8.21,87.61c0,3.16-.27,6.33-.41,9.49l-5,.4c-.2-2.2-.57-4.4-.56-6.6q.13-50.43.37-100.87Z"/><path class="cls-6" d="M2114.87,715.16c-2.53-.11-5.07-.18-7.6-.4a1.63,1.63,0,0,1-1.1-1.13,2.18,2.18,0,0,1,.77-1.48,6.45,6.45,0,0,1,1.68-.84,3.6,3.6,0,0,0,2.11-2.93,26.71,26.71,0,0,0,.36-3.78c0-9.86-.07-19.72,0-29.58.05-3.89-1.14-6.78-4.92-8.28-.16-.06-.29-.47-.26-.69a1.68,1.68,0,0,1,.42-.84,1.48,1.48,0,0,1,.81-.42,66.87,66.87,0,0,1,16.12.06c.25,0,.46.38.66.59a.89.89,0,0,1-.27,1.55,24.09,24.09,0,0,0-2.56,1.22,5.75,5.75,0,0,0-2.54,3.87,28.31,28.31,0,0,0-.24,3.8q0,13.83,0,27.67c0,.31.05.63,0,1-.33,4,1.41,6.65,5.24,8,.68.24.8.95.42,1.63a1.21,1.21,0,0,1-.63.55,7,7,0,0,1-1.84.38c-2.23,0-4.46,0-6.68,0Z"/><path class="cls-6" d="M1884.73,715.28c-2.88-.25-5.71-.48-8.54-.77-.15,0-.32-.44-.39-.7s-.22-.78-.08-.89a13.68,13.68,0,0,1,2.3-1.63,4,4,0,0,0,2.17-2.9,14.35,14.35,0,0,0,.37-2.83q0-15.72,0-31.44c0-.32,0-.64,0-1-.08-2.79-1.13-4.89-4-5.85-.45-.15-1-.88-1-1.24a1.81,1.81,0,0,1,1.17-1.23,63.33,63.33,0,0,1,16.1,0c.24,0,.46.36.66.57a.9.9,0,0,1-.26,1.57,27.18,27.18,0,0,0-2.55,1.22,5.56,5.56,0,0,0-2.55,3.85,32,32,0,0,0-.23,3.8q0,14.28,0,28.58c0,1,0,1.91.12,2.86a4.56,4.56,0,0,0,3.23,4.24,9.69,9.69,0,0,1,2.36,1.45c.14.1.06.59,0,.87s-.27.66-.45.68C1890.37,714.81,1887.54,715,1884.73,715.28Z"/><path class="cls-6" d="M1447.52,714.87c-2.54,0-5.08,0-7.61,0a1.7,1.7,0,0,1-1.15-1.15,2.05,2.05,0,0,1,.71-1.52,5.33,5.33,0,0,1,1.73-.76,4.58,4.58,0,0,0,2.82-3.55,8,8,0,0,0,.26-1.88c0-10.8.07-21.61,0-32.42a5.88,5.88,0,0,0-3.94-5.92,5.94,5.94,0,0,1-1.54-1,.91.91,0,0,1-.21-.76,1.24,1.24,0,0,1,.46-.8,4.67,4.67,0,0,1,1.79-.53c4.45,0,8.9,0,13.35,0a2.49,2.49,0,0,1,2.42,1.11c.76,1.38-.57,1.59-1.26,1.86a5.38,5.38,0,0,0-3.57,5.12c-.08.95-.13,1.91-.14,2.86,0,1.9,0,3.81,0,5.72,0,7,0,14,0,21,0,1.59,0,3.18.12,4.76a4.93,4.93,0,0,0,3.61,5c1.37.46,1.85,1.72,1.27,2.13s-1,.83-1.5.85c-2.54.08-5.09,0-7.63,0Z"/><path class="cls-5" d="M6.51,731.09l-5.06-.46c-.12-2.55-.34-5.09-.33-7.64q.1-41.18.26-82.35l5.38,0c.12,2.21.34,4.43.35,6.65q.1,37.66.14,75.33C7.25,725.44,7.48,728.32,6.51,731.09Z"/><path class="cls-10" d="M6.38,481l-4.74.32Q1.49,456.63,1.35,432q-.09-15.66-.07-31.31c0-3.16.23-6.31.36-9.47l4.58-.13a43.58,43.58,0,0,1,.72,5.66q0,40.23-.16,80.47A34.72,34.72,0,0,1,6.38,481Z"/><path class="cls-6" d="M2406.81,715.24c-2.85-.2-5.69-.39-8.53-.63-.22,0-.58-.36-.57-.54a3,3,0,0,1,.35-1.65,4.12,4.12,0,0,1,1.55-1,4.32,4.32,0,0,0,2.55-3.73,22.62,22.62,0,0,0,.2-2.85q0-15.28,0-30.56c0-.32,0-.64,0-1-.05-2.79-1.06-4.91-3.87-5.94-.46-.16-1.07-.88-1-1.23a1.84,1.84,0,0,1,1.17-1.25,51.83,51.83,0,0,1,15.18.07c.25,0,.45.38.67.57.71.61.63,1.09-.22,1.49-.28.13-.5.39-.79.5a5.23,5.23,0,0,0-3.63,5.07c0,.64-.08,1.27-.08,1.91,0,10.19,0,20.37,0,30.56,0,3.53.84,6.27,4.81,7.05.4.08.7.91.94,1.43.32.7-.66,1.42-2,1.48-.64,0-1.27.07-1.91.07h-4.78Z"/><path class="cls-1" d="M66.58,66.4c-2.54.15-5.07.44-7.61.44q-28.68,0-57.36,0A8.74,8.74,0,0,1,4,65.45a25.7,25.7,0,0,1,4.73-.31q25.71,0,51.43,0C62.4,65.13,64.67,64.88,66.58,66.4Z"/><path class="cls-6" d="M1839.36,700.05c-2.2-.15-4.4-.28-6.6-.45-.63,0-1.79-1.41-1.57-2.07.27-.83.73-2.1,1.34-2.24a33.81,33.81,0,0,1,14.88-.08c.45.1.9.84,1.09,1.37a2,2,0,0,1-.84,2.42,3.48,3.48,0,0,1-1.68.72c-2.2.08-4.41,0-6.61,0C1839.36,699.85,1839.36,700,1839.36,700.05Z"/><path class="cls-5" d="M1.64,838.1l5-.4a2.08,2.08,0,0,1-1.82,1.81A2.8,2.8,0,0,1,1.64,838.1Z"/><path class="cls-11" d="M130.63,130.87c4.11-.94,8.28-.58,12.42-.58H823c3.51,0,7,.1,10.54.22a3.17,3.17,0,0,1,3,3.13c.09,3.51.15,7,.15,10.54q0,273.17,0,546.32,0,36.9,0,73.81c0,3.5-.19,7-.28,10.52-4.47.13-8.94.38-13.41.38H185q-22.54,0-45.09,0c-2.22,0-4.45-.18-6.68-.35a3.1,3.1,0,0,1-2.42-2.6c-.09-1-.23-1.91-.24-2.86,0-2.56,0-5.12,0-7.67V142.37C130.56,138.54,130.61,134.7,130.63,130.87ZM519.55,423.59a1.67,1.67,0,0,0,1.29-1.92l1-3.37.34.06,1.53-2.05c4.46-7.38,9-14.73,13.37-22.14q7.59-12.78,15-25.65a5.23,5.23,0,0,1,4.62-2.86c3.2-.1,6.4-.11,9.59-.11H721.75c2.88,0,5.76-.05,8.63-.2a5,5,0,0,0,4.1-2.16c4.68-7.24,9.3-14.53,13.93-21.81.42-.66-.4-2.1-1.2-2.12-3.19-.1-6.38-.27-9.56-.27q-53.25,0-106.5,0-39.35,0-78.68,0c-3.19,0-6.39.1-9.58.32a8,8,0,0,0-5.72,3.15,34.46,34.46,0,0,0-2.69,4q-17.87,30.09-35.66,60.21c-1.78,3-3.84,5.91-4.68,9.4a58.45,58.45,0,0,0-4.07,5.14c-2.67,4.26-5.29,8.57-7.68,13-3,5.52-6.95,10.52-9,16.56-5.71,7.52-10.32,15.72-14.79,24a2.8,2.8,0,0,0-.11.93l-2.32,3.3.07-.09c-.55,1.05-1.1,2.1-1.66,3.15a8.48,8.48,0,0,0-4.24,7.1l-1.51,2.48a5.44,5.44,0,0,0-3.12,5.29,1.91,1.91,0,0,0-.93,1.2V498c-.56,1.1-1.12,2.21-1.69,3.31a2.73,2.73,0,0,0-1.75,3l-2.09,3.52c-1.4.2-1.53,1.14-1.33,2.28a.85.85,0,0,0-.53.91,2.53,2.53,0,0,0-1.68,3l-.38.71-.62.24.16.6c-.63,1.17-1.25,2.35-1.88,3.53a3,3,0,0,0-1.62,2.53,5.42,5.42,0,0,0-2.11,3.79,4.26,4.26,0,0,0-2.22,3.38c-2.2,1.49-3.78,3.38-3.8,6.2a380.53,380.53,0,0,0-21,36.24,2.61,2.61,0,0,0-1.52,2.33l-.89,1.74c-2.45,1.67-3.84,4.16-5.26,6.66-1.25,2.21-2.61,4.36-3.94,6.52-3.16,5.14-6.37,10.25-9.46,15.43a30.83,30.83,0,0,0-2.36,5.2,7.61,7.61,0,0,0,.56,6.44c3.42,6.27,8.7,10.89,13.85,15.63a2.37,2.37,0,0,0,3.37-.43c2.39-3.75,4.77-7.51,7.06-11.32q11.07-18.37,22-36.81a33.48,33.48,0,0,0,2.05-5.27l1.46-2.14a2,2,0,0,0,1.5-2.16c1.34-2.17,2.73-4.31,4-6.51,4-6.88,8-13.78,11.94-20.67l.65-.25-.05-.66,1.38-2.54a1.13,1.13,0,0,0,1-1.41l1-2a2,2,0,0,0,1.33-2l.37-.6.7-.33,0-.74c1.9-2.44,3.75-4.91,4.41-8a2.07,2.07,0,0,0,.8-1.59,2.1,2.1,0,0,0,1.45-2.21L460,523l.77-.4,0-.85,1.23-2.2a1.47,1.47,0,0,0,1.22-1.75,276.81,276.81,0,0,0,16.12-27,1.73,1.73,0,0,0,1.26-2l.31-.59a3,3,0,0,0,1.87-3.16l.23-.42c.79-.19,1.16-.64.89-1.47l1-2.22a41.77,41.77,0,0,0,7.78-13,2.23,2.23,0,0,0,1.34-2.06,2.06,2.06,0,0,0,.66-1.47l1.59-2.44.14-.24a1.25,1.25,0,0,0,1-1.51c.31-.67.61-1.33.92-2,1.72-1,2.59-2.74,3.55-4.36q6.52-11,13-22.09c1.1-1.91,2-3.95,3-5.92a2.52,2.52,0,0,0,1.51-2.24Zm-148,96,.24-.42c.77-.12,1.05-.54.84-1.27.92-1.26,2-2.47,2.77-3.81,5.67-9.46,11.34-18.93,16.93-28.44,1.1-1.89,1.87-4,2.79-6,4.24-4.52,6.94-10,9.39-15.57a2.31,2.31,0,0,0,1.36-2.1l.46-.74.56-.18-.12-.52c.49-.89,1-1.78,1.48-2.68a1.2,1.2,0,0,0,1-1.47l.95-2a1.89,1.89,0,0,0,1.26-1.94,2.48,2.48,0,0,0,.73-1.58,2.81,2.81,0,0,0,1.53-2.37,1.35,1.35,0,0,0,.51-1.15,12.12,12.12,0,0,0,1.93-2q6.48-10.87,12.82-21.83a6.63,6.63,0,0,0,.48-1.8,1.59,1.59,0,0,0,1.21-1.68l.79-1.8a2.27,2.27,0,0,0,1.43-2.12,2.08,2.08,0,0,0,.62-1.49,46,46,0,0,0,3.48-4.45c4.73-7.9,9.34-15.86,14-23.78q18.93-32,37.89-63.87c.8-1.36,1.37-2.85,2-4.28a1.94,1.94,0,0,0,1.38-2,8.47,8.47,0,0,0,.66-1.69,2,2,0,0,0,1.39-2.1,7.7,7.7,0,0,0,.62-1.68,2.14,2.14,0,0,0,1.42-2.08l2.08-3.78a28.3,28.3,0,0,0,6.46-9.37c1.88-4.42,4.85-6.43,9.67-6,2.53.23,5.11,0,7.67,0H768.79c2.88,0,5.76,0,8.63,0a10.39,10.39,0,0,0,2.85-.31,4.64,4.64,0,0,0,2.44-1.37c2.12-3.14,5-5.86,5.77-9.81a26.76,26.76,0,0,0,3.24-3.42c1.76-2.66,3.3-5.47,4.92-8.22a2.22,2.22,0,0,0-1.9-3.39q-4.31-.16-8.63-.17h-280c-2.56,0-5.12,0-7.67.1a8.27,8.27,0,0,0-5.18,2.23c-3.24,2.74-6.28,7.61-8,12.74l-.21.24-1.34,1.55a5.67,5.67,0,0,0-.64.74.88.88,0,0,0-.86,1.14l-1,2.41L480,285.58c-3.9,4.57-6.35,10.06-9.48,15.11-.44.7-.17,1.83-.23,2.76l-.28,0c-.92,0-1.4.76-1.29,2.07a6.6,6.6,0,0,1-.64,1.34,2.18,2.18,0,0,0-1.59,2.12l-.26.38c-1,0-1.37.62-1.18,1.87-3.16,5.18-6.36,10.33-9.45,15.55Q440.71,351.87,425.89,377q-8.29,14-16.61,28a5.42,5.42,0,0,0-1.15,3.54,4.39,4.39,0,0,0-.69.67c-6,9.76-12.1,19.51-18.08,29.31a8.88,8.88,0,0,0-.66,2.74q-1.49,2-2.95,3.95c-.9,0-1.41.76-1.34,2-.27.52-.55,1-.83,1.56a1.86,1.86,0,0,0-1.37,2.06l-.27.45c-1.7.49-2.11,1.73-1.9,3.31l-.2.3c-.85,0-1.27.73-1.08,1.86-.3.56-.62,1.12-.94,1.67a1.76,1.76,0,0,0-1.35,2l-.29.48c-1.68.47-2.09,1.7-1.92,3.27l-.15.25a3.31,3.31,0,0,0-2,3.56L371,471.19a2,2,0,0,0-1,1.37l-.69.29.09.73-1.41,1.6V475l-1.8,3.76-.38,0,.28.2-1.71,2.95a9.19,9.19,0,0,0-4.34,7.26c-.49.81-1,1.61-1.48,2.41l-.71.41,0,.81a2.14,2.14,0,0,0-1,1.55c-2.66,1.35-3.18,4.27-4.72,6.44-1.21,1.72-2.51,3.45-2.46,5.73a.88.88,0,0,0-.58.93,2.2,2.2,0,0,0-1.6,2.72l-.37.7a17.83,17.83,0,0,0-6.25,10.9c-.49.83-1,1.66-1.45,2.49-2.52,1.24-3.4,3.73-4.41,6-2.27,5.16-1.57,10,2.19,14.22,3.2,3.53,6.72,6.78,10.15,10.11a2.49,2.49,0,0,0,4.05-.55c4.44-7.34,8.81-14.73,13.18-22.11.14-.24,0-.62.05-.94l1.31-2.28.78-.34,0-.82,1.21-2.19a1.5,1.5,0,0,0,1.24-1.75l.82-1.7A2.24,2.24,0,0,0,371.53,519.63Zm203.58-40.69a1.18,1.18,0,0,0,1.06-1.53q7.94-13.29,15.83-26.6a7.85,7.85,0,0,0,.55-1.78c2.76-1.93,3.64-5.16,5.39-7.79a3.86,3.86,0,0,1,3.14-1.89c2.87-.1,5.74-.16,8.61-.16h65.14c2.55,0,5.1,0,7.66,0a5.49,5.49,0,0,0,4.84-2.57c2.8-4.26,5.61-8.53,8.38-12.81,1.56-2.42,3-4.87,4.56-7.31,1.41-2.27.78-3.8-1.59-3.88-1.59-.05-3.19-.08-4.78-.08H595.24c-1.92,0-3.83,0-5.75.11a11.07,11.07,0,0,0-8.13,4.48,20.19,20.19,0,0,0-1.63,2.36c-3.74,6.31-7.51,12.61-11.17,19a30.37,30.37,0,0,0-1.76,4.42,24.47,24.47,0,0,0-2.43,2.89Q557,457.88,549.7,470.12a19.69,19.69,0,0,0-1.29,3.52c-1.78,2.57-3.71,5.05-5.3,7.73-7.24,12.15-14.39,24.34-21.56,36.52-.76,0-1.3.84-1.29,2l-.19.37c-1,0-1.38.62-1.13,1.85l-1.07,1.72a3.31,3.31,0,0,0-2,3.45l-.13.23a9.33,9.33,0,0,0-4.69,8c-.33.58-.66,1.16-1,1.74-.73,0-1.21.81-1.14,1.88l-2.43,4.18c-2.36,1.12-3.17,3.14-3.2,5.6l-.92,1.76a1.43,1.43,0,0,0-1.18,1.8l-.4.66c-1.65.42-2,1.56-1.75,3.09l-.36.57c-.89,0-1.19.53-.87,1.52l-1.12,2.12c-.8,0-1.21.67-1.05,1.72-1.14,2.45-2.92,4.6-3.3,7.38-2.32,1.35-3.42,3.69-4.71,5.86-2.09,3.55-4.07,7.17-6.1,10.76l-.71.07.31.61-1.41,2.91a3.77,3.77,0,0,0-3.06,2c-2.5,5.08-6.17,9.52-7.71,15.16-.73,2.68-2.47,5.1-3.85,7.59-2.31,4.14-4.69,8.24-7,12.35a8.43,8.43,0,0,0-1.3,1.38c-6.06,10.45-12.7,20.57-18,31.44a116.41,116.41,0,0,0-9.07,14.56,61.66,61.66,0,0,0-3.39,6.87,11.76,11.76,0,0,0,.42,10.19,21.25,21.25,0,0,0,11.84,10.61,5.17,5.17,0,0,0,6-1.87c.18-.26.37-.51.53-.79,6.35-10.69,12.74-21.37,19-32.11a34,34,0,0,0,2.05-5.32,29,29,0,0,0,3.2-3.47c1.75-2.66,3.38-5.41,4.9-8.2,3.5-6.44,7.95-12.33,10.8-19.13a4.29,4.29,0,0,0,.29-1.54l1.76-2.24c6.6-8.76,11.76-18.37,16.74-28.1a3,3,0,0,0,.16-.92,3.3,3.3,0,0,0,.55-1.44,2.55,2.55,0,0,0,1.62-2.24c5.5-7.3,9.86-15.3,14.3-23.25a7.15,7.15,0,0,0,.43-1.81l4.23-6c.86,0,1.35-.72,1.29-1.91.28-.54.54-1.09.78-1.64a2,2,0,0,0,1.48-2.14c5.07-8.44,10.17-16.87,15.18-25.35a50.92,50.92,0,0,0,2.33-5.15l.16-.29a3.55,3.55,0,0,0,2-3.4l.07-.12a1.43,1.43,0,0,0,1.17-1.73,252.8,252.8,0,0,0,16.17-27,1.78,1.78,0,0,0,1.28-2l.39-.67.71-.33L568,491l1.41-2.4c.81-.19,1.2-.66.95-1.52l1-2.24a1.15,1.15,0,0,0,1-1.47l1.14-1.92a1.91,1.91,0,0,0,1.32-2.05ZM193.88,268.61l1.4,1.57.24.29c-.3,4.42,1.89,7.34,5.64,9.31l.12.25a3.45,3.45,0,0,0,1.85,3.58c.45.84.93,1.67,1.34,2.53,2.33,4.82,6.35,6.92,11.51,7.16,1.59.08,3.19.06,4.78.06H409c2.23,0,4.47,0,6.69-.16a8.46,8.46,0,0,0,3.61-1.06c3.85-2.38,7.19-5.27,8.46-9.89a7.21,7.21,0,0,0,1.47-1.17q6.42-8.74,12.75-17.54c.16-.23.1-.62.14-.93-.8-.48-1.57-1.31-2.4-1.39-2.54-.22-5.1-.18-7.66-.18H200.14c-2.55,0-5.1.08-7.65.18-1.77.06-2,1.18-.85,3.27l.07.22c0,1.39.27,2.65,1.73,3.27Zm118.43,66.92H235.73c-1.6,0-3.19.07-4.78.14a1.8,1.8,0,0,0-1.37,2.77q6.38,10.67,12.81,21.3a22.66,22.66,0,0,0,2.35,3,10.3,10.3,0,0,0,7.48,3.74q3.83.17,7.65.16H361.35c2.23,0,4.47.05,6.7-.09,4.34-.27,8-1.89,10.59-5.58,5.34-7.55,10.77-15,16.13-22.56a1.66,1.66,0,0,0-1.1-2.78c-2.23-.06-4.46-.12-6.69-.13Z"/><path class="cls-12" d="M131.63,72.11c.08-1.57.15-3.14.23-4.71,3.82-.18,7.64-.51,11.46-.51q242.65,0,485.29,0,67.62,0,135.23,0c3.19,0,6.38.12,9.57.28a2.23,2.23,0,0,1,2.05,1.66c.3,1-.53,3-1.42,3.23a12.93,12.93,0,0,1-2.78.61c-2.55.11-5.11.11-7.66.11H143.08C139.26,72.76,135.4,73.15,131.63,72.11Z"/><path class="cls-13" d="M1732.45,679.25c.16-2.83.28-5.66.49-8.49.1-1.36,1.77-2.74,3.28-3a10.93,10.93,0,0,1,9.52,3.14,8,8,0,0,1,1.86,3.22,16.6,16.6,0,0,1,.45,7.49,9.16,9.16,0,0,1-5.35,7.29,13.39,13.39,0,0,1-7.37,1.2,2.87,2.87,0,0,1-2.51-2.38c0-2.83,0-5.67,0-8.51Z"/><path class="cls-13" d="M2220.11,678.54a10.51,10.51,0,0,1-9.26,11.53c-5.21.55-6.38-.05-6.34-5.4,0-4.47.07-8.93.21-13.4.05-1.88,1.9-3.35,3.87-3.55a11,11,0,0,1,8,2.39C2219.38,672.26,2220.16,675.31,2220.11,678.54Z"/><path class="cls-13" d="M2276.83,711.55c-1-.13-2-.24-2.93-.38a5.37,5.37,0,0,1-4-3.74,24.49,24.49,0,0,1-.39-3.81q0-14.86,0-29.72a23,23,0,0,1,.3-2.85,4.42,4.42,0,0,1,3.27-3.15,24.35,24.35,0,0,1,16.56,3.38,14.3,14.3,0,0,1,5.7,6.32c4.05,8.41,3.45,16.76-.78,24.87-2.71,5.19-7.47,7.73-13.06,8.77A39.59,39.59,0,0,1,2276.83,711.55Z"/><path class="cls-13" d="M2070.18,679.14c0-2.55-.08-5.1,0-7.64.1-2.34,2.06-3.82,4.61-3.84a11,11,0,0,1,7.8,3c2.58,2.35,3.13,5.4,3,8.7-.2,7.33-6.34,12-13.84,10.43-.49-.1-.9-.76-1.27-1.22a1.47,1.47,0,0,1-.28-.89c0-2.86,0-5.72,0-8.58Z"/><path class="cls-13" d="M1288.9,679.3c.14-2.72.24-5.57.44-8.43a3.91,3.91,0,0,1,3.21-3.06,10.35,10.35,0,0,1,10.08,4.11,8.69,8.69,0,0,1,1.64,3.39c1.74,7.94-2,15.16-12.25,14.83-1.2,0-2.67-1.1-2.73-2.12C1289.14,685.17,1289,682.31,1288.9,679.3Z"/><path class="cls-13" d="M2175.42,691.49a27.29,27.29,0,0,1-2.42,12,13.43,13.43,0,0,1-11.6,8.69c-6.6.72-11.94-1.5-15.66-7a23.38,23.38,0,0,1-3.34-6.82c-2.2-8.18-2.61-16.33,1.84-24,4.57-7.94,12.84-8.52,19.12-6.13,4.61,1.76,7.68,5.61,9.53,10.22A31,31,0,0,1,2175.42,691.49Z"/><path class="cls-1" d="M1245,693.85l-2.48-.15c-2.27-.15-3.67-1.82-3-3.75q2.24-6.23,4.68-12.37c.18-.45,1-.7,1.53-.94.14-.06.56.23.65.44a62.15,62.15,0,0,1,4.56,13.38,2.9,2.9,0,0,1-1.85,2.93C1247.51,693.6,1245.94,693.74,1245,693.85Z"/><path class="cls-7" d="M494.14,416c.84-3.49,2.9-6.39,4.68-9.4q17.76-30.14,35.66-60.21a34.46,34.46,0,0,1,2.69-4,8,8,0,0,1,5.72-3.15c3.19-.22,6.39-.32,9.58-.32q39.35,0,78.68,0,53.25,0,106.5,0c3.18,0,6.37.17,9.56.27.8,0,1.62,1.46,1.2,2.12-4.63,7.28-9.25,14.57-13.93,21.81a5,5,0,0,1-4.1,2.16c-2.87.15-5.75.2-8.63.2H566.32c-3.19,0-6.39,0-9.59.11a5.23,5.23,0,0,0-4.62,2.86q-7.43,12.87-15,25.65c-4.4,7.41-8.91,14.76-13.37,22.14a1.89,1.89,0,0,0-1.53,2.05l-.34-.06a40.55,40.55,0,0,0-15.58-2.21C502.24,416.26,498.18,416.06,494.14,416Z"/><path class="cls-9" d="M485.2,278c1.74-5.13,4.78-10,8-12.74A8.27,8.27,0,0,1,498.4,263c2.55-.06,5.11-.1,7.67-.1h280q4.32,0,8.63.17a2.22,2.22,0,0,1,1.9,3.39c-1.62,2.75-3.16,5.56-4.92,8.22a26.76,26.76,0,0,1-3.24,3.42c-4.15,0-8.29-.08-12.44-.08H496.68C492.85,278,489,278,485.2,278Z"/><path class="cls-7" d="M312.31,335.53H387c2.23,0,4.46.07,6.69.13a1.66,1.66,0,0,1,1.1,2.78c-5.36,7.52-10.79,15-16.13,22.56-2.61,3.69-6.25,5.31-10.59,5.58-2.23.14-4.47.09-6.7.09H259.87q-3.83,0-7.65-.16a10.3,10.3,0,0,1-7.48-3.74,22.66,22.66,0,0,1-2.35-3q-6.45-10.62-12.81-21.3a1.8,1.8,0,0,1,1.37-2.77c1.59-.07,3.18-.14,4.78-.14h76.58Z"/><path class="cls-14" d="M485.2,278c3.82,0,7.65.06,11.48.06H776c4.15,0,8.29,0,12.44.08-.76,3.95-3.65,6.67-5.77,9.81a4.64,4.64,0,0,1-2.44,1.37,10.39,10.39,0,0,1-2.85.31c-2.87,0-5.75,0-8.63,0H522.31c-2.56,0-5.14.2-7.67,0-4.82-.43-7.79,1.58-9.67,6a28.42,28.42,0,0,1-6.45,9.37c-2.54,0-4.74-1.88-7.47-1.1a28.22,28.22,0,0,1-17-.32c-1.16-.38-2.53-.09-3.8-.11.06-.93-.21-2.06.23-2.76,3.13-5.05,5.58-10.54,9.47-15.11l1.14-1.52c.34-.8.68-1.61,1-2.41a1.76,1.76,0,0,0,.87-1.14,6.46,6.46,0,0,1,.63-.74l1.35-1.55Z"/><path class="cls-9" d="M442.14,262.6c0,.31,0,.7-.14.93q-6.35,8.79-12.75,17.54a7.21,7.21,0,0,1-1.47,1.17c-.56-2.39-1.8-4.07-4.49-4.12-2.87,0-5.73-.08-8.6-.08H211.05c-3.19,0-6.37.06-9.56.09-.75-1.31-1.53-2.6-2.23-3.93a7.1,7.1,0,0,0-3.74-3.73l-.24-.29-1.4-1.57-.44-.63a3.1,3.1,0,0,0-1.73-3.28l-.07-.22c1.1-.57,2.18-1.54,3.32-1.63,3.18-.27,6.38-.21,9.57-.21Z"/><path class="cls-14" d="M201.49,278.13c3.19,0,6.37-.09,9.56-.09H414.69c2.87,0,5.73,0,8.6.08,2.69.05,3.93,1.73,4.49,4.12-1.27,4.62-4.61,7.51-8.46,9.89a8.46,8.46,0,0,1-3.61,1.06c-2.22.19-4.46.16-6.69.16H220.76c-1.59,0-3.19,0-4.78-.06-5.16-.24-9.18-2.34-11.51-7.16-.41-.86-.89-1.69-1.34-2.53a3.55,3.55,0,0,0-1.85-3.58l-.12-.25Z"/><path class="cls-10" d="M566.8,442.82a30.37,30.37,0,0,1,1.76-4.42c3.66-6.35,7.43-12.65,11.17-19a20.19,20.19,0,0,1,1.63-2.36,11.07,11.07,0,0,1,8.13-4.48c1.92-.11,3.83-.11,5.75-.11H693.9c1.59,0,3.19,0,4.78.08,2.37.08,3,1.61,1.59,3.88-1.51,2.44-3,4.89-4.56,7.31-2.77,4.28-5.58,8.55-8.38,12.81a5.49,5.49,0,0,1-4.84,2.57c-2.56,0-5.11,0-7.66,0H609.69c-2.87,0-5.74.06-8.61.16a3.86,3.86,0,0,0-3.14,1.89c-1.75,2.63-2.63,5.86-5.39,7.79-.4-2.48-1.69-4-4.35-4-1.26,0-2.52-.12-3.77-.06A47.2,47.2,0,0,1,566.8,442.82Z"/><path class="cls-7" d="M470.29,303.45c1.27,0,2.64-.27,3.8.11a28.22,28.22,0,0,0,17,.32c2.73-.78,4.93,1.1,7.47,1.1-.7,1.26-1.4,2.52-2.09,3.78a2,2,0,0,0-1.42,2.08,7.7,7.7,0,0,1-.62,1.68,2.28,2.28,0,0,0-1.39,2.1,8.15,8.15,0,0,1-.66,1.68l-1.38,2c-.67,1.43-1.24,2.92-2,4.28Q470,354.57,451,386.49c-4.7,7.92-9.31,15.88-14,23.78a46,46,0,0,1-3.48,4.45c-.51-2.86-2.14-4.36-5.12-4.29-.93,0-1.87,0-2.8,0a80.7,80.7,0,0,1-8.38-.09c-3-.32-6.06-1.12-9.08-1.72a5.42,5.42,0,0,1,1.15-3.54q8.31-14,16.61-28,14.85-25.14,29.71-50.29c3.09-5.22,6.29-10.37,9.44-15.55l1.19-1.87.25-.38a2.36,2.36,0,0,0,1.6-2.12,6.43,6.43,0,0,0,.64-1.35l1.29-2.06Z"/><path class="cls-8" d="M366.2,478.74,368,475v.2l1.4-1.6a2.42,2.42,0,0,0,.61-1,2,2,0,0,1,1-1.37,17.76,17.76,0,0,0,10,2.49c2.86-.13,5.73,0,8.59,0a7,7,0,0,1,2.79.44,4.21,4.21,0,0,1,1.93,1.89,18.69,18.69,0,0,1,.77,3.7c-.92,2-1.69,4.07-2.79,6-5.59,9.51-11.26,19-16.93,28.44-.81,1.34-1.85,2.55-2.77,3.81a2.5,2.5,0,0,0-.84,1.27l-.24.42c-.48.75-1,1.5-1.43,2.26l-.82,1.69c-.41.59-.82,1.18-1.24,1.76s-.81,1.46-1.2,2.19a2.32,2.32,0,0,0-.81,1.16L364.72,531c-6.67.07-13.35.17-20,.19-3.64,0-5.6-1-5.21-6,0-.32,0-.64,0-1,.49-.83,1-1.66,1.45-2.49,2.75-1.74,4-4.68,5.54-7.29.6-1,.5-2.4.72-3.61l.37-.7c.54-.9,1.07-1.81,1.6-2.72a.88.88,0,0,1,.58-.93c.76-.48,1.81-.77,2.25-1.45,2.15-3.33,4.27-6.7,4.93-10.72a2.14,2.14,0,0,1,1-1.55,3.1,3.1,0,0,0,.67-1.22c.49-.8,1-1.6,1.48-2.41,2.82-1.6,3.71-4.36,4.34-7.26l1.7-2.95Z"/><path class="cls-8" d="M569.45,488.6,568,491a1.54,1.54,0,0,0-.62,1.08l-.39.67-1.28,2a252.8,252.8,0,0,1-16.17,27l-1.17,1.73-.07.12a3.87,3.87,0,0,0-2,3.4l-.16.29c-6.84,0-13.68.08-20.53.08a3.93,3.93,0,0,1-4-3.15,20.68,20.68,0,0,0-1.12-2.56,6.7,6.7,0,0,0-.4-1.32l.19-.38a1.89,1.89,0,0,0,1.29-2c7.17-12.18,14.32-24.37,21.56-36.52,1.59-2.68,3.52-5.16,5.3-7.73h4.67q7.95,0,15.9,0a5.34,5.34,0,0,1,4.69,2.54c.35.52.79,1,1.18,1.45a11,11,0,0,0,.26,1.27l-.23.46a2.15,2.15,0,0,0-1.32,2.05l-1.14,1.91a2.27,2.27,0,0,0-1,1.48l-1,2.24A1.89,1.89,0,0,0,569.45,488.6Z"/><path class="cls-15" d="M399.89,575.26l.89-1.74a2.55,2.55,0,0,0,1.52-2.33,381.18,381.18,0,0,1,21-36.23c2.68-1.2,3.33-3.66,3.81-6.21a4.26,4.26,0,0,1,2.22-3.38,43.69,43.69,0,0,0,15.9,2c4.12-.17,8.24-.11,12.36-.15-.66,3.12-2.51,5.59-4.41,8a2.64,2.64,0,0,0-.72,1.08l-.37.6-1.33,2-1,2a2.2,2.2,0,0,0-1,1.42c-.46.85-.92,1.69-1.37,2.54a2.29,2.29,0,0,0-.61.91c-4,6.89-7.94,13.79-11.94,20.67-1.28,2.2-2.67,4.34-4,6.51l-1.5,2.16-1.46,2.14c-5.65,0-11.29-.11-16.93,0A24,24,0,0,1,399.89,575.26Z"/><path class="cls-8" d="M457.55,527.26c-4.12,0-8.24,0-12.36.15a43.69,43.69,0,0,1-15.9-2,5.42,5.42,0,0,1,2.11-3.79,2.88,2.88,0,0,0,1.62-2.53l1.87-3.53a2.49,2.49,0,0,0,.47-.84l.38-.71a3.85,3.85,0,0,0,1.68-3,.85.85,0,0,1,.53-.91l1.33-2.28,2.09-3.52a3.49,3.49,0,0,0,1.75-3c.57-1.1,1.13-2.21,1.69-3.31v.12a1.91,1.91,0,0,1,.93-1.2c2.71-.77,3-3,3.12-5.29l1.51-2.48c2.65-1.63,3.48-4.34,4.24-7.1.56-1,1.11-2.1,1.66-3.15l-.07.09,2.32-3.3c1.9.1,4-.25,5.65.4,4,1.53,8.1,1.37,12.22,1.41,1.59,0,3.17,0,4.76.1,2.25.08,3.4,1.39,3.84,3.48-.34.74-.69,1.48-1,2.22a1.79,1.79,0,0,0-.9,1.47l-.23.42a3.62,3.62,0,0,0-1.87,3.16l-.31.59-1.26,2a276.81,276.81,0,0,1-16.12,27l-1.22,1.75-1.23,2.2A2.53,2.53,0,0,0,460,523l-.24.42-1.45,2.21A2.07,2.07,0,0,1,457.55,527.26Z"/><path class="cls-6" d="M399.89,575.26a24,24,0,0,0,11,2c5.64-.11,11.28,0,16.93,0a33.48,33.48,0,0,1-2.05,5.27q-10.92,18.46-22,36.81c-2.29,3.81-4.67,7.57-7.06,11.32a2.37,2.37,0,0,1-3.37.43c-5.15-4.74-10.43-9.36-13.85-15.63a7.61,7.61,0,0,1-.56-6.44,30.83,30.83,0,0,1,2.36-5.2c3.09-5.18,6.3-10.29,9.46-15.43,1.33-2.16,2.69-4.31,3.94-6.52C396.05,579.42,397.44,576.93,399.89,575.26Z"/><path class="cls-15" d="M520.47,521.59a20.68,20.68,0,0,1,1.12,2.56,3.93,3.93,0,0,0,4,3.15c6.85,0,13.69,0,20.53-.08a50.92,50.92,0,0,1-2.33,5.15c-5,8.48-10.11,16.91-15.18,25.35-.49.71-1,1.42-1.48,2.14-.24.55-.5,1.1-.77,1.64l-1.3,1.91-4.22,6-28.49.1c.38-2.78,2.16-4.93,3.29-7.38l1.06-1.72c.38-.71.75-1.41,1.11-2.12a1.91,1.91,0,0,0,.88-1.52l.36-.57a3.35,3.35,0,0,0,1.75-3.09l.4-.66c.39-.6.78-1.2,1.18-1.8l.91-1.76c2.47-1.06,3.12-3.18,3.21-5.6l2.43-4.18,1.14-1.88,1-1.74c3-1.8,4.2-4.68,4.7-8l.13-.22a3.61,3.61,0,0,0,2-3.46l1.07-1.72C519.45,522,520,521.78,520.47,521.59Z"/><path class="cls-10" d="M494.14,416c4,0,8.1.24,12.13.07a40.55,40.55,0,0,1,15.58,2.21c-.34,1.13-.67,2.25-1,3.37l-1.29,1.92-.09.14A2.48,2.48,0,0,0,518,426c-1,2-1.88,4-3,5.92Q508.54,443,502,454c-1,1.62-1.83,3.34-3.55,4.36v-1.87c0-.32,0-.63,0-.94-.1-3.65-1.66-4.7-4.44-4.74-6.85-.11-13.71-.06-20.56-.07,2-6,6-11,9-16.56,2.39-4.43,5-8.74,7.68-13A58.45,58.45,0,0,1,494.14,416Z"/><path class="cls-4" d="M466.13,661.73a34,34,0,0,1-2.05,5.32c-6.27,10.74-12.66,21.42-19,32.11-.16.28-.35.53-.53.79a5.17,5.17,0,0,1-6,1.87,21.25,21.25,0,0,1-11.84-10.61,11.76,11.76,0,0,1-.42-10.19,61.66,61.66,0,0,1,3.39-6.87,116.41,116.41,0,0,1,9.07-14.56,43.57,43.57,0,0,0,15.92,2.1C458.51,661.54,462.32,661.71,466.13,661.73Z"/><path class="cls-6" d="M485.32,629.39a4.29,4.29,0,0,1-.29,1.54q-10,0-20.08.05c-3.17,0-5.54-1.2-6.83-4.21,2.35-4.11,4.73-8.21,7-12.35,1.38-2.49,3.12-4.91,3.85-7.59,1.54-5.64,5.21-10.08,7.71-15.16a3.8,3.8,0,0,1,3.06-2c-.06,1.57-.2,3.15-.13,4.72a3.52,3.52,0,0,0,3.51,3.67c6.94.07,13.88,0,20.82,0a3,3,0,0,1-.16.92c-5,9.73-10.14,19.34-16.74,28.1A3.1,3.1,0,0,0,485.32,629.39Z"/><path class="cls-10" d="M408.13,408.58c3,.6,6,1.4,9.08,1.72a80.7,80.7,0,0,0,8.38.09c.93,0,1.87.07,2.8,0,3-.07,4.61,1.43,5.12,4.29a2.11,2.11,0,0,1-.61,1.49l-1.44,2.12-.79,1.8-1.21,1.68a6.63,6.63,0,0,1-.48,1.8q-6.36,10.93-12.82,21.83a12.12,12.12,0,0,1-1.93,2c-.12-.62-.23-1.24-.38-1.85-.69-2.82-2.62-4.14-5.4-4.36q-1.41-.11-2.82-.09-8.47.06-16.93.16a8.88,8.88,0,0,1,.66-2.74c6-9.8,12-19.55,18.08-29.31A4.39,4.39,0,0,1,408.13,408.58Z"/><path class="cls-15" d="M388.7,441.3q8.46-.09,16.93-.16,1.41,0,2.82.09c2.78.22,4.71,1.54,5.4,4.36.15.61.26,1.23.38,1.85a1.35,1.35,0,0,1-.51,1.15L412.19,451a2.48,2.48,0,0,1-.73,1.58l-1.26,1.94c-.32.66-.63,1.33-.95,2a3.75,3.75,0,0,0-1,1.47c-.49.9-1,1.79-1.47,2.68l-.45.7-.46.74c-.46.7-.91,1.4-1.36,2.1-2.45,5.6-5.15,11-9.39,15.57a18.69,18.69,0,0,0-.77-3.7,4.21,4.21,0,0,0-1.93-1.89,7,7,0,0,0-2.79-.44c-2.86-.06-5.73-.15-8.59,0a17.76,17.76,0,0,1-10-2.49l1.09-3.16a4.06,4.06,0,0,0,2-3.56l.15-.25a3.91,3.91,0,0,0,1.92-3.27l.29-.48,1.35-2c.32-.55.64-1.11.94-1.67l1.08-1.86.2-.3a3.84,3.84,0,0,0,1.9-3.31l.27-.45,1.37-2.06c.28-.52.56-1,.83-1.56l1.34-2Q387.22,443.27,388.7,441.3Z"/><path class="cls-15" d="M574.85,477.67c-.39-.48-.83-.93-1.18-1.45a5.34,5.34,0,0,0-4.69-2.54q-8,0-15.9,0h-4.67a19.69,19.69,0,0,1,1.29-3.52q7.26-12.25,14.67-24.41a24.47,24.47,0,0,1,2.43-2.89A47.2,47.2,0,0,0,584.43,445c1.25-.06,2.51,0,3.77.06,2.66,0,3.95,1.53,4.35,4a7.85,7.85,0,0,1-.55,1.78q-7.87,13.32-15.82,26.6A6.66,6.66,0,0,0,574.85,477.67Z"/><path class="cls-9" d="M458.12,626.77c1.29,3,3.66,4.22,6.83,4.21q10,0,20.08-.05c-2.85,6.8-7.3,12.69-10.8,19.13-1.52,2.79-3.15,5.54-4.9,8.2a29,29,0,0,1-3.2,3.47c-3.81,0-7.62-.19-11.42,0a43.57,43.57,0,0,1-15.92-2.1c5.33-10.87,12-21,18-31.44A8.43,8.43,0,0,1,458.12,626.77Z"/><path class="cls-10" d="M504,598.13c-6.94,0-13.88,0-20.82,0a3.52,3.52,0,0,1-3.51-3.67c-.07-1.57.07-3.15.13-4.72.47-1,.94-1.93,1.4-2.9,0,0,.41-.68.41-.68,2-3.59,4-7.21,6.1-10.76,1.29-2.17,2.39-4.51,4.71-5.86l28.49-.1a7.61,7.61,0,0,1-.44,1.81c-4.44,7.95-8.8,15.95-14.3,23.25a2.45,2.45,0,0,0-1.62,2.24A3.3,3.3,0,0,1,504,598.13Z"/><path class="cls-15" d="M473.43,450.72c6.85,0,13.71,0,20.56.07,2.78,0,4.34,1.09,4.44,4.74,0,.31,0,.62,0,.94v1.87c-.31.66-.61,1.32-.92,2a3.63,3.63,0,0,0-1,1.51l-.14.24-1.59,2.44a2.06,2.06,0,0,1-.66,1.47c-.44.69-.89,1.37-1.34,2.06a41.77,41.77,0,0,1-7.78,13c-.44-2.09-1.59-3.4-3.84-3.48-1.59-.06-3.17-.08-4.76-.1-4.12,0-8.21.12-12.22-1.41-1.68-.65-3.75-.3-5.65-.4a2.8,2.8,0,0,1,.11-.93C463.11,466.44,467.72,458.24,473.43,450.72Z"/><path class="cls-15" d="M339.5,524.21c0,.32,0,.64,0,1-.39,5,1.57,6,5.21,6,6.68,0,13.36-.12,20-.19,0,.32.09.7-.05.94-4.37,7.38-8.74,14.77-13.18,22.11a2.49,2.49,0,0,1-4.05.55c-3.43-3.33-6.95-6.58-10.15-10.11-3.76-4.17-4.46-9.06-2.19-14.22C336.11,527.94,337,525.45,339.5,524.21Z"/><path class="cls-4" d="M442.14,262.6l-237.61,0c-3.19,0-6.39-.06-9.57.21-1.14.09-2.22,1.06-3.32,1.63-1.19-2.09-.92-3.21.85-3.27,2.55-.1,5.1-.18,7.65-.18H432.08c2.56,0,5.12,0,7.66.18C440.57,261.29,441.34,262.12,442.14,262.6Z"/><path class="cls-15" d="M356.94,494.3c-.66,4-2.78,7.39-4.93,10.72-.44.68-1.49,1-2.25,1.45-.05-2.28,1.25-4,2.46-5.73C353.76,498.57,354.28,495.65,356.94,494.3Z"/><path class="cls-15" d="M347.21,510.82c-.22,1.21-.12,2.62-.72,3.61-1.58,2.61-2.79,5.55-5.54,7.29A17.89,17.89,0,0,1,347.21,510.82Z"/><path class="cls-4" d="M201.49,278.13l-.33,1.65c-3.75-2-5.94-4.89-5.64-9.31a7.1,7.1,0,0,1,3.74,3.73C200,275.53,200.74,276.82,201.49,278.13Z"/><path class="cls-12" d="M515.79,527.51c-.5,3.28-1.69,6.16-4.7,8A9.36,9.36,0,0,1,515.79,527.51Z"/><path class="cls-15" d="M454.62,482c-.76,2.76-1.59,5.47-4.24,7.1A8.48,8.48,0,0,1,454.62,482Z"/><path class="cls-15" d="M364.39,481.86c-.63,2.9-1.52,5.66-4.34,7.26A9.19,9.19,0,0,1,364.39,481.86Z"/><path class="cls-5" d="M427.07,528.75c-.48,2.55-1.13,5-3.81,6.21C423.29,532.13,424.87,530.24,427.07,528.75Z"/><path class="cls-15" d="M448.87,491.6c-.11,2.32-.41,4.52-3.12,5.29A5.44,5.44,0,0,1,448.87,491.6Z"/><path class="cls-12" d="M506.55,543.27c-.09,2.42-.74,4.54-3.21,5.6C503.38,546.41,504.19,544.39,506.55,543.27Z"/><path class="cls-4" d="M191.71,264.7a3.1,3.1,0,0,1,1.73,3.28C192,267.35,191.71,266.09,191.71,264.7Z"/><path class="cls-12" d="M500.85,553.09a3.35,3.35,0,0,1-1.75,3.09C498.81,554.65,499.2,553.51,500.85,553.09Z"/><path class="cls-4" d="M201.28,280a3.55,3.55,0,0,1,1.85,3.58A3.45,3.45,0,0,1,201.28,280Z"/><path class="cls-12" d="M517.87,523.83a3.61,3.61,0,0,1-2,3.46A3.32,3.32,0,0,1,517.87,523.83Z"/><path class="cls-15" d="M546.33,526.93a3.87,3.87,0,0,1,2-3.4A3.55,3.55,0,0,1,546.33,526.93Z"/><path class="cls-15" d="M443.12,501.28a3.49,3.49,0,0,1-1.75,3A2.73,2.73,0,0,1,443.12,501.28Z"/><path class="cls-15" d="M349.18,507.4c-.53.91-1.06,1.82-1.6,2.72A2.2,2.2,0,0,1,349.18,507.4Z"/><path class="cls-15" d="M439.28,507.82,438,510.1C437.75,509,437.88,508,439.28,507.82Z"/><path class="cls-15" d="M437.42,511a3.85,3.85,0,0,1-1.68,3A2.53,2.53,0,0,1,437.42,511Z"/><path class="cls-5" d="M481,488.32a3.62,3.62,0,0,1,1.87-3.16A3,3,0,0,1,481,488.32Z"/><path class="cls-6" d="M374.11,464.47a4.06,4.06,0,0,1-2,3.56A3.31,3.31,0,0,1,374.11,464.47Z"/><path class="cls-6" d="M376.18,461a3.91,3.91,0,0,1-1.92,3.27C374.09,462.65,374.5,461.42,376.18,461Z"/><path class="cls-6" d="M381.94,451.33a3.84,3.84,0,0,1-1.9,3.31C379.83,453.06,380.24,451.82,381.94,451.33Z"/><path class="cls-12" d="M520.47,521.59c-.51.19-1,.36-1.53.52-.25-1.23.13-1.85,1.13-1.85A7,7,0,0,1,520.47,521.59Z"/><path class="cls-15" d="M460,523a2.53,2.53,0,0,1,.8-1.25l0,.85Z"/><path class="cls-15" d="M548.41,523.41l1.17-1.73A1.43,1.43,0,0,1,548.41,523.41Z"/><path class="cls-5" d="M567.42,492.08A1.54,1.54,0,0,1,568,491l.09.75Z"/><path class="cls-15" d="M368,525.34c.42-.58.83-1.17,1.24-1.76A1.5,1.5,0,0,1,368,525.34Z"/><path class="cls-15" d="M458.35,525.67l1.45-2.21A2.1,2.1,0,0,1,458.35,525.67Z"/><path class="cls-5" d="M565.75,494.71l1.28-2A1.78,1.78,0,0,1,565.75,494.71Z"/><path class="cls-15" d="M366,528.69a2.32,2.32,0,0,1,.81-1.16s0,.82,0,.82Z"/><path class="cls-5" d="M452.42,536.36a2.64,2.64,0,0,1,.72-1.08l0,.75Z"/><path class="cls-5" d="M450.72,539l1.33-2A2,2,0,0,1,450.72,539Z"/><path class="cls-12" d="M510.12,537.21,509,539.09C508.91,538,509.39,537.21,510.12,537.21Z"/><path class="cls-5" d="M448.68,542.38a2.2,2.2,0,0,1,1-1.42A1.15,1.15,0,0,1,448.68,542.38Z"/><path class="cls-5" d="M446.7,545.83a2.29,2.29,0,0,1,.61-.91s0,.66,0,.66Z"/><path class="cls-12" d="M502.43,550.63c-.4.6-.79,1.2-1.18,1.8A1.43,1.43,0,0,1,502.43,550.63Z"/><path class="cls-15" d="M358.57,491.53a3.1,3.1,0,0,1-.67,1.22l0-.81Z"/><path class="cls-12" d="M498.74,556.75a1.91,1.91,0,0,1-.88,1.52C497.55,557.28,497.85,556.75,498.74,556.75Z"/><path class="cls-6" d="M527.18,559.86c.49-.72,1-1.43,1.48-2.14A2,2,0,0,1,527.18,559.86Z"/><path class="cls-12" d="M496.75,560.39l-1.06,1.72C495.54,561.06,496,560.39,496.75,560.39Z"/><path class="cls-6" d="M525.11,563.41l1.3-1.91C526.46,562.69,526,563.41,525.11,563.41Z"/><path class="cls-5" d="M479.41,490.89l1.26-2A1.73,1.73,0,0,1,479.41,490.89Z"/><path class="cls-6" d="M402.3,571.19a2.55,2.55,0,0,1-1.52,2.33A2.61,2.61,0,0,1,402.3,571.19Z"/><path class="cls-6" d="M429.25,575.17l1.5-2.16A2,2,0,0,1,429.25,575.17Z"/><path class="cls-5" d="M569.45,488.6a1.89,1.89,0,0,1,.95-1.52C570.65,487.94,570.26,488.41,569.45,488.6Z"/><path class="cls-6" d="M481.59,586.11s-.43.68-.41.68-.3-.61-.3-.61Z"/><path class="cls-4" d="M193.88,268.61l1.4,1.57Z"/><path class="cls-6" d="M504.53,596.69a2.45,2.45,0,0,1,1.62-2.24A2.55,2.55,0,0,1,504.53,596.69Z"/><path class="cls-15" d="M571.41,484.84a2.27,2.27,0,0,1,1-1.48A1.15,1.15,0,0,1,571.41,484.84Z"/><path class="cls-9" d="M485.32,629.39a3.1,3.1,0,0,1,1.76-2.24Z"/><path class="cls-5" d="M483.08,484.74a1.79,1.79,0,0,1,.9-1.47C484.24,484.1,483.87,484.55,483.08,484.74Z"/><path class="cls-9" d="M485,278.22l-1.35,1.55Z"/><path class="cls-9" d="M483,280.51a1.76,1.76,0,0,1-.87,1.14A.89.89,0,0,1,483,280.51Z"/><path class="cls-5" d="M573.56,481.45a2.15,2.15,0,0,1,1.32-2.05A1.91,1.91,0,0,1,573.56,481.45Z"/><path class="cls-5" d="M574.85,477.67a6.66,6.66,0,0,1,1.33-.26,1.19,1.19,0,0,1-1.07,1.53A11,11,0,0,1,574.85,477.67Z"/><path class="cls-15" d="M456.21,479l.07-.09Z"/><path class="cls-15" d="M366.2,478.74l-.11.17-.27-.2Z"/><path class="cls-15" d="M368,475.18v0Z"/><path class="cls-15" d="M370,472.56a2.42,2.42,0,0,1-.61,1s-.08-.73-.08-.73Z"/><path class="cls-10" d="M492.78,468.05c.45-.69.9-1.37,1.34-2.06A2.23,2.23,0,0,1,492.78,468.05Z"/><path class="cls-9" d="M481.13,284.06,480,285.58Z"/><path class="cls-10" d="M494.78,464.52l1.59-2.44Z"/><path class="cls-10" d="M404.49,464.16c.45-.7.9-1.4,1.36-2.1A2.31,2.31,0,0,1,404.49,464.16Z"/><path class="cls-10" d="M496.51,461.84a3.63,3.63,0,0,1,1-1.51A1.25,1.25,0,0,1,496.51,461.84Z"/><path class="cls-10" d="M406.31,461.32l.45-.7s.11.52.11.52Z"/><path class="cls-14" d="M468.08,306.82a2.36,2.36,0,0,1-1.6,2.12A2.2,2.2,0,0,1,468.08,306.82Z"/><path class="cls-14" d="M466.23,309.32,465,311.19C464.86,309.94,465.25,309.32,466.23,309.32Z"/><path class="cls-10" d="M408.23,457.94a3.75,3.75,0,0,1,1-1.47A1.2,1.2,0,0,1,408.23,457.94Z"/><path class="cls-14" d="M470,303.41l-1.29,2.06C468.61,304.17,469.09,303.41,470,303.41Z"/><path class="cls-6" d="M379.84,454.94l-1.08,1.86C378.57,455.67,379,454.94,379.84,454.94Z"/><path class="cls-15" d="M444.82,498.09v0Z"/><path class="cls-15" d="M435.36,514.68a2.49,2.49,0,0,1-.47.84s-.15-.6-.15-.6Z"/><path class="cls-15" d="M371.77,519.21a2.5,2.5,0,0,1,.84-1.27C372.82,518.67,372.54,519.09,371.77,519.21Z"/><path class="cls-10" d="M410.2,454.48l1.26-1.94A1.89,1.89,0,0,1,410.2,454.48Z"/><path class="cls-15" d="M462.07,519.59l1.22-1.75A1.47,1.47,0,0,1,462.07,519.59Z"/><path class="cls-12" d="M521.55,517.89a1.89,1.89,0,0,1-1.29,2C520.25,518.73,520.79,517.89,521.55,517.89Z"/><path class="cls-15" d="M370.1,521.89c.47-.76.95-1.51,1.43-2.26A2.24,2.24,0,0,1,370.1,521.89Z"/><path class="cls-10" d="M412.19,451l1.53-2.37A2.81,2.81,0,0,1,412.19,451Z"/><path class="cls-6" d="M377.82,458.47l-1.35,2A1.76,1.76,0,0,1,377.82,458.47Z"/><path class="cls-6" d="M383.58,448.82l-1.37,2.06A1.86,1.86,0,0,1,383.58,448.82Z"/><path class="cls-6" d="M385.75,445.25l-1.34,2C384.34,446,384.85,445.25,385.75,445.25Z"/><path class="cls-6" d="M518,426a2.48,2.48,0,0,1,1.51-2.24A2.52,2.52,0,0,1,518,426Z"/><path class="cls-6" d="M519.55,423.59l1.29-1.92A1.67,1.67,0,0,1,519.55,423.59Z"/><path class="cls-7" d="M429.46,421.81l1.21-1.68A1.59,1.59,0,0,1,429.46,421.81Z"/><path class="cls-6" d="M522.19,418.36a1.89,1.89,0,0,1,1.53-2.05Z"/><path class="cls-7" d="M431.46,418.33l1.44-2.12A2.29,2.29,0,0,1,431.46,418.33Z"/><path class="cls-6" d="M491,318.34l1.38-2A1.94,1.94,0,0,1,491,318.34Z"/><path class="cls-6" d="M493,314.62a2.28,2.28,0,0,1,1.39-2.1A2,2,0,0,1,493,314.62Z"/><path class="cls-15" d="M433,519.05a2.88,2.88,0,0,1-1.62,2.53A3,3,0,0,1,433,519.05Z"/><path class="cls-6" d="M495,310.84a2,2,0,0,1,1.42-2.08A2.14,2.14,0,0,1,495,310.84Z"/></g></g></svg>