<svg xmlns="http://www.w3.org/2000/svg" viewBox="0 0 900.01 966.52"><defs><style>.cls-1{fill:#cecfce;}.cls-2{fill:#93651f;}.cls-3{fill:#d3ba86;}.cls-4{fill:#edb43f;}.cls-5{fill:#f6ec7f;}.cls-6{fill:#9e8123;}.cls-7{fill:#b7934d;}.cls-8{fill:#eebc53;}.cls-9{fill:#5b5a5a;}.cls-10{fill:#a99a6d;}.cls-11{fill:#ac841f;}.cls-12{fill:#e5d974;}</style></defs><g id="Layer_2" data-name="Layer 2"><g id="LOGO-Model_Image_Image" data-name="LOGO-Model Image Image"><path class="cls-1" d="M836.77,775.44c-.15,3.83-.43,7.66-.44,11.48q0,49.88,0,99.73c0,3.19-.15,6.38-.33,9.56a3.58,3.58,0,0,1-3.24,3c-3.19.13-6.39.22-9.58.22H83.43c-3.52,0-7,0-10.55-.16-2.53-.09-3.92-1.65-4.07-4.35-.08-1.28-.11-2.56-.12-3.84,0-2.23,0-4.47,0-6.71q0-369.66,0-739.31c0-3.52,0-7,.16-10.55.1-2.51,1.67-3.93,4.38-4,2.56-.11,5.12-.12,7.68-.12,12.79,0,25.58,0,38.37,0,3.52,0,7-.16,10.55-.25l.8.77c0,3.83-.07,7.67-.07,11.5V761.73c0,2.55,0,5.11,0,7.67,0,1,.15,1.9.24,2.86a3.1,3.1,0,0,0,2.42,2.6c2.23.17,4.46.34,6.68.35q22.55,0,45.09,0H822.93c4.47,0,8.94-.25,13.41-.38Z"/><path class="cls-1" d="M893.56,775c-17,0-34.1-.11-51.16-.1a51.41,51.41,0,0,0-5.63.58l-.43-.61c.09-3.51.27-7,.28-10.52q0-36.91,0-73.81,0-273.17,0-546.32c0-3.51-.06-7-.15-10.54a3.17,3.17,0,0,0-3-3.13c-3.51-.12-7-.22-10.54-.22H143.05c-4.14,0-8.31-.36-12.42.58l-.8-.77c.1-1.27.29-2.53.29-3.8q0-26.67-.09-53.35a4.11,4.11,0,0,1,1.6-.84c3.77,1,7.63.65,11.45.65H763.6c2.55,0,5.11,0,7.66-.11a12.93,12.93,0,0,0,2.78-.61c.89-.24,1.72-2.25,1.42-3.23a2.23,2.23,0,0,0-2.05-1.66c-3.19-.16-6.38-.28-9.57-.28q-67.62,0-135.23,0-242.64,0-485.29,0c-3.82,0-7.64.33-11.46.51l-3.65-.94a9.94,9.94,0,0,0,1.91-5.33c0-2.23,0-4.47,0-6.71,0-14.7,0-29.4,0-44.1a35.26,35.26,0,0,1,.55-6.65A4.39,4.39,0,0,1,134,.47a10,10,0,0,1,2.83-.4C140,0,143.23,0,146.42,0H885.06c3.82,0,7.65.21,11.47.38a3.38,3.38,0,0,1,2.64,2.44,23.17,23.17,0,0,1,.39,2.83c.07,2.88.06,5.75.06,8.63q0,86.78,0,173.54a12.1,12.1,0,0,0-1.91.11c-2.66.53-3.62,1.4-3.69,3.57-.11,3.51-.15,7-.15,10.53q0,279.77,0,559.52C893.89,766,893.67,770.49,893.56,775Z"/><path class="cls-2" d="M899.53,891.79c.07,2.87.2,5.75.21,8.62q.09,27.33.12,54.65c0,2.87-.1,5.74-.2,8.61a2.8,2.8,0,0,1-2.31,2.61c-1,.09-1.91.21-2.87.22-2.55,0-5.11,0-7.67,0H139.58c-3.51,0-7-.16-10.53-.28-1,0-1.93-1.68-1.83-3a2.45,2.45,0,0,1,1.56-2.18,8.33,8.33,0,0,1,2.84-.35c3.19,0,6.39,0,9.59,0H880.77c3.51,0,7-.1,10.54-.19a2.74,2.74,0,0,0,2.47-2.42c.12-2.55.24-5.1.25-7.65.06-16.3.07-32.59.13-48.89,0-3.19.16-6.39.24-9.58Z"/><path class="cls-3" d="M893.56,775c.11-4.47.33-8.93.33-13.4q0-279.75,0-559.52c0-3.51,0-7,.15-10.53.07-2.17,1-3,3.69-3.57a12.1,12.1,0,0,1,1.91-.11c.05,3.19.15,6.38.15,9.57q0,283.94,0,567.89c0,3.19-.21,6.37-.32,9.56l-5.13-.08Z"/><path class="cls-4" d="M1.64,391.18c-.11-3.81-.31-7.63-.31-11.45Q1.18,269.81,1.11,159.9c0-2.85.28-5.71.44-8.56l4.74-.21c1.15,3.42.71,7,.71,10.44q0,70.77-.08,141.55,0,38.73-.09,77.46c0,3.49-.4,7-.61,10.47Z"/><path class="cls-5" d="M6.38,481c.26,2.85.75,5.69.75,8.53q.06,71.73,0,143.46c0,2.55-.25,5.09-.37,7.64l-5.38,0a15.24,15.24,0,0,1-1.22-3.57C0,634.53,0,632,0,629.42q0-68.52,0-137a75,75,0,0,1,.18-7.65,12.45,12.45,0,0,1,1.45-3.44Z"/><path class="cls-6" d="M6.29,151.13l-4.74.21c-.1-6.33-.24-12.66-.27-19q-.15-28-.19-56.06c0-3.15.34-6.29.52-9.44q28.68,0,57.36,0c2.54,0,5.07-.29,7.61-.44a7.58,7.58,0,0,0,.94.13l60.69-.07,3.65.94c-.08,1.57-.15,3.14-.23,4.71A4.11,4.11,0,0,0,130,73c-2.23-.07-4.47-.21-6.7-.21H17.07c-2.54,0-5.09.13-7.64.25a2.74,2.74,0,0,0-2.31,2.59c-.11,2.87-.22,5.74-.23,8.6-.08,18.82-.12,37.63-.22,56.45C6.65,144.13,6.42,147.63,6.29,151.13Z"/><path class="cls-7" d="M894.33,774.77l5.13.08c.11,3.17.3,6.33.31,9.5q.15,49,.24,98c0,3.15-.31,6.31-.48,9.46l-5.13.16c-.19-1.89-.55-3.77-.55-5.66q.07-53.85.24-107.71C894.09,777.31,894.25,776,894.33,774.77Z"/><path class="cls-7" d="M6.51,731.09c.1,3.17.28,6.34.29,9.51q.13,43.8.21,87.61c0,3.16-.27,6.33-.41,9.49l-5,.4c-.2-2.2-.57-4.4-.56-6.6q.13-50.43.37-100.87Z"/><path class="cls-3" d="M6.51,731.09l-5.06-.46c-.12-2.55-.34-5.09-.33-7.64q.1-41.18.26-82.35l5.38,0c.12,2.21.34,4.43.35,6.65q.1,37.66.14,75.33C7.25,725.44,7.48,728.32,6.51,731.09Z"/><path class="cls-8" d="M6.38,481l-4.74.32Q1.49,456.63,1.35,432q-.09-15.66-.07-31.31c0-3.16.23-6.31.36-9.47l4.58-.13a43.58,43.58,0,0,1,.72,5.66q0,40.23-.16,80.47A34.72,34.72,0,0,1,6.38,481Z"/><path class="cls-1" d="M66.58,66.4c-2.54.15-5.07.44-7.61.44q-28.68,0-57.36,0A8.74,8.74,0,0,1,4,65.45a25.7,25.7,0,0,1,4.73-.31q25.71,0,51.43,0C62.4,65.13,64.67,64.88,66.58,66.4Z"/><path class="cls-3" d="M1.64,838.1l5-.4a2.08,2.08,0,0,1-1.82,1.81A2.8,2.8,0,0,1,1.64,838.1Z"/><path class="cls-9" d="M130.63,130.87c4.11-.94,8.28-.58,12.42-.58H823c3.51,0,7,.1,10.54.22a3.17,3.17,0,0,1,3,3.13c.09,3.51.15,7,.15,10.54q0,273.17,0,546.32,0,36.9,0,73.81c0,3.5-.19,7-.28,10.52-4.47.13-8.94.38-13.41.38H185q-22.54,0-45.09,0c-2.22,0-4.45-.18-6.68-.35a3.1,3.1,0,0,1-2.42-2.6c-.09-1-.23-1.91-.24-2.86,0-2.56,0-5.12,0-7.67V142.37C130.56,138.54,130.61,134.7,130.63,130.87ZM519.55,423.59a1.67,1.67,0,0,0,1.29-1.92l1-3.37.34.06,1.53-2.05c4.46-7.38,9-14.73,13.37-22.14q7.59-12.78,15-25.65a5.23,5.23,0,0,1,4.62-2.86c3.2-.1,6.4-.11,9.59-.11H721.75c2.88,0,5.76-.05,8.63-.2a5,5,0,0,0,4.1-2.16c4.68-7.24,9.3-14.53,13.93-21.81.42-.66-.4-2.1-1.2-2.12-3.19-.1-6.38-.27-9.56-.27q-53.25,0-106.5,0-39.35,0-78.68,0c-3.19,0-6.39.1-9.58.32a8,8,0,0,0-5.72,3.15,34.46,34.46,0,0,0-2.69,4q-17.87,30.09-35.66,60.21c-1.78,3-3.84,5.91-4.68,9.4a58.45,58.45,0,0,0-4.07,5.14c-2.67,4.26-5.29,8.57-7.68,13-3,5.52-6.95,10.52-9,16.56-5.71,7.52-10.32,15.72-14.79,24a2.8,2.8,0,0,0-.11.93l-2.32,3.3.07-.09c-.55,1.05-1.1,2.1-1.66,3.15a8.48,8.48,0,0,0-4.24,7.1l-1.51,2.48a5.44,5.44,0,0,0-3.12,5.29,1.91,1.91,0,0,0-.93,1.2V498c-.56,1.1-1.12,2.21-1.69,3.31a2.73,2.73,0,0,0-1.75,3l-2.09,3.52c-1.4.2-1.53,1.14-1.33,2.28a.85.85,0,0,0-.53.91,2.53,2.53,0,0,0-1.68,3l-.38.71-.62.24.16.6c-.63,1.17-1.25,2.35-1.88,3.53a3,3,0,0,0-1.62,2.53,5.42,5.42,0,0,0-2.11,3.79,4.26,4.26,0,0,0-2.22,3.38c-2.2,1.49-3.78,3.38-3.8,6.2a380.53,380.53,0,0,0-21,36.24,2.61,2.61,0,0,0-1.52,2.33l-.89,1.74c-2.45,1.67-3.84,4.16-5.26,6.66-1.25,2.21-2.61,4.36-3.94,6.52-3.16,5.14-6.37,10.25-9.46,15.43a30.83,30.83,0,0,0-2.36,5.2,7.61,7.61,0,0,0,.56,6.44c3.42,6.27,8.7,10.89,13.85,15.63a2.37,2.37,0,0,0,3.37-.43c2.39-3.75,4.77-7.51,7.06-11.32q11.07-18.37,22-36.81a33.48,33.48,0,0,0,2.05-5.27l1.46-2.14a2,2,0,0,0,1.5-2.16c1.34-2.17,2.73-4.31,4-6.51,4-6.88,8-13.78,11.94-20.67l.65-.25-.05-.66,1.38-2.54a1.13,1.13,0,0,0,1-1.41l1-2a2,2,0,0,0,1.33-2l.37-.6.7-.33,0-.74c1.9-2.44,3.75-4.91,4.41-8a2.07,2.07,0,0,0,.8-1.59,2.1,2.1,0,0,0,1.45-2.21L460,523l.77-.4,0-.85,1.23-2.2a1.47,1.47,0,0,0,1.22-1.75,276.81,276.81,0,0,0,16.12-27,1.73,1.73,0,0,0,1.26-2l.31-.59a3,3,0,0,0,1.87-3.16l.23-.42c.79-.19,1.16-.64.89-1.47l1-2.22a41.77,41.77,0,0,0,7.78-13,2.23,2.23,0,0,0,1.34-2.06,2.06,2.06,0,0,0,.66-1.47l1.59-2.44.14-.24a1.25,1.25,0,0,0,1-1.51c.31-.67.61-1.33.92-2,1.72-1,2.59-2.74,3.55-4.36q6.52-11,13-22.09c1.1-1.91,2-3.95,3-5.92a2.52,2.52,0,0,0,1.51-2.24Zm-148,96,.24-.42c.77-.12,1.05-.54.84-1.27.92-1.26,2-2.47,2.77-3.81,5.67-9.46,11.34-18.93,16.93-28.44,1.1-1.89,1.87-4,2.79-6,4.24-4.52,6.94-10,9.39-15.57a2.31,2.31,0,0,0,1.36-2.1l.46-.74.56-.18-.12-.52c.49-.89,1-1.78,1.48-2.68a1.2,1.2,0,0,0,1-1.47l.95-2a1.89,1.89,0,0,0,1.26-1.94,2.48,2.48,0,0,0,.73-1.58,2.81,2.81,0,0,0,1.53-2.37,1.35,1.35,0,0,0,.51-1.15,12.12,12.12,0,0,0,1.93-2q6.48-10.87,12.82-21.83a6.63,6.63,0,0,0,.48-1.8,1.59,1.59,0,0,0,1.21-1.68l.79-1.8a2.27,2.27,0,0,0,1.43-2.12,2.08,2.08,0,0,0,.62-1.49,46,46,0,0,0,3.48-4.45c4.73-7.9,9.34-15.86,14-23.78q18.93-32,37.89-63.87c.8-1.36,1.37-2.85,2-4.28a1.94,1.94,0,0,0,1.38-2,8.47,8.47,0,0,0,.66-1.69,2,2,0,0,0,1.39-2.1,7.7,7.7,0,0,0,.62-1.68,2.14,2.14,0,0,0,1.42-2.08l2.08-3.78a28.3,28.3,0,0,0,6.46-9.37c1.88-4.42,4.85-6.43,9.67-6,2.53.23,5.11,0,7.67,0H768.79c2.88,0,5.76,0,8.63,0a10.39,10.39,0,0,0,2.85-.31,4.64,4.64,0,0,0,2.44-1.37c2.12-3.14,5-5.86,5.77-9.81a26.76,26.76,0,0,0,3.24-3.42c1.76-2.66,3.3-5.47,4.92-8.22a2.22,2.22,0,0,0-1.9-3.39q-4.31-.16-8.63-.17h-280c-2.56,0-5.12,0-7.67.1a8.27,8.27,0,0,0-5.18,2.23c-3.24,2.74-6.28,7.61-8,12.74l-.21.24-1.34,1.55a5.67,5.67,0,0,0-.64.74.88.88,0,0,0-.86,1.14l-1,2.41L480,285.58c-3.9,4.57-6.35,10.06-9.48,15.11-.44.7-.17,1.83-.23,2.76l-.28,0c-.92,0-1.4.76-1.29,2.07a6.6,6.6,0,0,1-.64,1.34,2.18,2.18,0,0,0-1.59,2.12l-.26.38c-1,0-1.37.62-1.18,1.87-3.16,5.18-6.36,10.33-9.45,15.55Q440.71,351.87,425.89,377q-8.29,14-16.61,28a5.42,5.42,0,0,0-1.15,3.54,4.39,4.39,0,0,0-.69.67c-6,9.76-12.1,19.51-18.08,29.31a8.88,8.88,0,0,0-.66,2.74q-1.49,2-2.95,3.95c-.9,0-1.41.76-1.34,2-.27.52-.55,1-.83,1.56a1.86,1.86,0,0,0-1.37,2.06l-.27.45c-1.7.49-2.11,1.73-1.9,3.31l-.2.3c-.85,0-1.27.73-1.08,1.86-.3.56-.62,1.12-.94,1.67a1.76,1.76,0,0,0-1.35,2l-.29.48c-1.68.47-2.09,1.7-1.92,3.27l-.15.25a3.31,3.31,0,0,0-2,3.56L371,471.19a2,2,0,0,0-1,1.37l-.69.29.09.73-1.41,1.6V475l-1.8,3.76-.38,0,.28.2-1.71,2.95a9.19,9.19,0,0,0-4.34,7.26c-.49.81-1,1.61-1.48,2.41l-.71.41,0,.81a2.14,2.14,0,0,0-1,1.55c-2.66,1.35-3.18,4.27-4.72,6.44-1.21,1.72-2.51,3.45-2.46,5.73a.88.88,0,0,0-.58.93,2.2,2.2,0,0,0-1.6,2.72l-.37.7a17.83,17.83,0,0,0-6.25,10.9c-.49.83-1,1.66-1.45,2.49-2.52,1.24-3.4,3.73-4.41,6-2.27,5.16-1.57,10,2.19,14.22,3.2,3.53,6.72,6.78,10.15,10.11a2.49,2.49,0,0,0,4.05-.55c4.44-7.34,8.81-14.73,13.18-22.11.14-.24,0-.62.05-.94l1.31-2.28.78-.34,0-.82,1.21-2.19a1.5,1.5,0,0,0,1.24-1.75l.82-1.7A2.24,2.24,0,0,0,371.53,519.63Zm203.58-40.69a1.18,1.18,0,0,0,1.06-1.53q7.94-13.29,15.83-26.6a7.85,7.85,0,0,0,.55-1.78c2.76-1.93,3.64-5.16,5.39-7.79a3.86,3.86,0,0,1,3.14-1.89c2.87-.1,5.74-.16,8.61-.16h65.14c2.55,0,5.1,0,7.66,0a5.49,5.49,0,0,0,4.84-2.57c2.8-4.26,5.61-8.53,8.38-12.81,1.56-2.42,3-4.87,4.56-7.31,1.41-2.27.78-3.8-1.59-3.88-1.59-.05-3.19-.08-4.78-.08H595.24c-1.92,0-3.83,0-5.75.11a11.07,11.07,0,0,0-8.13,4.48,20.19,20.19,0,0,0-1.63,2.36c-3.74,6.31-7.51,12.61-11.17,19a30.37,30.37,0,0,0-1.76,4.42,24.47,24.47,0,0,0-2.43,2.89Q557,457.88,549.7,470.12a19.69,19.69,0,0,0-1.29,3.52c-1.78,2.57-3.71,5.05-5.3,7.73-7.24,12.15-14.39,24.34-21.56,36.52-.76,0-1.3.84-1.29,2l-.19.37c-1,0-1.38.62-1.13,1.85l-1.07,1.72a3.31,3.31,0,0,0-2,3.45l-.13.23a9.33,9.33,0,0,0-4.69,8c-.33.58-.66,1.16-1,1.74-.73,0-1.21.81-1.14,1.88l-2.43,4.18c-2.36,1.12-3.17,3.14-3.2,5.6l-.92,1.76a1.43,1.43,0,0,0-1.18,1.8l-.4.66c-1.65.42-2,1.56-1.75,3.09l-.36.57c-.89,0-1.19.53-.87,1.52l-1.12,2.12c-.8,0-1.21.67-1.05,1.72-1.14,2.45-2.92,4.6-3.3,7.38-2.32,1.35-3.42,3.69-4.71,5.86-2.09,3.55-4.07,7.17-6.1,10.76l-.71.07.31.61-1.41,2.91a3.77,3.77,0,0,0-3.06,2c-2.5,5.08-6.17,9.52-7.71,15.16-.73,2.68-2.47,5.1-3.85,7.59-2.31,4.14-4.69,8.24-7,12.35a8.43,8.43,0,0,0-1.3,1.38c-6.06,10.45-12.7,20.57-18,31.44a116.41,116.41,0,0,0-9.07,14.56,61.66,61.66,0,0,0-3.39,6.87,11.76,11.76,0,0,0,.42,10.19,21.25,21.25,0,0,0,11.84,10.61,5.17,5.17,0,0,0,6-1.87c.18-.26.37-.51.53-.79,6.35-10.69,12.74-21.37,19-32.11a34,34,0,0,0,2.05-5.32,29,29,0,0,0,3.2-3.47c1.75-2.66,3.38-5.41,4.9-8.2,3.5-6.44,7.95-12.33,10.8-19.13a4.29,4.29,0,0,0,.29-1.54l1.76-2.24c6.6-8.76,11.76-18.37,16.74-28.1a3,3,0,0,0,.16-.92,3.3,3.3,0,0,0,.55-1.44,2.55,2.55,0,0,0,1.62-2.24c5.5-7.3,9.86-15.3,14.3-23.25a7.15,7.15,0,0,0,.43-1.81l4.23-6c.86,0,1.35-.72,1.29-1.91.28-.54.54-1.09.78-1.64a2,2,0,0,0,1.48-2.14c5.07-8.44,10.17-16.87,15.18-25.35a50.92,50.92,0,0,0,2.33-5.15l.16-.29a3.55,3.55,0,0,0,2-3.4l.07-.12a1.43,1.43,0,0,0,1.17-1.73,252.8,252.8,0,0,0,16.17-27,1.78,1.78,0,0,0,1.28-2l.39-.67.71-.33L568,491l1.41-2.4c.81-.19,1.2-.66.95-1.52l1-2.24a1.15,1.15,0,0,0,1-1.47l1.14-1.92a1.91,1.91,0,0,0,1.32-2.05ZM193.88,268.61l1.4,1.57.24.29c-.3,4.42,1.89,7.34,5.64,9.31l.12.25a3.45,3.45,0,0,0,1.85,3.58c.45.84.93,1.67,1.34,2.53,2.33,4.82,6.35,6.92,11.51,7.16,1.59.08,3.19.06,4.78.06H409c2.23,0,4.47,0,6.69-.16a8.46,8.46,0,0,0,3.61-1.06c3.85-2.38,7.19-5.27,8.46-9.89a7.21,7.21,0,0,0,1.47-1.17q6.42-8.74,12.75-17.54c.16-.23.1-.62.14-.93-.8-.48-1.57-1.31-2.4-1.39-2.54-.22-5.1-.18-7.66-.18H200.14c-2.55,0-5.1.08-7.65.18-1.77.06-2,1.18-.85,3.27l.07.22c0,1.39.27,2.65,1.73,3.27Zm118.43,66.92H235.73c-1.6,0-3.19.07-4.78.14a1.8,1.8,0,0,0-1.37,2.77q6.38,10.67,12.81,21.3a22.66,22.66,0,0,0,2.35,3,10.3,10.3,0,0,0,7.48,3.74q3.83.17,7.65.16H361.35c2.23,0,4.47.05,6.7-.09,4.34-.27,8-1.89,10.59-5.58,5.34-7.55,10.77-15,16.13-22.56a1.66,1.66,0,0,0-1.1-2.78c-2.23-.06-4.46-.12-6.69-.13Z"/><path class="cls-10" d="M131.63,72.11c.08-1.57.15-3.14.23-4.71,3.82-.18,7.64-.51,11.46-.51q242.65,0,485.29,0,67.62,0,135.23,0c3.19,0,6.38.12,9.57.28a2.23,2.23,0,0,1,2.05,1.66c.3,1-.53,3-1.42,3.23a12.93,12.93,0,0,1-2.78.61c-2.55.11-5.11.11-7.66.11H143.08C139.26,72.76,135.4,73.15,131.63,72.11Z"/><path class="cls-4" d="M494.14,416c.84-3.49,2.9-6.39,4.68-9.4q17.76-30.14,35.66-60.21a34.46,34.46,0,0,1,2.69-4,8,8,0,0,1,5.72-3.15c3.19-.22,6.39-.32,9.58-.32q39.35,0,78.68,0,53.25,0,106.5,0c3.18,0,6.37.17,9.56.27.8,0,1.62,1.46,1.2,2.12-4.63,7.28-9.25,14.57-13.93,21.81a5,5,0,0,1-4.1,2.16c-2.87.15-5.75.2-8.63.2H566.32c-3.19,0-6.39,0-9.59.11a5.23,5.23,0,0,0-4.62,2.86q-7.43,12.87-15,25.65c-4.4,7.41-8.91,14.76-13.37,22.14a1.89,1.89,0,0,0-1.53,2.05l-.34-.06a40.55,40.55,0,0,0-15.58-2.21C502.24,416.26,498.18,416.06,494.14,416Z"/><path class="cls-6" d="M485.2,278c1.74-5.13,4.78-10,8-12.74A8.27,8.27,0,0,1,498.4,263c2.55-.06,5.11-.1,7.67-.1h280q4.32,0,8.63.17a2.22,2.22,0,0,1,1.9,3.39c-1.62,2.75-3.16,5.56-4.92,8.22a26.76,26.76,0,0,1-3.24,3.42c-4.15,0-8.29-.08-12.44-.08H496.68C492.85,278,489,278,485.2,278Z"/><path class="cls-4" d="M312.31,335.53H387c2.23,0,4.46.07,6.69.13a1.66,1.66,0,0,1,1.1,2.78c-5.36,7.52-10.79,15-16.13,22.56-2.61,3.69-6.25,5.31-10.59,5.58-2.23.14-4.47.09-6.7.09H259.87q-3.83,0-7.65-.16a10.3,10.3,0,0,1-7.48-3.74,22.66,22.66,0,0,1-2.35-3q-6.45-10.62-12.81-21.3a1.8,1.8,0,0,1,1.37-2.77c1.59-.07,3.18-.14,4.78-.14h76.58Z"/><path class="cls-11" d="M485.2,278c3.82,0,7.65.06,11.48.06H776c4.15,0,8.29,0,12.44.08-.76,3.95-3.65,6.67-5.77,9.81a4.64,4.64,0,0,1-2.44,1.37,10.39,10.39,0,0,1-2.85.31c-2.87,0-5.75,0-8.63,0H522.31c-2.56,0-5.14.2-7.67,0-4.82-.43-7.79,1.58-9.67,6a28.42,28.42,0,0,1-6.45,9.37c-2.54,0-4.74-1.88-7.47-1.1a28.22,28.22,0,0,1-17-.32c-1.16-.38-2.53-.09-3.8-.11.06-.93-.21-2.06.23-2.76,3.13-5.05,5.58-10.54,9.47-15.11l1.14-1.52c.34-.8.68-1.61,1-2.41a1.76,1.76,0,0,0,.87-1.14,6.46,6.46,0,0,1,.63-.74l1.35-1.55Z"/><path class="cls-6" d="M442.14,262.6c0,.31,0,.7-.14.93q-6.35,8.79-12.75,17.54a7.21,7.21,0,0,1-1.47,1.17c-.56-2.39-1.8-4.07-4.49-4.12-2.87,0-5.73-.08-8.6-.08H211.05c-3.19,0-6.37.06-9.56.09-.75-1.31-1.53-2.6-2.23-3.93a7.1,7.1,0,0,0-3.74-3.73l-.24-.29-1.4-1.57-.44-.63a3.1,3.1,0,0,0-1.73-3.28l-.07-.22c1.1-.57,2.18-1.54,3.32-1.63,3.18-.27,6.38-.21,9.57-.21Z"/><path class="cls-11" d="M201.49,278.13c3.19,0,6.37-.09,9.56-.09H414.69c2.87,0,5.73,0,8.6.08,2.69.05,3.93,1.73,4.49,4.12-1.27,4.62-4.61,7.51-8.46,9.89a8.46,8.46,0,0,1-3.61,1.06c-2.22.19-4.46.16-6.69.16H220.76c-1.59,0-3.19,0-4.78-.06-5.16-.24-9.18-2.34-11.51-7.16-.41-.86-.89-1.69-1.34-2.53a3.55,3.55,0,0,0-1.85-3.58l-.12-.25Z"/><path class="cls-8" d="M566.8,442.82a30.37,30.37,0,0,1,1.76-4.42c3.66-6.35,7.43-12.65,11.17-19a20.19,20.19,0,0,1,1.63-2.36,11.07,11.07,0,0,1,8.13-4.48c1.92-.11,3.83-.11,5.75-.11H693.9c1.59,0,3.19,0,4.78.08,2.37.08,3,1.61,1.59,3.88-1.51,2.44-3,4.89-4.56,7.31-2.77,4.28-5.58,8.55-8.38,12.81a5.49,5.49,0,0,1-4.84,2.57c-2.56,0-5.11,0-7.66,0H609.69c-2.87,0-5.74.06-8.61.16a3.86,3.86,0,0,0-3.14,1.89c-1.75,2.63-2.63,5.86-5.39,7.79-.4-2.48-1.69-4-4.35-4-1.26,0-2.52-.12-3.77-.06A47.2,47.2,0,0,1,566.8,442.82Z"/><path class="cls-4" d="M470.29,303.45c1.27,0,2.64-.27,3.8.11a28.22,28.22,0,0,0,17,.32c2.73-.78,4.93,1.1,7.47,1.1-.7,1.26-1.4,2.52-2.09,3.78a2,2,0,0,0-1.42,2.08,7.7,7.7,0,0,1-.62,1.68,2.28,2.28,0,0,0-1.39,2.1,8.15,8.15,0,0,1-.66,1.68l-1.38,2c-.67,1.43-1.24,2.92-2,4.28Q470,354.57,451,386.49c-4.7,7.92-9.31,15.88-14,23.78a46,46,0,0,1-3.48,4.45c-.51-2.86-2.14-4.36-5.12-4.29-.93,0-1.87,0-2.8,0a80.7,80.7,0,0,1-8.38-.09c-3-.32-6.06-1.12-9.08-1.72a5.42,5.42,0,0,1,1.15-3.54q8.31-14,16.61-28,14.85-25.14,29.71-50.29c3.09-5.22,6.29-10.37,9.44-15.55l1.19-1.87.25-.38a2.36,2.36,0,0,0,1.6-2.12,6.43,6.43,0,0,0,.64-1.35l1.29-2.06Z"/><path class="cls-5" d="M366.2,478.74,368,475v.2l1.4-1.6a2.42,2.42,0,0,0,.61-1,2,2,0,0,1,1-1.37,17.76,17.76,0,0,0,10,2.49c2.86-.13,5.73,0,8.59,0a7,7,0,0,1,2.79.44,4.21,4.21,0,0,1,1.93,1.89,18.69,18.69,0,0,1,.77,3.7c-.92,2-1.69,4.07-2.79,6-5.59,9.51-11.26,19-16.93,28.44-.81,1.34-1.85,2.55-2.77,3.81a2.5,2.5,0,0,0-.84,1.27l-.24.42c-.48.75-1,1.5-1.43,2.26l-.82,1.69c-.41.59-.82,1.18-1.24,1.76s-.81,1.46-1.2,2.19a2.32,2.32,0,0,0-.81,1.16L364.72,531c-6.67.07-13.35.17-20,.19-3.64,0-5.6-1-5.21-6,0-.32,0-.64,0-1,.49-.83,1-1.66,1.45-2.49,2.75-1.74,4-4.68,5.54-7.29.6-1,.5-2.4.72-3.61l.37-.7c.54-.9,1.07-1.81,1.6-2.72a.88.88,0,0,1,.58-.93c.76-.48,1.81-.77,2.25-1.45,2.15-3.33,4.27-6.7,4.93-10.72a2.14,2.14,0,0,1,1-1.55,3.1,3.1,0,0,0,.67-1.22c.49-.8,1-1.6,1.48-2.41,2.82-1.6,3.71-4.36,4.34-7.26l1.7-2.95Z"/><path class="cls-5" d="M569.45,488.6,568,491a1.54,1.54,0,0,0-.62,1.08l-.39.67-1.28,2a252.8,252.8,0,0,1-16.17,27l-1.17,1.73-.07.12a3.87,3.87,0,0,0-2,3.4l-.16.29c-6.84,0-13.68.08-20.53.08a3.93,3.93,0,0,1-4-3.15,20.68,20.68,0,0,0-1.12-2.56,6.7,6.7,0,0,0-.4-1.32l.19-.38a1.89,1.89,0,0,0,1.29-2c7.17-12.18,14.32-24.37,21.56-36.52,1.59-2.68,3.52-5.16,5.3-7.73h4.67q7.95,0,15.9,0a5.34,5.34,0,0,1,4.69,2.54c.35.52.79,1,1.18,1.45a11,11,0,0,0,.26,1.27l-.23.46a2.15,2.15,0,0,0-1.32,2.05l-1.14,1.91a2.27,2.27,0,0,0-1,1.48l-1,2.24A1.89,1.89,0,0,0,569.45,488.6Z"/><path class="cls-12" d="M399.89,575.26l.89-1.74a2.55,2.55,0,0,0,1.52-2.33,381.18,381.18,0,0,1,21-36.23c2.68-1.2,3.33-3.66,3.81-6.21a4.26,4.26,0,0,1,2.22-3.38,43.69,43.69,0,0,0,15.9,2c4.12-.17,8.24-.11,12.36-.15-.66,3.12-2.51,5.59-4.41,8a2.64,2.64,0,0,0-.72,1.08l-.37.6-1.33,2-1,2a2.2,2.2,0,0,0-1,1.42c-.46.85-.92,1.69-1.37,2.54a2.29,2.29,0,0,0-.61.91c-4,6.89-7.94,13.79-11.94,20.67-1.28,2.2-2.67,4.34-4,6.51l-1.5,2.16-1.46,2.14c-5.65,0-11.29-.11-16.93,0A24,24,0,0,1,399.89,575.26Z"/><path class="cls-5" d="M457.55,527.26c-4.12,0-8.24,0-12.36.15a43.69,43.69,0,0,1-15.9-2,5.42,5.42,0,0,1,2.11-3.79,2.88,2.88,0,0,0,1.62-2.53l1.87-3.53a2.49,2.49,0,0,0,.47-.84l.38-.71a3.85,3.85,0,0,0,1.68-3,.85.85,0,0,1,.53-.91l1.33-2.28,2.09-3.52a3.49,3.49,0,0,0,1.75-3c.57-1.1,1.13-2.21,1.69-3.31v.12a1.91,1.91,0,0,1,.93-1.2c2.71-.77,3-3,3.12-5.29l1.51-2.48c2.65-1.63,3.48-4.34,4.24-7.1.56-1,1.11-2.1,1.66-3.15l-.07.09,2.32-3.3c1.9.1,4-.25,5.65.4,4,1.53,8.1,1.37,12.22,1.41,1.59,0,3.17,0,4.76.1,2.25.08,3.4,1.39,3.84,3.48-.34.74-.69,1.48-1,2.22a1.79,1.79,0,0,0-.9,1.47l-.23.42a3.62,3.62,0,0,0-1.87,3.16l-.31.59-1.26,2a276.81,276.81,0,0,1-16.12,27l-1.22,1.75-1.23,2.2A2.53,2.53,0,0,0,460,523l-.24.42-1.45,2.21A2.07,2.07,0,0,1,457.55,527.26Z"/><path class="cls-7" d="M399.89,575.26a24,24,0,0,0,11,2c5.64-.11,11.28,0,16.93,0a33.48,33.48,0,0,1-2.05,5.27q-10.92,18.46-22,36.81c-2.29,3.81-4.67,7.57-7.06,11.32a2.37,2.37,0,0,1-3.37.43c-5.15-4.74-10.43-9.36-13.85-15.63a7.61,7.61,0,0,1-.56-6.44,30.83,30.83,0,0,1,2.36-5.2c3.09-5.18,6.3-10.29,9.46-15.43,1.33-2.16,2.69-4.31,3.94-6.52C396.05,579.42,397.44,576.93,399.89,575.26Z"/><path class="cls-12" d="M520.47,521.59a20.68,20.68,0,0,1,1.12,2.56,3.93,3.93,0,0,0,4,3.15c6.85,0,13.69,0,20.53-.08a50.92,50.92,0,0,1-2.33,5.15c-5,8.48-10.11,16.91-15.18,25.35-.49.71-1,1.42-1.48,2.14-.24.55-.5,1.1-.77,1.64l-1.3,1.91-4.22,6-28.49.1c.38-2.78,2.16-4.93,3.29-7.38l1.06-1.72c.38-.71.75-1.41,1.11-2.12a1.91,1.91,0,0,0,.88-1.52l.36-.57a3.35,3.35,0,0,0,1.75-3.09l.4-.66c.39-.6.78-1.2,1.18-1.8l.91-1.76c2.47-1.06,3.12-3.18,3.21-5.6l2.43-4.18,1.14-1.88,1-1.74c3-1.8,4.2-4.68,4.7-8l.13-.22a3.61,3.61,0,0,0,2-3.46l1.07-1.72C519.45,522,520,521.78,520.47,521.59Z"/><path class="cls-8" d="M494.14,416c4,0,8.1.24,12.13.07a40.55,40.55,0,0,1,15.58,2.21c-.34,1.13-.67,2.25-1,3.37l-1.29,1.92-.09.14A2.48,2.48,0,0,0,518,426c-1,2-1.88,4-3,5.92Q508.54,443,502,454c-1,1.62-1.83,3.34-3.55,4.36v-1.87c0-.32,0-.63,0-.94-.1-3.65-1.66-4.7-4.44-4.74-6.85-.11-13.71-.06-20.56-.07,2-6,6-11,9-16.56,2.39-4.43,5-8.74,7.68-13A58.45,58.45,0,0,1,494.14,416Z"/><path class="cls-2" d="M466.13,661.73a34,34,0,0,1-2.05,5.32c-6.27,10.74-12.66,21.42-19,32.11-.16.28-.35.53-.53.79a5.17,5.17,0,0,1-6,1.87,21.25,21.25,0,0,1-11.84-10.61,11.76,11.76,0,0,1-.42-10.19,61.66,61.66,0,0,1,3.39-6.87,116.41,116.41,0,0,1,9.07-14.56,43.57,43.57,0,0,0,15.92,2.1C458.51,661.54,462.32,661.71,466.13,661.73Z"/><path class="cls-7" d="M485.32,629.39a4.29,4.29,0,0,1-.29,1.54q-10,0-20.08.05c-3.17,0-5.54-1.2-6.83-4.21,2.35-4.11,4.73-8.21,7-12.35,1.38-2.49,3.12-4.91,3.85-7.59,1.54-5.64,5.21-10.08,7.71-15.16a3.8,3.8,0,0,1,3.06-2c-.06,1.57-.2,3.15-.13,4.72a3.52,3.52,0,0,0,3.51,3.67c6.94.07,13.88,0,20.82,0a3,3,0,0,1-.16.92c-5,9.73-10.14,19.34-16.74,28.1A3.1,3.1,0,0,0,485.32,629.39Z"/><path class="cls-8" d="M408.13,408.58c3,.6,6,1.4,9.08,1.72a80.7,80.7,0,0,0,8.38.09c.93,0,1.87.07,2.8,0,3-.07,4.61,1.43,5.12,4.29a2.11,2.11,0,0,1-.61,1.49l-1.44,2.12-.79,1.8-1.21,1.68a6.63,6.63,0,0,1-.48,1.8q-6.36,10.93-12.82,21.83a12.12,12.12,0,0,1-1.93,2c-.12-.62-.23-1.24-.38-1.85-.69-2.82-2.62-4.14-5.4-4.36q-1.41-.11-2.82-.09-8.47.06-16.93.16a8.88,8.88,0,0,1,.66-2.74c6-9.8,12-19.55,18.08-29.31A4.39,4.39,0,0,1,408.13,408.58Z"/><path class="cls-12" d="M388.7,441.3q8.46-.09,16.93-.16,1.41,0,2.82.09c2.78.22,4.71,1.54,5.4,4.36.15.61.26,1.23.38,1.85a1.35,1.35,0,0,1-.51,1.15L412.19,451a2.48,2.48,0,0,1-.73,1.58l-1.26,1.94c-.32.66-.63,1.33-.95,2a3.75,3.75,0,0,0-1,1.47c-.49.9-1,1.79-1.47,2.68l-.45.7-.46.74c-.46.7-.91,1.4-1.36,2.1-2.45,5.6-5.15,11-9.39,15.57a18.69,18.69,0,0,0-.77-3.7,4.21,4.21,0,0,0-1.93-1.89,7,7,0,0,0-2.79-.44c-2.86-.06-5.73-.15-8.59,0a17.76,17.76,0,0,1-10-2.49l1.09-3.16a4.06,4.06,0,0,0,2-3.56l.15-.25a3.91,3.91,0,0,0,1.92-3.27l.29-.48,1.35-2c.32-.55.64-1.11.94-1.67l1.08-1.86.2-.3a3.84,3.84,0,0,0,1.9-3.31l.27-.45,1.37-2.06c.28-.52.56-1,.83-1.56l1.34-2Q387.22,443.27,388.7,441.3Z"/><path class="cls-12" d="M574.85,477.67c-.39-.48-.83-.93-1.18-1.45a5.34,5.34,0,0,0-4.69-2.54q-8,0-15.9,0h-4.67a19.69,19.69,0,0,1,1.29-3.52q7.26-12.25,14.67-24.41a24.47,24.47,0,0,1,2.43-2.89A47.2,47.2,0,0,0,584.43,445c1.25-.06,2.51,0,3.77.06,2.66,0,3.95,1.53,4.35,4a7.85,7.85,0,0,1-.55,1.78q-7.87,13.32-15.82,26.6A6.66,6.66,0,0,0,574.85,477.67Z"/><path class="cls-6" d="M458.12,626.77c1.29,3,3.66,4.22,6.83,4.21q10,0,20.08-.05c-2.85,6.8-7.3,12.69-10.8,19.13-1.52,2.79-3.15,5.54-4.9,8.2a29,29,0,0,1-3.2,3.47c-3.81,0-7.62-.19-11.42,0a43.57,43.57,0,0,1-15.92-2.1c5.33-10.87,12-21,18-31.44A8.43,8.43,0,0,1,458.12,626.77Z"/><path class="cls-8" d="M504,598.13c-6.94,0-13.88,0-20.82,0a3.52,3.52,0,0,1-3.51-3.67c-.07-1.57.07-3.15.13-4.72.47-1,.94-1.93,1.4-2.9,0,0,.41-.68.41-.68,2-3.59,4-7.21,6.1-10.76,1.29-2.17,2.39-4.51,4.71-5.86l28.49-.1a7.61,7.61,0,0,1-.44,1.81c-4.44,7.95-8.8,15.95-14.3,23.25a2.45,2.45,0,0,0-1.62,2.24A3.3,3.3,0,0,1,504,598.13Z"/><path class="cls-12" d="M473.43,450.72c6.85,0,13.71,0,20.56.07,2.78,0,4.34,1.09,4.44,4.74,0,.31,0,.62,0,.94v1.87c-.31.66-.61,1.32-.92,2a3.63,3.63,0,0,0-1,1.51l-.14.24-1.59,2.44a2.06,2.06,0,0,1-.66,1.47c-.44.69-.89,1.37-1.34,2.06a41.77,41.77,0,0,1-7.78,13c-.44-2.09-1.59-3.4-3.84-3.48-1.59-.06-3.17-.08-4.76-.1-4.12,0-8.21.12-12.22-1.41-1.68-.65-3.75-.3-5.65-.4a2.8,2.8,0,0,1,.11-.93C463.11,466.44,467.72,458.24,473.43,450.72Z"/><path class="cls-12" d="M339.5,524.21c0,.32,0,.64,0,1-.39,5,1.57,6,5.21,6,6.68,0,13.36-.12,20-.19,0,.32.09.7-.05.94-4.37,7.38-8.74,14.77-13.18,22.11a2.49,2.49,0,0,1-4.05.55c-3.43-3.33-6.95-6.58-10.15-10.11-3.76-4.17-4.46-9.06-2.19-14.22C336.11,527.94,337,525.45,339.5,524.21Z"/><path class="cls-2" d="M442.14,262.6l-237.61,0c-3.19,0-6.39-.06-9.57.21-1.14.09-2.22,1.06-3.32,1.63-1.19-2.09-.92-3.21.85-3.27,2.55-.1,5.1-.18,7.65-.18H432.08c2.56,0,5.12,0,7.66.18C440.57,261.29,441.34,262.12,442.14,262.6Z"/><path class="cls-12" d="M356.94,494.3c-.66,4-2.78,7.39-4.93,10.72-.44.68-1.49,1-2.25,1.45-.05-2.28,1.25-4,2.46-5.73C353.76,498.57,354.28,495.65,356.94,494.3Z"/><path class="cls-12" d="M347.21,510.82c-.22,1.21-.12,2.62-.72,3.61-1.58,2.61-2.79,5.55-5.54,7.29A17.89,17.89,0,0,1,347.21,510.82Z"/><path class="cls-2" d="M201.49,278.13l-.33,1.65c-3.75-2-5.94-4.89-5.64-9.31a7.1,7.1,0,0,1,3.74,3.73C200,275.53,200.74,276.82,201.49,278.13Z"/><path class="cls-10" d="M515.79,527.51c-.5,3.28-1.69,6.16-4.7,8A9.36,9.36,0,0,1,515.79,527.51Z"/><path class="cls-12" d="M454.62,482c-.76,2.76-1.59,5.47-4.24,7.1A8.48,8.48,0,0,1,454.62,482Z"/><path class="cls-12" d="M364.39,481.86c-.63,2.9-1.52,5.66-4.34,7.26A9.19,9.19,0,0,1,364.39,481.86Z"/><path class="cls-3" d="M427.07,528.75c-.48,2.55-1.13,5-3.81,6.21C423.29,532.13,424.87,530.24,427.07,528.75Z"/><path class="cls-12" d="M448.87,491.6c-.11,2.32-.41,4.52-3.12,5.29A5.44,5.44,0,0,1,448.87,491.6Z"/><path class="cls-10" d="M506.55,543.27c-.09,2.42-.74,4.54-3.21,5.6C503.38,546.41,504.19,544.39,506.55,543.27Z"/><path class="cls-2" d="M191.71,264.7a3.1,3.1,0,0,1,1.73,3.28C192,267.35,191.71,266.09,191.71,264.7Z"/><path class="cls-10" d="M500.85,553.09a3.35,3.35,0,0,1-1.75,3.09C498.81,554.65,499.2,553.51,500.85,553.09Z"/><path class="cls-2" d="M201.28,280a3.55,3.55,0,0,1,1.85,3.58A3.45,3.45,0,0,1,201.28,280Z"/><path class="cls-10" d="M517.87,523.83a3.61,3.61,0,0,1-2,3.46A3.32,3.32,0,0,1,517.87,523.83Z"/><path class="cls-12" d="M546.33,526.93a3.87,3.87,0,0,1,2-3.4A3.55,3.55,0,0,1,546.33,526.93Z"/><path class="cls-12" d="M443.12,501.28a3.49,3.49,0,0,1-1.75,3A2.73,2.73,0,0,1,443.12,501.28Z"/><path class="cls-12" d="M349.18,507.4c-.53.91-1.06,1.82-1.6,2.72A2.2,2.2,0,0,1,349.18,507.4Z"/><path class="cls-12" d="M439.28,507.82,438,510.1C437.75,509,437.88,508,439.28,507.82Z"/><path class="cls-12" d="M437.42,511a3.85,3.85,0,0,1-1.68,3A2.53,2.53,0,0,1,437.42,511Z"/><path class="cls-3" d="M481,488.32a3.62,3.62,0,0,1,1.87-3.16A3,3,0,0,1,481,488.32Z"/><path class="cls-7" d="M374.11,464.47a4.06,4.06,0,0,1-2,3.56A3.31,3.31,0,0,1,374.11,464.47Z"/><path class="cls-7" d="M376.18,461a3.91,3.91,0,0,1-1.92,3.27C374.09,462.65,374.5,461.42,376.18,461Z"/><path class="cls-7" d="M381.94,451.33a3.84,3.84,0,0,1-1.9,3.31C379.83,453.06,380.24,451.82,381.94,451.33Z"/><path class="cls-10" d="M520.47,521.59c-.51.19-1,.36-1.53.52-.25-1.23.13-1.85,1.13-1.85A7,7,0,0,1,520.47,521.59Z"/><path class="cls-12" d="M460,523a2.53,2.53,0,0,1,.8-1.25l0,.85Z"/><path class="cls-12" d="M548.41,523.41l1.17-1.73A1.43,1.43,0,0,1,548.41,523.41Z"/><path class="cls-3" d="M567.42,492.08A1.54,1.54,0,0,1,568,491l.09.75Z"/><path class="cls-12" d="M368,525.34c.42-.58.83-1.17,1.24-1.76A1.5,1.5,0,0,1,368,525.34Z"/><path class="cls-12" d="M458.35,525.67l1.45-2.21A2.1,2.1,0,0,1,458.35,525.67Z"/><path class="cls-3" d="M565.75,494.71l1.28-2A1.78,1.78,0,0,1,565.75,494.71Z"/><path class="cls-12" d="M366,528.69a2.32,2.32,0,0,1,.81-1.16s0,.82,0,.82Z"/><path class="cls-3" d="M452.42,536.36a2.64,2.64,0,0,1,.72-1.08l0,.75Z"/><path class="cls-3" d="M450.72,539l1.33-2A2,2,0,0,1,450.72,539Z"/><path class="cls-10" d="M510.12,537.21,509,539.09C508.91,538,509.39,537.21,510.12,537.21Z"/><path class="cls-3" d="M448.68,542.38a2.2,2.2,0,0,1,1-1.42A1.15,1.15,0,0,1,448.68,542.38Z"/><path class="cls-3" d="M446.7,545.83a2.29,2.29,0,0,1,.61-.91s0,.66,0,.66Z"/><path class="cls-10" d="M502.43,550.63c-.4.6-.79,1.2-1.18,1.8A1.43,1.43,0,0,1,502.43,550.63Z"/><path class="cls-12" d="M358.57,491.53a3.1,3.1,0,0,1-.67,1.22l0-.81Z"/><path class="cls-10" d="M498.74,556.75a1.91,1.91,0,0,1-.88,1.52C497.55,557.28,497.85,556.75,498.74,556.75Z"/><path class="cls-7" d="M527.18,559.86c.49-.72,1-1.43,1.48-2.14A2,2,0,0,1,527.18,559.86Z"/><path class="cls-10" d="M496.75,560.39l-1.06,1.72C495.54,561.06,496,560.39,496.75,560.39Z"/><path class="cls-7" d="M525.11,563.41l1.3-1.91C526.46,562.69,526,563.41,525.11,563.41Z"/><path class="cls-3" d="M479.41,490.89l1.26-2A1.73,1.73,0,0,1,479.41,490.89Z"/><path class="cls-7" d="M402.3,571.19a2.55,2.55,0,0,1-1.52,2.33A2.61,2.61,0,0,1,402.3,571.19Z"/><path class="cls-7" d="M429.25,575.17l1.5-2.16A2,2,0,0,1,429.25,575.17Z"/><path class="cls-3" d="M569.45,488.6a1.89,1.89,0,0,1,.95-1.52C570.65,487.94,570.26,488.41,569.45,488.6Z"/><path class="cls-7" d="M481.59,586.11s-.43.68-.41.68-.3-.61-.3-.61Z"/><path class="cls-2" d="M193.88,268.61l1.4,1.57Z"/><path class="cls-7" d="M504.53,596.69a2.45,2.45,0,0,1,1.62-2.24A2.55,2.55,0,0,1,504.53,596.69Z"/><path class="cls-12" d="M571.41,484.84a2.27,2.27,0,0,1,1-1.48A1.15,1.15,0,0,1,571.41,484.84Z"/><path class="cls-6" d="M485.32,629.39a3.1,3.1,0,0,1,1.76-2.24Z"/><path class="cls-3" d="M483.08,484.74a1.79,1.79,0,0,1,.9-1.47C484.24,484.1,483.87,484.55,483.08,484.74Z"/><path class="cls-6" d="M485,278.22l-1.35,1.55Z"/><path class="cls-6" d="M483,280.51a1.76,1.76,0,0,1-.87,1.14A.89.89,0,0,1,483,280.51Z"/><path class="cls-3" d="M573.56,481.45a2.15,2.15,0,0,1,1.32-2.05A1.91,1.91,0,0,1,573.56,481.45Z"/><path class="cls-3" d="M574.85,477.67a6.66,6.66,0,0,1,1.33-.26,1.19,1.19,0,0,1-1.07,1.53A11,11,0,0,1,574.85,477.67Z"/><path class="cls-12" d="M456.21,479l.07-.09Z"/><path class="cls-12" d="M366.2,478.74l-.11.17-.27-.2Z"/><path class="cls-12" d="M368,475.18v0Z"/><path class="cls-12" d="M370,472.56a2.42,2.42,0,0,1-.61,1s-.08-.73-.08-.73Z"/><path class="cls-8" d="M492.78,468.05c.45-.69.9-1.37,1.34-2.06A2.23,2.23,0,0,1,492.78,468.05Z"/><path class="cls-6" d="M481.13,284.06,480,285.58Z"/><path class="cls-8" d="M494.78,464.52l1.59-2.44Z"/><path class="cls-8" d="M404.49,464.16c.45-.7.9-1.4,1.36-2.1A2.31,2.31,0,0,1,404.49,464.16Z"/><path class="cls-8" d="M496.51,461.84a3.63,3.63,0,0,1,1-1.51A1.25,1.25,0,0,1,496.51,461.84Z"/><path class="cls-8" d="M406.31,461.32l.45-.7s.11.52.11.52Z"/><path class="cls-11" d="M468.08,306.82a2.36,2.36,0,0,1-1.6,2.12A2.2,2.2,0,0,1,468.08,306.82Z"/><path class="cls-11" d="M466.23,309.32,465,311.19C464.86,309.94,465.25,309.32,466.23,309.32Z"/><path class="cls-8" d="M408.23,457.94a3.75,3.75,0,0,1,1-1.47A1.2,1.2,0,0,1,408.23,457.94Z"/><path class="cls-11" d="M470,303.41l-1.29,2.06C468.61,304.17,469.09,303.41,470,303.41Z"/><path class="cls-7" d="M379.84,454.94l-1.08,1.86C378.57,455.67,379,454.94,379.84,454.94Z"/><path class="cls-12" d="M444.82,498.09v0Z"/><path class="cls-12" d="M435.36,514.68a2.49,2.49,0,0,1-.47.84s-.15-.6-.15-.6Z"/><path class="cls-12" d="M371.77,519.21a2.5,2.5,0,0,1,.84-1.27C372.82,518.67,372.54,519.09,371.77,519.21Z"/><path class="cls-8" d="M410.2,454.48l1.26-1.94A1.89,1.89,0,0,1,410.2,454.48Z"/><path class="cls-12" d="M462.07,519.59l1.22-1.75A1.47,1.47,0,0,1,462.07,519.59Z"/><path class="cls-10" d="M521.55,517.89a1.89,1.89,0,0,1-1.29,2C520.25,518.73,520.79,517.89,521.55,517.89Z"/><path class="cls-12" d="M370.1,521.89c.47-.76.95-1.51,1.43-2.26A2.24,2.24,0,0,1,370.1,521.89Z"/><path class="cls-8" d="M412.19,451l1.53-2.37A2.81,2.81,0,0,1,412.19,451Z"/><path class="cls-7" d="M377.82,458.47l-1.35,2A1.76,1.76,0,0,1,377.82,458.47Z"/><path class="cls-7" d="M383.58,448.82l-1.37,2.06A1.86,1.86,0,0,1,383.58,448.82Z"/><path class="cls-7" d="M385.75,445.25l-1.34,2C384.34,446,384.85,445.25,385.75,445.25Z"/><path class="cls-7" d="M518,426a2.48,2.48,0,0,1,1.51-2.24A2.52,2.52,0,0,1,518,426Z"/><path class="cls-7" d="M519.55,423.59l1.29-1.92A1.67,1.67,0,0,1,519.55,423.59Z"/><path class="cls-4" d="M429.46,421.81l1.21-1.68A1.59,1.59,0,0,1,429.46,421.81Z"/><path class="cls-7" d="M522.19,418.36a1.89,1.89,0,0,1,1.53-2.05Z"/><path class="cls-4" d="M431.46,418.33l1.44-2.12A2.29,2.29,0,0,1,431.46,418.33Z"/><path class="cls-7" d="M491,318.34l1.38-2A1.94,1.94,0,0,1,491,318.34Z"/><path class="cls-7" d="M493,314.62a2.28,2.28,0,0,1,1.39-2.1A2,2,0,0,1,493,314.62Z"/><path class="cls-12" d="M433,519.05a2.88,2.88,0,0,1-1.62,2.53A3,3,0,0,1,433,519.05Z"/><path class="cls-7" d="M495,310.84a2,2,0,0,1,1.42-2.08A2.14,2.14,0,0,1,495,310.84Z"/></g></g></svg>